{"glyphs":{"0":{"ha":688,"x_min":0,"x_max":0,"o":""},"1":{"ha":688,"x_min":0,"x_max":0,"o":""},"2":{"ha":688,"x_min":0,"x_max":0,"o":""},"3":{"ha":688,"x_min":0,"x_max":0,"o":""},"4":{"ha":688,"x_min":0,"x_max":0,"o":""},"5":{"ha":688,"x_min":0,"x_max":0,"o":""},"6":{"ha":688,"x_min":0,"x_max":0,"o":""},"7":{"ha":688,"x_min":0,"x_max":0,"o":""},"8":{"ha":688,"x_min":0,"x_max":0,"o":""},"9":{"ha":688,"x_min":0,"x_max":0,"o":""}," ":{"ha":345,"x_min":0,"x_max":0,"o":""},"!":{"ha":456,"x_min":0,"x_max":0,"o":""},"\"":{"ha":456,"x_min":0,"x_max":0,"o":""},"#":{"ha":906,"x_min":0,"x_max":0,"o":""},"$":{"ha":688,"x_min":0,"x_max":0,"o":""},"%":{"ha":1092,"x_min":0,"x_max":0,"o":""},"&":{"ha":1141,"x_min":0,"x_max":0,"o":""},"'":{"ha":235,"x_min":0,"x_max":0,"o":""},"(":{"ha":514,"x_min":0,"x_max":0,"o":""},")":{"ha":514,"x_min":0,"x_max":0,"o":""},"*":{"ha":694,"x_min":0,"x_max":0,"o":""},"+":{"ha":688,"x_min":0,"x_max":0,"o":""},",":{"ha":378,"x_min":0,"x_max":0,"o":""},"-":{"ha":454,"x_min":0,"x_max":0,"o":""},".":{"ha":378,"x_min":0,"x_max":0,"o":""},"/":{"ha":386,"x_min":0,"x_max":0,"o":""},":":{"ha":378,"x_min":0,"x_max":0,"o":""},";":{"ha":378,"x_min":0,"x_max":0,"o":""},"<":{"ha":688,"x_min":0,"x_max":0,"o":""},"=":{"ha":688,"x_min":0,"x_max":0,"o":""},">":{"ha":688,"x_min":0,"x_max":0,"o":""},"?":{"ha":507,"x_min":0,"x_max":0,"o":""},"@":{"ha":1369,"x_min":0,"x_max":0,"o":""},"A":{"ha":959,"x_min":20,"x_max":878,"o":"m 802 68 q 808 62 808 66 q 805 59 805 62 q 797 62 800 62 q 802 68 798 68 m 778 63 l 791 62 l 791 49 q 796 43 791 43 q 807 51 807 48 q 805 59 805 56 q 810 51 810 59 l 819 56 l 829 45 q 823 39 828 39 q 821 42 823 42 q 814 35 820 34 l 806 40 l 804 40 l 795 35 q 793 38 795 38 q 787 31 793 30 q 785 39 785 36 l 779 36 l 774 37 l 768 39 q 765 26 768 26 q 750 43 749 26 l 741 38 l 739 38 l 739 46 l 731 47 q 728 39 731 43 q 730 28 730 34 l 724 25 l 722 25 q 717 41 722 30 q 706 39 712 39 l 708 20 l 703 20 l 703 26 l 700 26 q 694 21 694 26 l 689 24 l 686 24 q 684 22 684 24 l 678 24 l 670 20 l 665 22 q 656 20 659 20 q 640 29 640 24 l 644 43 l 638 43 q 633 35 633 43 q 635 26 635 29 l 632 26 q 629 29 629 26 l 624 27 l 616 27 q 611 41 610 28 q 602 25 603 41 l 600 26 l 592 31 l 591 26 q 594 18 594 20 l 586 18 q 572 26 572 25 l 567 24 q 562 33 562 24 l 557 33 l 556 31 l 558 16 l 547 17 q 534 23 534 18 l 521 21 q 505 27 516 21 l 488 25 l 483 28 q 480 26 483 26 l 483 20 l 482 18 l 474 18 l 475 26 l 477 31 l 473 34 q 455 16 472 24 l 452 16 l 456 29 l 450 33 q 444 19 445 33 l 439 20 l 439 28 l 437 28 l 429 22 l 423 23 l 423 26 l 426 31 q 413 39 421 31 l 410 40 l 410 37 q 415 23 415 28 l 409 21 l 407 21 l 401 24 q 395 19 401 18 l 387 19 q 380 33 380 20 l 363 20 q 361 23 360 20 l 355 20 l 345 32 l 339 33 q 334 24 339 24 q 313 39 334 29 l 310 39 l 309 37 l 317 25 q 303 18 317 20 l 303 20 q 307 31 307 25 q 291 43 304 31 q 285 35 290 35 l 288 29 l 287 21 l 281 21 q 271 33 271 26 l 269 33 l 269 24 l 250 28 q 238 18 246 20 q 236 29 235 23 l 231 29 q 227 18 230 18 l 219 19 q 214 14 219 14 q 208 20 214 19 q 200 12 208 16 l 195 14 l 189 12 q 165 24 180 12 q 162 16 162 19 l 157 16 l 157 22 l 154 22 l 149 20 q 143 25 149 25 q 138 20 143 20 l 132 20 l 133 28 l 130 28 l 121 24 l 119 29 q 122 31 122 28 q 106 41 112 40 l 106 38 l 109 32 l 103 30 l 98 33 l 100 38 l 100 41 l 92 36 l 90 36 l 90 41 l 87 41 l 79 36 l 76 37 q 58 51 76 39 l 52 48 l 50 49 l 36 57 q 31 52 36 52 l 20 66 l 20 69 q 101 52 101 57 q 123 56 111 56 l 136 56 q 161 49 143 55 q 177 54 170 54 l 177 51 l 182 53 l 185 53 l 193 47 q 202 55 193 51 l 215 52 q 270 57 269 52 l 281 54 l 308 56 l 308 53 q 324 58 317 58 l 330 57 q 332 54 332 57 l 338 57 l 343 54 q 354 56 348 56 l 354 54 l 359 56 l 368 56 l 373 52 l 376 58 l 387 54 q 468 59 409 59 l 473 56 q 481 58 479 58 l 506 54 q 515 62 506 58 q 547 55 522 62 l 547 58 l 552 55 l 564 62 q 568 57 569 61 q 563 52 563 56 q 568 46 564 46 l 573 45 q 587 56 574 56 l 587 53 q 610 63 602 55 q 623 49 623 58 l 631 48 l 634 62 q 639 56 640 61 l 659 64 q 669 47 664 47 q 683 62 669 58 l 688 62 l 699 51 q 707 64 703 64 l 718 50 l 720 55 l 718 60 l 726 60 l 736 52 q 751 59 737 58 l 753 54 l 747 45 l 753 45 q 758 51 758 45 q 756 59 755 56 l 762 61 l 761 53 l 769 53 l 770 58 q 772 56 772 58 q 781 58 777 58 l 778 63 m 629 68 l 631 67 l 631 59 l 629 60 q 623 65 623 60 l 629 68 m 851 54 l 856 52 q 859 54 857 54 l 864 45 l 853 41 l 850 46 l 851 54 m 682 54 l 682 52 l 688 52 l 688 54 l 682 54 m 867 48 l 878 47 q 872 43 878 42 q 867 48 867 43 m 834 44 l 840 44 l 840 41 q 833 36 839 36 l 831 37 q 834 44 834 41 m 663 44 l 663 39 l 665 39 l 666 44 l 663 44 m 684 43 l 684 41 q 690 35 685 35 l 690 37 q 684 43 690 43 m 760 39 l 760 34 l 763 34 l 763 39 l 760 39 m 622 38 l 627 38 l 627 43 q 622 38 622 43 m 535 34 l 534 31 l 540 31 l 541 34 l 535 34 m 719 25 l 722 25 l 722 20 l 719 20 l 719 25 m 521 26 l 521 24 l 526 24 l 526 26 l 521 26 m 545 25 q 551 20 546 20 l 553 25 l 545 25 m 136 37 l 136 31 l 138 31 l 138 36 l 136 37 m 301 31 l 304 26 l 303 23 l 295 24 l 296 26 q 301 31 296 31 z "},"B":{"ha":869,"x_min":20,"x_max":788,"o":"m 53 95 l 58 95 l 66 90 l 72 90 l 80 95 q 85 90 85 94 q 83 87 83 90 l 91 81 q 96 87 92 87 l 99 87 l 99 84 q 91 79 99 79 l 91 76 q 104 71 98 76 q 118 81 118 78 l 113 90 q 118 95 113 95 l 123 92 q 126 95 123 95 q 134 81 127 81 l 134 76 q 126 71 134 71 l 126 65 l 132 68 q 140 60 132 64 q 148 62 145 62 l 148 73 q 137 92 137 73 l 142 95 q 151 92 148 92 q 159 95 156 95 q 164 90 159 90 l 161 84 l 161 81 l 167 81 q 172 90 172 81 l 186 90 l 194 95 q 208 79 197 95 l 208 73 q 197 60 197 73 q 183 41 183 54 l 183 38 q 191 46 191 38 l 194 46 l 199 43 l 202 49 q 199 57 199 54 q 213 76 213 61 l 218 76 l 218 68 l 221 68 l 227 71 l 229 65 l 229 60 l 227 54 l 232 52 l 237 52 l 237 54 q 235 62 235 60 l 240 65 q 245 57 245 65 q 264 71 258 71 q 259 76 264 76 l 256 71 q 248 73 251 73 q 240 71 243 71 q 235 79 237 79 q 243 92 238 92 q 281 73 281 86 l 281 68 l 283 68 q 319 84 283 84 q 327 71 327 75 q 340 87 338 87 q 343 79 343 81 l 354 87 q 359 81 355 81 q 368 84 365 84 l 373 81 l 378 84 l 384 81 q 392 84 389 84 q 395 62 395 81 q 403 71 397 62 l 400 76 l 400 81 q 411 87 411 81 q 414 84 414 87 l 427 87 q 433 79 433 87 l 444 87 l 446 87 l 446 76 l 441 76 l 441 73 l 446 73 q 465 87 450 87 l 476 81 q 481 87 477 87 l 495 79 q 519 90 495 83 l 522 84 l 536 87 q 541 79 541 87 l 547 79 q 555 87 547 87 q 568 73 562 85 q 560 62 564 73 l 566 60 q 574 68 566 64 q 576 65 574 65 l 571 54 l 574 54 q 585 57 578 57 l 582 71 l 590 76 l 587 81 l 587 87 l 593 87 q 604 84 599 87 q 612 87 609 87 q 620 76 616 76 l 623 76 q 628 87 623 87 l 644 79 l 666 84 q 671 71 671 75 l 677 71 l 674 76 q 688 81 683 81 l 688 73 l 685 73 l 680 76 l 680 71 q 690 65 684 71 q 707 79 690 73 q 712 60 712 73 l 718 60 q 720 71 718 66 q 718 79 718 76 l 723 81 l 723 79 q 726 81 726 79 q 750 65 750 81 l 758 65 l 755 79 l 761 79 l 772 68 q 766 41 766 45 l 769 41 l 780 46 q 783 43 780 43 q 785 46 783 46 q 788 43 785 43 q 780 30 785 30 l 772 35 l 764 30 l 755 30 l 755 27 q 739 35 739 30 l 739 38 q 758 54 743 38 l 761 54 l 761 60 q 753 62 758 60 q 731 30 745 55 q 726 22 726 30 q 715 38 720 22 l 699 30 q 693 35 699 35 l 690 35 l 680 27 l 677 27 l 677 33 l 671 30 l 658 30 l 658 14 q 652 8 658 8 l 650 8 l 647 27 l 647 38 q 652 43 648 43 q 644 54 648 54 q 633 33 637 33 q 628 38 633 38 l 620 38 l 612 33 l 612 38 l 606 38 q 595 24 606 24 l 595 19 l 604 19 l 604 14 q 590 5 590 14 q 568 8 582 8 l 568 3 l 560 3 l 560 14 l 549 5 q 528 19 538 19 l 528 16 q 530 8 530 11 l 519 8 q 514 14 514 8 q 500 11 511 11 q 490 19 500 19 q 481 11 490 15 l 479 11 l 479 16 l 487 30 q 484 41 484 35 l 476 41 q 468 8 474 8 l 465 8 l 465 11 q 468 19 468 16 l 465 19 l 457 14 q 452 19 457 19 q 444 8 452 8 q 441 11 441 8 l 435 8 l 430 11 q 422 0 426 0 l 419 5 l 419 14 q 430 22 430 14 l 430 27 q 422 35 430 31 l 419 35 q 411 16 419 22 l 403 16 l 403 8 l 397 8 q 387 16 397 16 q 381 11 387 11 q 370 22 379 19 q 365 8 370 8 q 359 19 359 15 l 357 19 l 349 14 q 346 22 346 19 l 340 22 l 340 16 l 335 16 l 330 19 q 316 8 330 16 l 313 8 q 308 19 308 8 l 305 19 l 300 16 l 300 22 q 302 30 302 27 l 292 38 q 286 33 292 33 l 289 27 l 289 24 q 283 19 289 19 l 286 14 q 281 8 286 8 q 278 19 278 13 q 270 11 274 19 l 264 14 l 262 14 l 245 11 q 229 27 229 18 l 227 27 q 213 11 227 21 q 197 24 213 15 q 194 22 197 22 q 189 27 194 27 l 189 22 l 183 22 l 180 33 l 175 33 l 178 27 l 178 24 q 159 14 178 18 q 145 22 159 18 q 126 11 139 22 l 123 11 q 110 24 123 20 q 104 46 110 32 q 107 54 107 52 l 96 54 l 96 49 q 102 38 102 42 q 96 30 99 30 l 72 33 q 61 19 65 19 l 58 19 l 58 22 l 64 30 l 64 33 l 58 33 l 58 24 l 56 24 q 39 38 56 38 l 39 43 l 45 43 q 39 49 45 49 l 39 43 q 28 57 36 43 l 28 65 q 45 81 45 65 q 20 68 30 68 l 20 79 q 45 92 31 92 l 53 92 l 53 87 l 58 87 l 53 95 m 218 92 l 232 92 l 232 79 l 218 79 l 218 92 m 151 81 l 156 79 l 156 87 q 151 81 151 86 m 61 84 l 61 79 q 83 76 81 76 l 85 81 l 75 84 l 69 81 q 61 84 64 84 m 189 81 q 186 76 189 76 l 189 71 l 186 65 l 186 62 l 189 62 q 194 68 189 68 l 191 81 l 189 81 m 267 79 q 270 71 270 73 l 275 73 q 273 81 273 79 l 267 79 m 509 81 l 509 79 l 514 79 l 514 81 l 509 81 m 628 81 q 625 71 628 75 q 633 62 629 71 q 631 52 631 58 l 636 49 l 644 60 l 628 81 m 381 79 l 381 73 q 387 68 382 68 q 389 76 387 71 q 381 79 387 76 m 528 79 l 528 76 l 533 76 l 533 79 l 528 79 m 343 76 l 335 65 l 330 68 l 327 68 l 327 62 l 343 62 q 349 68 349 62 l 349 71 q 343 76 349 76 m 734 76 l 734 71 l 736 71 l 736 76 l 734 76 m 365 71 l 365 68 l 373 68 l 376 73 l 373 73 q 365 71 368 71 m 153 71 l 153 62 l 161 62 l 161 68 q 153 71 159 68 m 739 71 l 739 62 q 745 68 745 62 l 745 71 l 739 71 m 77 65 l 77 62 l 88 62 l 91 68 l 88 68 q 77 65 83 65 m 292 68 l 292 62 q 297 68 297 62 l 292 68 m 435 68 q 430 57 435 64 q 438 54 433 57 l 438 68 l 435 68 m 487 68 q 484 54 487 59 l 490 52 q 495 57 495 52 q 492 68 492 62 l 487 68 m 517 68 q 525 57 521 57 l 530 57 q 536 62 536 57 l 517 68 m 167 60 l 167 54 l 172 54 l 172 65 q 167 60 167 64 m 506 62 l 506 54 l 511 54 l 511 62 l 506 62 m 593 62 q 590 57 593 57 q 593 49 593 52 l 595 49 l 598 62 l 593 62 m 682 62 q 674 52 682 52 l 661 54 l 658 49 q 666 38 661 49 q 688 41 669 38 l 688 38 l 699 43 q 688 62 688 56 l 682 62 m 726 62 l 726 60 q 731 54 726 54 l 731 57 q 726 62 731 62 m 213 54 l 218 52 l 218 60 q 213 54 213 59 m 783 62 l 785 57 l 777 52 l 774 52 l 774 60 q 783 62 777 60 m 142 57 l 142 41 l 148 41 l 148 57 l 142 57 m 387 52 l 387 46 l 389 46 q 397 49 395 49 q 400 46 397 46 l 400 57 l 397 57 q 387 52 391 52 m 121 54 l 121 43 q 132 38 125 43 l 132 49 q 123 54 123 49 l 121 54 m 283 54 q 289 49 284 49 l 289 54 l 283 54 m 362 54 l 362 49 q 368 54 368 49 l 362 54 m 701 54 l 701 41 l 704 41 q 712 49 708 41 l 712 52 l 701 54 m 715 54 l 715 52 l 720 52 l 720 54 l 715 54 m 297 46 l 297 41 l 300 41 l 300 46 l 297 46 m 202 41 l 202 35 l 216 38 q 218 35 216 35 l 218 41 l 202 41 m 175 38 l 175 35 l 180 35 l 180 38 l 175 38 m 511 38 q 506 33 511 33 l 506 27 l 517 27 q 514 38 514 32 l 511 38 m 224 35 l 224 30 l 227 30 l 227 35 l 224 35 m 381 35 l 384 22 l 389 22 l 389 30 q 384 35 389 35 l 381 35 m 563 35 l 560 30 q 563 27 563 30 l 568 30 l 576 24 q 587 30 576 30 l 587 35 l 585 35 l 579 33 l 574 35 q 566 33 568 33 q 563 35 566 35 m 368 33 l 368 27 l 373 27 l 373 33 l 368 33 m 547 33 l 547 27 l 549 27 l 549 33 l 547 33 m 452 30 l 452 22 l 457 22 l 457 30 l 452 30 m 465 30 l 465 24 l 468 24 l 468 30 l 465 30 m 490 30 l 490 24 q 495 30 495 24 l 490 30 m 538 27 l 538 22 l 541 22 l 541 27 l 538 27 m 555 27 l 555 22 l 557 22 l 557 27 l 555 27 m 243 24 l 243 22 q 248 16 243 16 l 248 24 l 243 24 m 639 24 l 644 16 l 639 16 q 633 22 633 16 l 639 24 m 747 24 l 750 19 l 750 16 l 747 16 q 742 22 742 16 l 747 24 m 544 19 l 544 14 l 549 14 l 549 19 l 544 19 m 620 22 q 628 19 625 19 l 628 14 l 625 14 q 617 16 620 16 q 614 14 617 14 l 612 19 q 620 22 617 22 m 701 22 l 709 8 l 704 5 l 696 16 q 701 22 696 22 m 685 19 l 688 19 l 688 14 l 685 14 l 685 19 z "},"C":{"ha":777,"x_min":20,"x_max":696,"o":"m 543 130 q 559 117 560 125 q 557 115 559 115 q 566 96 562 96 q 577 111 567 111 q 575 119 575 117 l 581 121 q 587 107 586 121 l 592 110 q 599 98 600 109 l 602 98 q 608 106 607 98 l 612 105 l 612 102 q 600 76 606 83 q 606 62 602 62 q 619 91 618 81 l 622 91 q 630 68 629 90 l 627 68 q 624 85 623 69 l 621 85 q 618 75 621 75 q 622 58 622 66 l 627 58 q 641 76 637 76 l 649 81 l 654 77 q 644 56 653 68 q 646 45 647 52 l 641 43 l 631 44 l 631 47 q 634 54 634 52 l 631 55 q 621 53 627 52 q 640 24 621 49 q 631 14 632 25 l 626 14 q 623 34 626 16 l 614 35 q 611 24 614 28 q 616 18 616 22 q 610 13 616 12 l 606 16 l 608 21 l 609 32 q 584 39 589 37 l 583 28 l 586 28 q 594 31 591 31 l 593 22 l 588 26 q 580 18 588 22 l 577 18 l 578 32 q 565 19 576 32 l 562 20 q 558 31 563 31 l 557 25 l 555 25 l 550 28 l 549 18 l 544 18 l 537 24 q 529 22 532 22 l 529 24 l 532 30 q 515 45 515 31 l 510 45 q 490 22 509 37 l 478 26 l 473 26 l 469 16 l 465 16 l 465 27 l 468 32 q 459 44 458 33 l 456 44 q 439 26 441 45 q 426 16 434 26 l 420 17 l 414 23 q 403 21 409 20 l 406 16 q 403 13 403 16 q 385 20 395 19 l 385 22 l 389 28 q 366 37 380 32 l 363 32 q 366 29 366 32 l 360 30 l 360 24 l 362 24 l 368 26 q 378 20 368 21 q 368 5 374 4 l 361 5 q 357 22 356 5 l 352 22 l 344 18 q 342 20 344 20 q 330 2 336 1 q 325 8 325 3 l 326 14 l 328 18 l 323 19 l 305 15 q 299 37 298 28 l 288 22 l 281 28 q 275 20 280 20 l 257 27 l 258 33 l 263 32 l 263 35 q 256 38 260 35 q 252 27 253 33 l 250 27 l 232 31 q 220 16 221 24 l 216 16 q 211 25 210 17 l 205 22 l 201 23 q 197 35 195 24 l 191 35 q 185 24 191 24 l 182 24 q 181 33 183 27 q 155 29 176 31 l 155 35 l 147 30 l 149 24 l 149 16 l 144 17 q 132 31 142 17 q 123 24 132 27 q 119 35 119 31 l 117 35 q 111 24 116 24 l 109 31 l 104 28 l 96 34 l 94 34 l 93 23 l 87 24 q 76 38 88 30 l 63 37 q 61 39 63 39 q 55 35 60 34 q 41 49 41 43 l 36 50 q 30 39 35 39 q 20 48 31 46 q 28 56 20 52 l 31 56 l 43 52 l 44 54 l 43 68 l 45 68 q 50 57 50 68 q 64 77 59 58 l 62 83 q 73 98 68 99 l 75 93 l 73 93 q 99 69 71 71 l 100 77 l 94 75 l 92 75 q 88 97 92 78 l 89 102 q 94 108 90 108 l 100 107 q 104 101 104 106 q 107 104 106 101 l 119 100 l 125 102 l 132 102 q 138 107 134 107 l 140 106 l 150 95 l 153 95 l 156 109 q 178 96 168 107 q 186 98 183 98 q 195 75 191 75 q 197 83 195 83 l 195 89 l 197 105 q 207 102 203 104 q 214 104 212 104 q 222 100 220 100 q 225 109 225 106 l 231 108 q 232 94 229 94 q 243 102 242 98 l 248 98 l 250 98 q 264 113 262 113 q 277 115 269 116 q 281 109 277 110 l 284 109 l 285 112 q 283 120 282 117 l 285 120 q 292 103 290 119 l 296 102 l 308 118 l 311 118 q 315 106 316 117 l 323 111 l 333 108 q 341 115 340 107 l 349 115 q 353 109 354 114 q 348 104 349 109 l 353 101 l 355 101 q 361 109 356 109 l 359 114 l 359 117 q 370 121 363 117 l 374 111 q 393 117 385 112 l 395 111 q 387 104 391 112 l 389 98 l 394 100 l 412 99 l 412 102 l 400 114 l 406 116 q 420 109 413 110 q 427 123 426 116 l 431 119 l 439 119 q 448 110 439 115 q 457 117 449 112 q 455 125 455 123 l 458 125 l 465 119 q 473 121 470 122 q 487 110 472 118 l 505 109 l 503 114 q 519 129 508 130 q 529 123 519 123 l 529 120 q 524 115 524 120 l 519 118 l 513 119 q 510 111 513 116 q 517 104 518 110 l 515 99 l 514 96 l 517 96 l 524 115 q 526 112 526 115 l 531 115 l 541 102 q 544 111 541 105 q 543 130 541 112 m 427 136 l 435 136 l 435 133 q 427 123 427 127 q 422 128 421 123 l 422 131 q 427 136 423 136 m 448 134 l 453 134 l 453 132 l 448 132 l 448 134 m 476 130 l 478 130 q 483 123 484 128 l 475 124 l 476 130 m 494 128 l 498 119 l 498 117 l 493 117 q 488 123 488 118 q 494 128 489 128 m 580 111 l 579 105 l 582 105 l 582 111 l 580 111 m 528 104 l 527 98 l 530 98 l 530 104 l 528 104 m 364 114 l 363 109 l 366 108 l 367 113 l 364 114 m 540 94 l 540 92 q 545 97 545 92 l 545 100 q 540 94 540 99 m 588 91 l 587 83 l 590 83 l 591 91 l 588 91 m 575 86 q 572 79 575 83 l 572 76 l 574 75 q 577 83 574 78 l 578 86 l 575 86 m 516 88 l 516 83 l 513 83 l 509 86 l 507 73 l 517 72 l 522 88 l 516 88 m 650 73 l 656 73 l 661 70 q 657 62 657 64 q 650 71 653 62 l 650 73 m 406 86 l 406 81 l 408 81 l 408 86 l 406 86 m 637 68 l 637 62 l 642 62 q 637 68 643 68 m 61 113 q 66 107 66 112 l 66 102 q 60 97 65 96 q 56 111 56 106 l 61 113 m 163 94 l 162 92 l 170 91 l 171 99 l 168 99 q 163 94 163 99 m 594 66 l 593 60 l 596 60 l 597 66 l 594 66 m 670 60 l 673 60 l 672 55 l 669 55 l 670 60 m 685 60 q 690 54 690 58 l 684 52 l 682 52 q 685 60 685 57 m 545 67 l 545 64 l 553 64 l 553 66 l 545 67 m 231 89 q 239 80 231 85 l 241 80 l 241 83 q 237 88 241 88 l 231 89 m 252 87 l 251 79 q 256 84 256 79 l 252 87 m 652 56 l 659 56 l 661 45 l 667 47 q 696 34 666 39 l 696 31 q 685 26 692 32 q 670 33 677 33 l 665 34 l 657 29 q 655 37 655 35 l 650 38 l 650 35 q 659 18 649 22 q 656 7 656 14 l 650 7 q 644 24 646 8 q 647 27 646 24 q 642 33 642 27 l 643 43 q 654 48 653 43 q 652 56 652 54 m 456 68 l 455 63 q 460 68 460 62 l 456 68 m 555 58 l 552 53 l 552 50 l 554 50 q 559 55 559 50 l 555 58 m 35 96 l 37 96 q 41 90 42 95 l 41 87 l 39 87 q 34 93 34 88 l 35 96 m 203 80 l 202 75 l 207 75 q 203 80 208 80 m 615 43 q 620 37 616 37 l 621 42 l 615 43 m 559 39 l 564 38 l 564 43 q 559 39 559 43 m 66 77 l 66 75 l 68 68 q 64 58 65 64 l 64 56 l 77 57 l 78 60 q 68 77 72 77 l 66 77 m 479 42 l 479 37 q 486 28 479 33 l 486 33 q 479 42 486 37 m 351 50 l 351 47 q 359 41 359 46 l 361 41 l 361 46 l 357 49 l 351 50 m 397 35 l 396 27 l 404 26 l 402 40 q 397 35 397 40 m 601 24 q 606 19 606 24 l 601 19 l 601 24 m 159 54 l 159 51 l 164 50 l 164 53 l 159 54 m 414 28 l 419 28 l 420 33 q 414 28 414 33 m 552 18 l 554 17 q 562 14 559 14 q 564 16 562 17 l 566 11 q 561 6 566 5 q 551 12 562 12 l 552 18 m 538 10 l 541 5 l 535 3 l 532 3 l 533 5 q 538 10 534 11 m 456 12 l 461 11 l 463 0 l 460 0 q 456 6 456 1 l 456 12 m 87 10 l 92 9 l 92 7 l 87 7 l 87 10 z "},"D":{"ha":1035,"x_min":20,"x_max":954,"o":"m 922 76 q 929 67 922 72 l 934 67 l 935 73 l 939 72 l 939 61 q 933 56 938 56 l 926 57 q 914 66 926 63 l 915 74 q 922 76 920 76 m 949 73 l 954 72 l 954 66 l 948 67 l 949 73 m 901 76 l 904 76 l 903 68 l 911 73 l 913 73 l 907 62 q 909 51 909 57 l 907 51 q 899 54 902 54 l 900 62 l 905 60 l 905 65 q 896 74 895 66 l 901 76 m 867 76 l 866 73 q 861 68 866 68 q 859 71 861 71 q 850 50 855 50 l 847 50 l 848 64 l 843 64 q 823 55 843 58 l 823 50 l 820 50 l 815 53 l 814 45 l 810 45 l 810 56 q 834 76 817 56 l 839 75 q 844 67 844 75 l 848 66 q 867 76 849 77 m 886 75 q 890 68 891 73 q 882 56 886 56 l 880 61 l 881 69 q 886 75 882 75 m 814 77 l 817 77 q 821 71 822 76 l 821 68 l 819 69 q 817 72 817 69 l 812 69 l 809 70 l 809 73 q 814 77 810 78 m 753 79 l 758 77 l 772 78 q 774 75 772 75 l 771 62 l 770 48 l 772 43 l 767 43 q 761 60 768 47 l 765 73 l 762 73 q 753 58 758 74 q 758 41 758 48 q 752 36 757 36 l 749 36 l 750 47 q 747 77 751 50 l 753 79 m 792 77 l 792 74 l 797 76 l 800 76 q 806 59 807 73 l 805 51 l 800 52 l 799 68 q 793 60 794 68 q 795 52 795 54 l 790 52 l 791 58 l 785 55 l 783 56 l 777 72 l 782 72 l 781 66 l 787 66 q 792 77 787 77 m 869 71 q 875 54 876 67 l 869 52 l 865 54 l 869 71 m 703 81 l 715 72 l 718 71 l 715 77 l 720 79 q 725 73 726 78 l 724 60 q 713 45 723 44 l 713 42 l 715 36 l 709 34 q 697 37 707 37 q 692 30 696 29 l 690 35 q 692 38 692 35 q 669 48 675 41 q 661 41 668 40 l 663 35 l 663 32 q 646 20 662 28 l 642 20 q 637 28 637 20 l 632 29 q 624 19 631 18 q 614 22 620 22 q 612 20 614 20 q 607 26 612 25 q 592 19 604 18 q 589 22 589 19 q 570 18 576 17 l 570 20 l 564 18 l 552 19 q 550 22 550 19 q 513 17 543 17 l 513 20 l 507 17 l 505 18 q 468 18 492 18 l 468 20 l 463 18 l 446 19 q 435 18 440 20 q 433 20 433 18 q 393 18 406 17 l 389 21 l 384 19 q 381 22 381 19 q 339 20 361 18 l 282 24 q 273 22 277 24 q 270 25 270 22 l 258 23 l 248 24 q 238 27 242 24 q 203 25 225 26 q 161 33 201 28 q 154 31 157 31 q 81 48 144 37 q 23 99 20 64 l 26 98 q 94 77 35 81 l 98 79 q 100 77 101 79 l 163 79 l 163 77 l 168 79 l 172 76 q 200 79 197 80 l 200 77 q 237 82 213 80 l 242 79 q 307 82 281 84 l 309 82 l 321 78 q 327 83 323 83 l 336 82 q 389 83 349 81 q 395 73 395 77 l 403 72 q 420 81 404 79 q 425 75 421 76 l 433 80 l 435 80 l 435 72 l 440 71 q 446 82 441 82 l 453 81 l 465 77 q 471 83 467 83 q 482 71 469 72 q 488 81 482 75 q 497 73 497 77 q 525 81 513 82 l 532 81 q 534 77 534 80 l 540 80 l 542 80 l 541 72 l 551 71 q 559 84 554 84 q 562 81 559 81 q 555 52 555 55 l 577 80 l 592 81 q 596 75 592 76 l 609 83 q 619 79 613 79 q 627 81 624 81 q 637 56 637 64 l 642 56 l 642 58 l 641 77 l 646 80 l 656 79 q 661 71 661 79 l 663 71 l 673 80 l 693 79 q 703 81 699 78 m 738 78 q 743 72 743 77 l 742 69 l 737 70 l 738 78 m 614 77 l 612 63 l 615 63 l 616 77 l 614 77 m 698 71 q 694 62 697 67 l 699 59 q 696 52 696 54 q 698 43 698 46 q 707 59 703 43 q 704 62 704 59 q 709 66 709 61 q 698 71 701 67 m 730 71 l 734 70 q 736 59 734 64 l 731 57 l 729 57 l 730 71 m 584 74 l 583 60 q 588 65 588 60 l 588 68 q 584 74 589 73 m 677 61 q 683 44 679 45 q 687 66 684 56 l 685 66 l 677 61 m 527 75 l 526 67 l 534 67 q 532 75 532 73 l 527 75 m 573 66 q 570 50 570 52 q 575 56 574 50 l 576 66 l 573 66 m 487 71 l 486 62 l 491 62 l 492 70 l 487 71 m 499 70 l 498 64 l 501 64 l 502 69 l 499 70 m 541 66 l 541 64 l 546 63 l 546 66 l 541 66 m 432 69 l 432 64 l 434 64 l 435 69 l 432 69 m 604 47 l 614 47 l 614 55 q 604 47 604 52 m 741 48 q 745 42 745 47 l 740 43 l 741 48 m 543 50 l 549 50 l 550 58 q 543 50 547 58 m 583 55 l 582 52 l 587 52 l 587 54 l 583 55 m 627 49 l 626 43 l 633 43 q 629 48 634 48 l 627 49 m 648 47 l 648 39 l 650 39 q 654 47 650 41 l 648 47 m 725 43 q 730 38 730 42 q 724 33 729 33 l 722 33 q 720 41 722 36 l 725 43 m 488 46 q 494 43 490 45 l 495 51 l 493 51 q 488 46 488 50 m 559 43 l 559 37 q 564 43 564 37 l 559 43 m 618 36 q 623 30 618 31 l 623 35 l 618 36 m 571 37 l 570 31 l 573 31 l 574 37 l 571 37 m 608 34 l 608 28 l 612 28 q 608 34 613 33 z "},"E":{"ha":709,"x_min":20,"x_max":628,"o":"m 395 100 l 397 100 l 397 94 l 395 94 l 395 100 m 411 100 l 416 97 q 425 100 422 100 q 427 90 427 94 l 438 100 l 441 100 q 446 94 446 100 q 435 90 441 90 l 435 87 l 441 87 q 444 90 444 87 q 473 80 467 87 l 481 87 l 509 87 l 517 80 q 522 87 517 87 l 530 80 l 538 87 q 541 83 541 87 q 544 87 544 83 q 604 80 567 80 l 628 80 l 628 74 l 609 74 q 606 77 606 74 q 566 60 573 71 l 506 60 q 476 47 476 60 q 479 43 479 47 l 471 43 l 473 60 l 460 57 l 463 40 l 454 40 l 457 57 l 446 57 q 419 50 427 50 l 419 47 q 446 40 446 47 q 444 37 444 40 l 438 40 l 435 40 q 430 33 430 39 q 408 43 421 33 q 403 37 408 37 q 395 40 400 37 l 378 37 l 368 40 q 359 37 362 37 q 357 40 359 40 l 351 30 l 365 26 l 370 30 l 387 26 l 387 20 q 378 14 387 14 q 370 17 376 14 l 354 14 l 338 14 l 330 20 q 324 14 330 14 l 324 17 l 319 14 l 311 14 l 305 17 q 300 10 305 10 q 294 17 300 17 l 289 17 l 281 10 q 278 14 281 14 q 273 7 278 7 l 270 7 q 267 10 267 7 l 262 7 l 256 7 q 254 10 254 7 l 248 7 l 245 7 q 240 17 240 7 q 235 7 235 17 l 216 7 q 205 3 210 7 l 199 7 l 183 3 l 180 3 q 175 10 175 3 q 140 0 168 4 l 140 3 l 134 0 l 121 0 q 118 3 118 0 l 113 0 l 66 0 q 47 26 47 0 q 28 54 32 26 q 20 64 24 54 q 31 87 24 87 l 72 87 q 75 83 75 87 l 80 87 l 110 87 q 197 90 138 87 q 202 83 197 83 q 270 90 202 90 l 270 87 l 286 87 l 286 94 l 297 94 q 302 87 302 93 l 308 90 l 316 83 q 321 90 317 90 l 330 83 q 335 90 330 90 q 338 87 338 90 l 343 90 q 346 87 346 90 q 357 90 347 87 q 387 87 363 90 q 397 90 388 87 l 406 90 q 411 100 406 100 m 452 100 l 454 100 l 454 94 l 452 94 l 452 100 m 365 47 q 368 43 368 47 q 376 47 373 47 l 376 54 l 370 54 q 365 47 365 53 m 397 54 l 397 47 l 403 47 q 397 54 403 54 m 387 50 l 387 47 l 392 47 l 392 50 l 387 50 m 408 50 l 408 47 l 416 47 l 416 50 l 408 50 m 324 47 l 324 43 l 330 43 l 330 47 l 324 47 m 481 50 l 484 50 l 490 47 q 500 50 494 50 l 500 47 q 495 40 500 40 l 487 40 q 481 47 481 40 l 481 50 m 509 50 l 522 47 q 525 50 522 50 l 525 47 q 519 40 525 40 q 517 43 517 40 l 511 40 l 509 40 l 509 50 m 560 50 l 571 50 l 571 43 l 560 43 l 560 50 m 536 47 l 538 47 l 538 40 l 536 40 l 536 47 m 319 30 q 324 24 324 29 l 340 26 l 340 33 q 327 40 334 33 q 319 30 323 40 m 240 33 l 237 26 l 237 24 l 256 20 l 259 26 q 275 20 270 20 l 278 26 q 262 33 262 30 l 256 30 l 245 30 l 240 33 m 286 33 l 292 24 q 300 26 297 26 l 300 30 l 286 33 m 197 30 l 194 24 l 194 20 l 205 20 l 224 26 l 224 30 l 216 30 q 205 26 210 30 q 197 30 199 30 m 64 24 q 69 17 64 17 l 72 17 l 72 24 l 64 24 m 395 26 l 400 26 q 395 20 400 20 l 395 26 m 414 26 l 419 26 q 403 17 419 20 l 400 24 l 414 26 m 422 26 l 430 26 l 430 24 l 422 24 l 422 26 m 433 26 l 446 26 l 446 20 l 433 20 l 433 26 m 500 26 l 503 26 l 503 20 l 500 20 l 500 26 z "},"F":{"ha":937,"x_min":20,"x_max":856,"o":"m 522 122 l 528 114 q 514 98 522 98 l 514 95 l 522 95 q 541 103 528 103 l 533 117 l 538 119 q 544 114 539 114 q 549 119 545 119 q 560 98 557 98 l 566 98 q 579 114 566 114 l 579 109 q 568 103 573 109 q 571 95 571 98 q 576 103 576 95 l 582 103 q 587 95 587 103 q 604 106 604 95 l 606 106 l 606 100 l 612 103 q 628 87 626 96 l 623 84 q 620 92 620 90 l 617 92 q 612 81 617 81 l 606 84 l 604 84 l 604 81 q 620 62 615 81 l 625 62 q 631 71 625 71 l 631 65 l 644 68 l 652 62 l 669 62 l 669 68 l 674 68 l 674 60 l 693 60 q 696 57 696 60 q 699 60 699 57 l 712 57 l 720 57 l 720 52 l 718 52 l 699 54 l 693 52 q 682 57 682 54 q 658 49 664 54 q 652 54 658 54 q 644 52 647 52 q 639 57 644 57 q 609 52 623 52 l 612 46 l 609 46 l 593 60 l 593 79 q 601 84 593 84 l 601 87 q 585 90 585 87 q 574 87 580 87 l 574 81 q 587 65 583 65 l 585 60 q 587 49 587 55 q 576 43 576 47 l 571 46 q 566 38 566 46 q 533 43 552 38 q 530 41 533 41 l 528 46 q 538 54 538 50 q 530 62 530 54 q 519 41 524 62 l 511 46 l 503 41 q 498 49 498 41 l 487 49 q 479 38 487 38 q 460 43 477 38 q 452 35 452 43 l 446 35 l 444 49 l 441 49 l 441 38 l 422 41 l 414 35 q 411 43 411 41 q 395 35 401 35 l 397 30 l 392 27 q 384 30 387 30 l 378 27 l 370 27 q 365 22 370 22 l 359 24 q 335 19 339 19 q 324 27 324 23 l 319 24 l 313 27 q 308 22 313 22 l 297 22 l 292 24 q 283 16 292 22 l 270 19 q 254 16 268 19 l 254 19 l 237 14 q 227 16 233 16 q 221 11 221 16 l 216 14 l 213 14 q 183 5 184 5 q 178 11 183 11 l 170 5 q 159 11 159 7 q 132 3 132 8 l 118 5 l 115 5 l 99 3 q 88 5 94 5 q 75 0 79 0 q 26 52 39 14 l 26 57 q 34 62 34 57 l 34 73 l 31 73 l 23 68 q 20 71 23 71 q 28 98 24 87 l 34 95 l 37 95 l 42 98 q 45 95 42 95 l 45 100 q 37 117 37 100 l 42 119 q 58 114 53 114 q 69 117 63 117 q 75 111 70 111 l 80 114 q 83 111 83 114 l 96 114 l 107 114 q 113 109 113 113 l 132 111 l 140 111 q 142 109 142 111 q 167 117 167 112 l 180 114 l 197 114 q 251 117 214 114 l 251 114 q 286 119 257 116 q 302 114 295 114 l 300 100 l 311 100 l 311 106 l 308 111 q 316 119 316 111 l 321 119 l 349 109 q 351 117 349 111 q 370 106 370 117 q 376 114 376 106 l 378 114 q 384 103 379 103 q 400 109 389 103 q 438 100 409 104 q 457 114 457 107 l 465 114 l 465 111 q 463 109 465 109 q 465 100 465 103 l 471 103 l 476 100 q 484 114 478 114 l 498 114 q 511 106 498 106 l 517 106 l 514 111 l 514 114 q 522 122 514 118 m 601 119 l 609 119 q 604 106 604 113 q 595 114 600 106 q 601 119 596 119 m 617 114 q 623 109 617 109 l 623 106 l 612 106 l 612 109 q 617 114 612 114 m 655 111 l 661 111 l 661 109 l 655 109 l 655 111 m 663 111 q 669 106 669 111 l 663 106 l 663 111 m 321 106 l 321 103 l 327 103 l 327 106 l 321 106 m 544 106 l 544 98 l 549 98 l 549 106 l 544 106 m 696 106 l 696 103 q 690 98 696 98 l 690 100 q 696 106 691 106 m 726 106 q 731 100 731 105 l 731 98 l 720 98 l 720 100 q 726 106 721 106 m 745 103 l 747 103 q 739 95 747 95 q 750 84 739 92 q 747 73 747 79 l 728 76 l 728 73 l 731 68 l 728 68 q 718 79 726 68 l 712 76 l 709 76 q 699 87 705 76 q 685 84 695 84 l 685 87 l 680 87 l 680 81 l 669 81 l 669 90 q 680 98 680 90 q 709 92 706 92 l 715 95 q 726 92 720 92 l 734 92 l 731 98 q 745 103 738 98 m 769 103 q 856 87 851 92 l 856 84 l 850 84 q 764 92 836 84 l 769 103 m 636 98 l 644 98 l 644 92 q 636 84 636 92 l 631 84 l 631 92 q 636 98 631 98 m 381 92 l 381 87 l 384 87 l 384 92 l 381 92 m 395 90 l 395 76 l 392 71 l 397 71 q 411 84 397 84 l 411 92 l 408 92 l 395 90 m 457 84 l 473 79 q 476 90 473 85 l 471 92 q 457 84 457 89 m 503 90 l 503 84 l 509 84 l 509 90 l 503 90 m 511 90 q 517 84 512 84 l 517 90 l 511 90 m 530 90 l 530 84 l 533 84 l 533 90 l 530 90 m 536 87 l 536 79 l 538 79 l 544 81 l 544 79 q 541 71 541 73 l 563 71 q 568 87 563 78 l 555 90 l 549 90 l 536 87 m 734 90 l 734 84 l 739 84 l 739 90 l 734 90 m 387 87 l 387 81 l 389 81 l 389 87 l 387 87 m 769 87 q 793 79 793 84 l 799 81 q 804 76 804 81 q 799 71 804 71 l 788 71 q 772 79 788 77 q 766 73 772 73 q 753 79 760 79 l 753 84 l 766 81 l 769 87 m 514 76 q 506 71 514 71 l 506 65 l 522 65 l 522 73 q 514 76 519 73 m 815 79 l 826 79 q 834 71 830 79 q 826 68 829 68 q 810 76 810 71 l 815 79 m 349 73 l 349 68 q 354 73 354 68 l 349 73 m 598 73 l 598 68 l 604 68 q 598 73 604 73 m 408 71 l 408 68 l 414 68 l 414 71 l 408 71 m 530 71 l 530 68 l 536 68 l 536 71 l 530 71 m 699 73 l 707 73 l 707 68 l 699 68 l 699 73 m 712 71 l 715 71 q 720 65 720 70 l 720 62 l 712 62 l 712 71 m 425 65 l 425 60 l 427 60 l 427 65 l 425 65 m 492 65 q 500 57 492 61 l 500 60 q 495 65 500 65 l 492 65 m 444 62 q 449 57 444 57 l 449 62 l 444 62 m 557 62 l 560 49 l 563 49 q 571 57 567 49 l 571 62 l 557 62 m 576 62 l 576 54 q 582 60 582 54 l 582 62 l 576 62 z "},"G":{"ha":1059,"x_min":20,"x_max":978,"o":"m 958 67 l 963 66 l 962 58 l 958 59 l 958 67 m 975 66 l 978 66 l 977 60 l 975 60 l 975 66 m 894 66 l 903 60 q 909 65 905 65 l 933 63 l 933 60 l 930 56 l 926 58 l 923 58 l 923 53 l 920 53 q 918 56 918 54 l 913 54 l 908 57 q 890 47 908 50 q 886 53 890 52 l 873 43 l 870 43 q 868 46 868 43 l 850 36 q 841 45 841 41 l 844 50 l 839 51 q 833 40 838 40 q 831 43 833 43 l 831 37 l 819 38 l 819 46 l 814 47 l 814 41 l 808 41 l 809 47 l 804 47 l 804 37 l 798 37 q 787 60 787 50 l 795 64 l 810 63 l 809 52 q 832 64 818 66 q 835 67 833 67 q 844 64 839 64 q 854 66 846 64 l 854 63 l 859 66 l 864 62 l 877 64 l 876 62 q 894 66 889 66 m 943 62 l 951 62 l 950 60 q 945 54 950 54 l 943 54 q 938 60 938 55 l 943 62 m 854 60 l 854 55 l 861 54 l 862 60 l 854 60 m 761 66 l 766 64 q 773 66 770 66 q 781 62 778 63 q 783 65 781 65 q 789 45 785 54 q 776 33 787 39 q 770 44 773 44 q 734 31 745 30 q 732 47 734 33 l 730 47 q 716 26 730 37 l 714 26 q 710 40 715 40 q 707 32 709 32 l 700 33 q 691 17 699 16 q 690 36 689 20 q 684 23 685 37 l 672 26 q 667 21 671 21 l 658 30 l 655 31 q 644 15 654 18 l 642 20 l 629 18 l 627 18 q 635 23 627 24 q 626 35 635 28 q 620 24 621 28 l 620 16 l 612 9 l 595 12 q 574 5 594 7 l 570 9 q 520 4 528 3 l 520 7 l 515 4 l 511 5 q 500 8 505 5 q 466 5 498 5 l 461 8 q 454 5 456 5 l 454 8 q 422 5 448 6 q 417 8 417 5 l 392 7 l 348 10 q 346 13 346 10 q 338 11 341 10 l 323 14 q 316 12 321 14 q 282 17 296 16 l 262 18 q 260 21 260 18 q 258 19 258 22 l 241 22 l 221 24 q 22 78 20 47 q 25 81 25 78 q 86 71 71 75 l 91 73 q 94 71 94 73 l 106 73 l 111 72 q 113 69 113 72 l 118 72 l 130 68 q 138 71 135 71 q 140 67 140 70 q 177 71 172 68 q 180 67 180 70 q 229 73 224 70 q 239 69 233 69 l 263 70 l 275 66 q 283 68 280 69 l 283 66 l 288 68 l 310 67 q 315 58 315 66 q 337 68 326 68 l 337 65 l 342 67 l 367 66 l 379 68 l 383 59 l 396 66 l 420 65 q 458 65 433 64 q 460 62 458 62 q 465 67 461 68 l 468 67 q 470 64 470 67 q 473 67 473 64 l 485 63 q 492 66 490 66 q 497 60 493 60 l 499 60 q 505 67 500 68 q 509 59 510 67 l 514 59 q 534 68 515 69 l 537 68 l 544 62 q 549 67 545 67 l 574 66 l 581 60 l 581 65 l 593 62 q 598 66 594 67 l 608 66 q 610 63 610 66 q 640 66 615 66 l 642 61 l 648 63 l 650 63 l 654 60 q 660 65 656 66 l 667 64 l 674 59 q 684 66 675 63 q 692 58 684 62 q 697 66 692 66 l 704 65 q 741 65 717 64 l 741 62 q 761 66 757 67 m 792 56 l 792 51 l 794 51 l 795 56 l 792 56 m 724 56 l 723 50 l 728 50 l 728 55 l 724 56 m 738 54 l 738 49 l 740 49 l 741 54 l 738 54 m 595 59 l 595 48 l 600 47 q 602 56 600 50 l 598 58 l 595 59 m 701 52 q 705 46 701 46 l 706 52 l 701 52 m 639 47 l 639 42 l 641 42 l 642 47 l 639 47 m 580 49 l 579 41 l 585 41 l 585 49 l 580 49 m 759 37 l 761 31 l 756 29 l 753 29 l 753 32 q 759 37 755 37 z "},"H":{"ha":958,"x_min":20,"x_max":876,"o":"m 864 92 l 869 92 l 869 87 l 864 87 l 864 92 m 765 57 q 775 52 775 55 l 780 54 q 792 52 788 54 q 819 57 812 57 q 823 52 819 52 l 821 46 q 825 41 821 41 q 830 46 826 46 l 833 46 q 838 27 833 38 q 836 24 836 27 q 811 35 811 28 q 804 33 806 33 l 804 14 l 799 14 l 799 27 l 794 27 q 787 19 791 27 q 770 24 783 19 q 765 16 770 16 l 763 16 q 749 27 749 16 l 727 11 l 715 19 q 700 14 707 14 q 698 16 700 16 l 698 14 l 700 8 l 695 5 l 690 5 l 686 8 q 681 3 686 3 q 662 14 680 14 q 654 5 662 9 q 650 22 654 16 q 635 8 641 19 l 628 8 q 618 19 628 19 l 604 16 q 599 22 604 22 q 568 3 570 3 l 563 5 q 553 3 559 3 q 549 8 553 8 q 543 3 549 3 l 541 3 q 524 11 541 11 l 519 11 q 515 5 515 10 q 507 8 510 8 q 486 3 504 8 q 484 5 486 5 l 481 0 q 452 14 463 0 q 437 8 444 8 l 437 11 q 420 3 425 8 q 406 16 410 7 q 387 5 404 16 l 375 14 q 370 8 375 8 l 363 8 q 358 14 358 8 l 353 11 l 348 11 l 341 16 l 338 16 l 329 8 l 319 11 l 315 8 q 304 11 310 11 l 300 8 q 283 14 283 11 l 271 11 l 250 11 l 250 16 l 247 16 q 239 8 243 16 q 189 22 189 16 l 184 19 q 177 22 182 19 q 158 19 175 22 q 132 24 132 21 l 121 19 q 107 24 112 24 l 102 22 l 98 24 l 93 22 q 76 30 76 26 l 71 27 l 66 27 q 64 30 64 27 l 59 27 l 56 27 q 20 41 20 35 q 61 54 20 47 l 61 52 l 66 54 q 95 46 90 46 q 102 49 100 49 q 110 41 102 45 q 115 46 111 46 l 175 41 q 220 43 201 43 l 220 41 l 225 43 q 271 41 258 41 l 271 38 q 312 43 273 41 q 321 41 317 43 l 382 46 l 387 43 q 406 46 400 46 q 408 43 408 46 l 420 46 l 486 46 l 493 41 l 498 43 l 505 43 q 512 49 505 46 l 536 46 l 541 49 q 543 46 543 49 q 553 49 545 46 l 575 46 q 608 54 608 50 l 625 52 l 654 52 q 688 54 667 52 q 700 52 692 52 q 707 54 705 54 q 712 43 707 43 q 765 57 729 57 m 869 49 q 876 46 873 46 l 876 41 l 871 43 q 854 33 867 33 l 852 38 l 852 46 q 869 49 859 46 z "},"I":{"ha":859,"x_min":20,"x_max":777,"o":"m 427 68 q 438 65 432 65 l 446 65 l 465 68 l 465 65 q 468 68 468 65 l 481 65 l 484 65 l 498 68 l 498 65 q 500 68 500 65 q 568 65 545 65 l 585 65 q 595 68 591 65 q 606 65 600 65 l 639 65 q 650 68 645 65 q 661 65 654 65 l 671 65 q 707 62 689 65 l 720 65 q 766 62 741 62 l 769 62 q 777 46 769 54 l 777 41 q 723 33 769 41 q 726 24 726 27 l 739 24 l 739 33 q 745 27 745 32 l 745 19 l 739 19 l 739 14 l 745 14 l 745 8 l 736 8 q 726 5 730 8 q 715 8 721 8 q 709 3 715 3 l 688 3 l 680 8 l 674 8 l 674 3 l 671 3 q 669 5 669 3 l 650 0 q 620 3 631 3 l 574 3 q 571 5 571 3 l 566 3 l 560 3 l 560 8 q 533 3 540 3 q 528 8 533 8 q 517 3 521 3 l 511 5 q 503 3 506 3 q 476 8 479 8 q 471 3 476 3 l 463 8 q 457 3 463 3 l 444 3 q 422 8 432 3 l 403 5 q 378 11 378 7 q 370 8 373 8 l 351 11 l 340 5 q 316 8 326 8 l 308 3 q 302 11 305 11 l 292 5 q 278 16 278 13 q 262 27 262 23 l 267 30 l 286 30 q 289 38 286 33 q 270 41 270 38 l 256 38 l 237 38 q 229 41 229 38 l 216 38 l 172 38 q 134 35 157 38 q 126 38 129 38 l 123 33 l 126 27 q 129 30 129 27 l 142 27 l 167 27 l 167 22 l 151 22 l 137 19 l 137 22 q 115 16 120 16 l 115 14 q 126 11 126 14 l 132 14 l 134 14 l 134 8 q 113 5 127 8 l 113 8 l 107 5 l 102 5 q 96 11 96 5 l 96 14 l 113 14 l 113 16 l 94 19 l 85 19 q 77 16 77 19 l 64 19 l 39 19 q 34 24 34 19 l 42 30 q 47 24 43 24 l 50 24 q 53 27 53 24 l 58 24 q 69 30 69 26 l 75 27 l 91 27 l 104 30 l 104 35 l 53 35 q 42 33 47 35 q 20 43 20 37 l 20 60 q 66 62 52 62 l 159 62 q 240 65 186 62 l 240 62 l 245 65 l 416 65 q 427 68 422 65 m 701 57 l 701 54 l 707 54 l 707 57 l 701 57 m 644 54 l 644 52 l 652 52 l 652 54 l 644 54 m 294 38 q 297 30 297 33 l 302 30 l 302 38 l 294 38 m 313 35 l 313 33 l 332 30 l 332 35 q 324 38 330 35 q 313 35 319 35 m 354 35 l 354 30 l 357 30 l 357 35 l 354 35 m 699 35 l 699 33 l 704 33 l 704 35 l 699 35 m 612 24 l 617 24 l 617 30 q 612 24 612 29 m 680 30 l 680 24 l 685 24 q 680 30 685 30 m 243 30 l 251 30 l 251 24 l 240 22 l 237 27 l 243 30 m 178 27 l 208 27 l 208 22 l 178 22 l 178 27 m 229 27 l 235 27 l 235 22 l 229 22 l 229 27 m 281 22 q 286 16 281 16 l 289 16 q 283 22 289 22 l 281 22 m 308 19 l 308 14 l 311 14 l 311 19 l 308 19 m 313 19 l 313 16 l 324 14 q 316 19 324 19 l 313 19 m 359 19 l 359 14 l 365 14 q 359 19 365 19 m 370 19 q 378 14 370 14 l 384 14 l 384 16 l 370 19 m 416 14 l 430 14 q 425 19 430 19 l 422 19 q 416 14 416 18 m 300 16 l 300 14 l 305 14 l 305 16 l 300 16 m 661 16 q 666 11 661 11 l 671 11 q 666 16 671 16 l 661 16 m 674 16 q 682 11 674 11 q 690 14 688 14 l 690 16 l 674 16 m 83 14 l 85 8 l 69 3 l 66 8 q 83 14 77 14 m 148 14 l 161 14 l 161 8 l 148 8 l 148 14 z "},"J":{"ha":869,"x_min":20,"x_max":788,"o":"m 538 138 l 544 138 q 549 130 544 134 q 547 122 547 125 l 541 122 q 536 130 536 122 q 538 138 538 136 m 506 133 l 511 133 q 517 127 517 132 l 514 122 q 538 111 530 111 l 544 111 l 544 119 l 576 117 l 587 117 l 587 111 l 593 111 l 593 117 l 598 117 q 612 106 610 106 l 614 106 q 625 109 621 106 q 636 106 630 106 q 642 109 642 106 l 655 106 l 661 106 q 671 109 667 106 q 704 100 691 105 q 707 103 704 103 q 709 90 709 98 l 715 90 l 723 100 q 769 95 726 100 l 769 87 q 766 76 769 81 q 769 68 769 71 l 766 68 q 761 81 761 68 l 755 81 q 747 65 755 74 q 755 62 753 62 q 750 57 755 57 q 745 65 745 57 l 742 65 q 726 54 742 56 q 718 62 726 58 l 715 62 l 715 54 l 709 54 l 709 62 l 707 62 q 701 57 707 57 l 704 52 l 699 49 l 696 49 l 688 54 q 685 52 685 54 l 671 54 l 669 54 q 658 43 658 50 l 650 43 l 647 54 l 642 54 l 642 41 l 636 41 l 639 46 q 636 54 636 52 l 631 54 l 631 49 l 633 43 q 625 41 631 43 q 614 54 614 41 l 612 54 q 598 35 612 47 q 601 33 601 35 l 568 27 l 563 30 l 473 19 l 471 24 q 433 16 463 19 l 427 19 l 392 11 q 387 16 392 16 l 378 11 l 368 11 q 362 16 362 11 l 330 8 q 316 11 321 8 q 235 3 269 3 l 229 5 q 213 0 220 0 l 208 0 q 202 5 202 0 l 170 0 l 170 3 q 167 0 167 3 q 118 8 127 3 q 110 5 113 5 q 94 11 105 5 q 69 8 79 8 q 26 57 35 28 q 23 60 23 57 q 37 84 33 84 q 20 100 37 88 q 50 109 20 109 l 61 109 l 77 106 l 83 109 q 85 106 85 109 l 99 109 l 102 109 q 104 106 104 109 q 137 111 112 108 l 137 109 l 142 111 q 153 109 147 109 q 156 111 153 111 q 159 103 159 106 l 164 103 q 180 114 164 114 l 183 109 q 178 103 178 108 l 186 103 q 216 117 186 117 l 227 117 l 227 111 l 202 111 l 202 103 l 208 103 l 208 109 l 210 109 l 218 103 q 224 109 224 103 l 240 103 l 240 114 l 227 117 q 232 122 227 122 l 235 122 l 243 117 l 259 119 l 262 119 l 262 114 l 251 114 l 251 111 l 264 109 q 289 122 264 122 q 294 117 294 121 l 292 111 q 297 109 297 111 l 302 111 l 311 106 l 313 106 l 313 111 l 327 111 l 327 106 l 332 106 q 330 109 332 109 l 332 114 l 327 122 l 332 125 q 335 122 332 122 q 340 127 336 127 l 340 122 l 335 114 q 343 111 338 114 q 351 127 345 127 q 362 111 355 111 q 368 117 363 117 q 370 114 370 117 l 376 117 l 378 117 l 384 114 l 384 117 l 381 122 q 406 130 391 130 l 411 130 l 411 127 q 406 122 411 122 q 397 125 400 125 q 392 119 397 119 q 389 122 392 122 l 389 117 l 403 117 q 422 109 412 117 l 425 114 l 430 111 q 438 114 435 114 q 446 111 444 111 q 452 117 447 117 l 457 117 l 457 114 l 454 109 l 463 109 l 463 111 l 460 117 l 463 117 l 471 111 l 479 117 l 479 114 l 492 119 l 490 125 q 495 130 490 130 l 498 130 l 498 127 q 495 119 495 122 l 511 119 l 511 122 l 506 130 l 506 133 m 612 130 l 620 130 q 625 125 625 130 l 625 122 l 612 125 l 612 130 m 316 125 l 319 125 l 319 122 q 313 117 319 117 l 311 117 l 311 119 q 316 125 311 125 m 666 125 l 671 125 l 671 119 q 666 125 666 119 m 270 114 l 270 111 l 273 106 q 264 103 267 103 l 264 100 l 273 100 q 289 117 274 100 q 286 119 286 117 q 270 114 275 114 m 514 114 q 519 109 515 109 l 519 114 l 514 114 m 612 117 l 617 117 l 617 111 l 612 111 l 612 117 m 642 117 l 644 117 l 644 111 l 642 111 l 642 117 m 142 106 l 142 98 l 148 98 q 153 103 153 98 l 142 106 m 297 106 l 297 103 l 302 103 l 302 106 l 297 106 m 281 103 l 281 100 l 289 100 l 289 103 l 281 103 m 91 98 l 91 95 l 96 95 l 96 98 l 91 98 m 56 95 l 56 90 l 83 90 q 77 95 83 95 l 56 95 m 47 92 l 47 90 l 53 90 l 53 92 l 47 92 m 736 92 l 736 90 q 739 81 739 84 l 745 81 l 745 92 l 736 92 m 753 90 l 753 87 l 764 87 l 764 90 l 753 90 m 783 84 l 788 84 l 788 79 l 783 79 l 783 84 m 557 57 l 557 52 l 560 52 l 560 57 l 557 57 m 549 49 l 549 43 l 552 43 l 552 49 l 549 49 m 563 43 q 555 38 563 38 l 555 35 l 566 35 l 579 38 q 582 35 579 35 l 587 43 l 585 43 l 566 41 q 563 43 566 43 m 541 41 q 547 35 542 35 l 549 35 q 544 41 549 41 l 541 41 z "},"K":{"ha":848,"x_min":20,"x_max":766,"o":"m 423 186 l 426 186 q 438 117 424 146 q 446 119 444 119 l 449 114 l 454 116 q 471 113 469 113 q 479 117 479 115 l 498 113 l 509 113 l 520 120 l 523 120 l 522 115 l 541 114 q 544 111 544 113 q 560 115 555 115 l 560 113 l 571 117 q 579 114 576 114 q 589 138 588 122 l 594 138 l 593 116 q 701 139 693 140 q 716 136 714 136 q 766 146 717 145 l 766 143 q 722 97 765 129 l 717 100 q 714 95 717 95 q 706 98 709 98 q 694 85 694 87 l 697 85 q 658 68 696 75 q 656 71 659 71 q 641 56 655 63 l 638 56 q 633 62 633 56 q 608 50 618 57 l 606 50 l 600 53 q 591 45 600 49 l 578 49 q 545 40 577 38 l 545 43 q 504 32 504 35 l 501 32 q 498 35 498 32 l 493 33 q 485 35 488 35 l 481 31 l 477 33 l 471 34 l 465 31 l 473 17 l 467 15 q 449 30 467 19 l 444 27 q 441 30 441 27 q 416 24 416 29 q 408 26 413 24 q 372 20 379 26 l 370 26 q 367 24 368 26 l 343 31 q 319 26 330 26 q 313 33 319 32 l 305 33 l 304 17 l 299 17 q 257 44 300 35 l 252 41 l 246 42 q 195 61 239 51 q 193 64 196 64 l 188 64 l 174 62 q 108 88 174 73 q 20 129 26 115 l 21 137 q 52 157 26 148 l 63 157 q 84 147 83 155 l 81 134 l 83 134 q 149 143 149 136 l 152 143 q 159 140 160 142 q 239 143 174 142 l 241 138 q 271 141 267 141 q 284 135 279 135 q 290 140 286 140 q 309 130 299 139 q 311 133 311 130 q 349 125 342 125 q 360 127 354 127 l 362 122 q 385 129 376 129 q 387 125 385 126 q 390 128 387 128 q 406 119 390 123 q 416 121 410 121 q 425 118 422 118 l 425 132 q 420 178 420 172 q 423 186 423 183 z "},"L":{"ha":892,"x_min":20,"x_max":810,"o":"m 587 185 q 592 180 588 180 l 595 180 q 601 184 600 180 l 614 180 l 638 178 l 641 174 q 649 176 646 176 q 656 173 654 173 q 666 178 657 176 l 674 178 q 684 175 680 177 q 692 176 690 176 q 708 169 703 169 l 707 164 l 702 165 l 701 161 l 704 161 q 713 162 707 160 q 745 142 747 159 l 748 142 q 772 142 763 143 l 772 140 l 778 142 l 783 142 l 783 137 q 749 134 776 138 l 749 132 l 755 132 q 785 131 773 132 l 787 127 q 784 125 784 127 q 810 118 810 123 q 791 116 799 115 l 790 114 l 792 109 q 733 98 789 110 l 733 96 l 752 96 l 774 94 l 773 90 q 734 83 761 91 q 726 85 729 85 q 703 79 726 82 q 705 73 706 75 q 694 71 701 71 l 694 67 q 704 62 705 66 q 653 47 659 58 q 619 40 635 47 l 606 43 q 564 38 605 39 l 511 32 l 507 35 q 279 33 415 32 q 277 31 279 31 q 269 33 274 31 q 176 33 196 35 l 171 35 l 157 35 q 155 37 155 35 q 89 36 143 35 q 79 39 85 38 l 78 35 l 70 35 q 24 81 20 52 q 28 87 28 85 l 27 102 l 30 101 q 26 116 26 113 q 36 122 31 116 q 35 138 35 134 l 38 138 q 36 144 36 142 l 40 153 q 37 155 40 155 q 47 184 46 176 q 42 189 42 184 q 51 192 43 193 l 59 191 q 90 197 60 194 q 96 201 92 201 l 98 200 q 103 196 104 199 l 158 195 l 163 193 q 175 198 174 195 q 172 201 172 198 l 178 202 l 178 198 l 182 197 q 241 201 224 194 l 249 200 q 254 204 250 204 l 257 204 l 272 192 q 313 193 298 194 l 321 193 q 326 188 326 191 q 351 192 349 192 q 370 189 359 191 l 416 189 l 416 186 q 425 188 421 188 q 507 189 505 184 l 519 186 q 530 187 526 186 q 533 185 533 187 q 587 185 572 186 m 683 71 l 683 66 l 686 66 l 686 70 l 683 71 m 684 56 l 686 56 l 686 51 l 684 52 l 684 56 z "},"M":{"ha":753,"x_min":20,"x_max":671,"o":"m 338 168 l 340 163 l 346 165 q 389 133 355 164 l 392 133 l 400 138 q 438 127 400 132 q 444 122 439 122 l 473 122 q 476 119 476 122 l 481 122 q 560 125 538 125 l 566 127 q 601 119 597 124 l 609 119 l 614 122 q 652 103 614 115 q 671 71 671 90 q 617 38 651 38 l 614 38 l 598 41 l 593 38 q 566 43 570 43 q 511 41 536 41 l 509 35 q 500 38 506 35 l 425 33 q 376 41 408 38 l 362 35 q 346 41 346 37 q 324 35 336 35 l 308 35 q 297 30 301 30 q 294 33 294 30 q 199 14 234 27 l 191 19 q 189 16 189 19 q 151 24 161 20 q 99 8 151 21 l 99 0 l 94 0 l 85 5 l 72 3 q 20 57 20 22 q 50 109 20 86 q 85 127 58 109 q 121 117 109 117 q 129 119 126 119 q 134 114 130 114 q 278 149 196 123 l 283 146 l 338 168 z "},"N":{"ha":776,"x_min":20,"x_max":694,"o":"m 113 270 l 116 270 l 115 264 l 113 264 l 113 270 m 286 222 l 294 221 q 325 209 318 210 q 331 214 326 214 l 338 208 l 357 205 q 408 195 403 195 l 411 195 l 419 199 l 422 199 q 427 190 427 198 l 437 189 l 446 193 q 495 169 454 182 q 522 169 519 170 l 538 165 q 574 172 539 170 q 646 178 575 178 q 679 153 646 174 q 688 130 688 136 q 674 106 686 117 l 676 101 q 650 87 652 93 q 652 76 652 82 l 649 77 l 637 89 l 631 89 l 633 83 l 621 74 l 618 74 q 607 89 617 75 q 573 82 591 80 q 577 65 577 70 q 573 57 574 60 q 578 52 578 56 q 575 49 576 52 q 565 58 565 54 q 571 63 570 58 l 564 75 q 567 77 567 74 l 562 80 q 555 64 560 64 l 552 65 q 547 71 547 66 q 559 73 553 73 l 557 78 q 528 70 550 79 q 521 74 524 73 q 503 67 520 70 l 500 62 q 502 51 503 57 l 499 52 q 476 65 484 64 l 468 66 l 452 64 q 417 77 441 71 l 414 71 l 419 71 l 418 66 l 408 64 q 398 76 408 68 q 392 68 397 68 l 387 69 l 379 75 q 376 70 378 70 l 351 75 l 338 74 q 333 80 338 79 q 315 71 316 75 l 315 63 q 322 57 323 62 q 313 47 317 46 q 307 72 308 47 l 305 72 l 291 71 l 292 74 q 252 59 273 62 l 252 56 q 254 53 254 56 q 180 26 237 33 l 166 27 q 159 36 167 31 q 147 26 159 32 q 109 79 144 42 l 109 82 l 117 76 l 117 79 q 98 132 95 100 q 104 137 104 132 q 96 160 94 138 q 113 161 111 161 l 113 169 l 108 170 l 109 178 l 119 176 l 121 184 l 115 185 l 115 191 l 129 189 q 125 206 125 199 l 126 212 l 132 211 l 131 208 l 128 203 q 141 196 134 202 q 286 222 174 214 m 94 212 l 99 212 l 98 209 l 93 210 l 94 212 m 71 201 q 77 192 74 201 l 75 187 q 79 181 79 185 q 70 174 79 177 q 68 177 71 176 l 71 182 l 69 187 l 72 193 q 71 201 70 198 m 21 201 l 29 200 l 28 192 l 26 192 q 21 198 20 193 l 21 201 m 30 178 l 35 178 l 35 172 l 29 173 l 30 178 m 78 168 l 82 159 l 82 156 l 71 155 q 68 157 71 157 q 78 168 74 168 m 58 161 l 66 161 l 65 155 q 60 151 65 150 l 57 151 l 58 161 m 36 161 l 41 160 l 41 155 l 35 155 l 36 161 m 517 46 l 520 46 q 532 28 524 45 l 532 26 l 526 26 q 517 46 517 45 m 50 135 l 55 134 l 55 132 l 50 132 l 50 135 m 689 66 q 694 60 694 65 l 694 58 l 688 58 q 683 64 683 59 l 689 66 m 656 64 l 658 59 l 652 57 l 650 62 l 656 64 m 81 123 l 84 123 q 91 114 87 123 q 85 109 90 109 q 81 123 81 119 m 64 115 l 66 114 l 66 109 l 63 109 l 64 115 m 625 54 l 625 49 l 619 50 q 625 54 621 55 m 463 25 l 469 24 l 468 22 l 463 22 l 463 25 m 427 64 l 432 64 l 431 59 l 426 59 l 427 64 m 534 53 l 540 52 l 540 47 q 534 53 534 47 m 58 85 l 60 85 l 60 79 l 58 79 l 58 85 m 106 75 l 111 74 l 111 68 l 105 69 l 106 75 z "},"O":{"ha":1253,"x_min":20,"x_max":1171,"o":"m 1046 134 l 1049 134 l 1049 130 l 1046 130 l 1046 134 m 965 136 l 970 136 l 970 132 l 965 132 l 965 136 m 1004 132 l 1006 132 q 1014 113 1010 132 l 1012 113 q 1015 96 1015 102 q 1008 94 1010 96 q 1002 113 1004 113 l 1000 113 l 988 112 q 986 115 988 114 q 983 111 986 110 l 981 111 l 981 113 q 1000 122 981 115 q 1004 132 1004 127 m 262 170 l 268 170 l 267 165 l 259 165 q 262 170 260 170 m 827 140 q 835 133 835 135 l 838 135 q 843 128 841 135 l 843 126 l 833 127 l 832 118 q 837 105 833 106 q 844 107 840 107 l 843 99 l 845 99 l 845 96 l 843 92 q 851 90 846 90 l 851 88 q 848 84 851 83 q 849 77 849 80 q 857 85 852 77 l 857 87 q 852 92 857 92 l 852 94 q 874 101 854 102 q 869 108 874 104 q 879 124 870 118 l 879 126 l 886 126 l 886 124 q 876 112 882 111 l 876 110 q 880 105 877 105 l 883 107 q 890 104 886 105 l 890 102 q 888 100 890 100 q 889 94 889 96 l 891 94 l 897 98 l 905 96 q 911 106 907 106 l 919 105 q 925 92 921 105 q 930 94 928 94 q 932 92 930 92 l 934 96 l 934 98 l 931 104 l 931 109 q 935 113 932 113 l 937 113 l 935 109 l 935 104 l 936 104 q 941 106 939 106 l 941 100 l 936 100 l 936 98 q 944 90 944 98 l 945 89 q 949 98 949 89 l 955 97 l 958 95 q 964 101 958 96 q 962 107 962 105 l 966 107 q 971 87 971 92 l 973 87 q 983 96 981 87 l 996 97 q 1002 88 996 94 l 1006 90 l 1007 86 q 998 78 998 81 l 1002 78 q 1013 94 1012 82 l 1016 96 l 1018 92 q 1013 85 1015 92 l 1012 83 q 1017 81 1014 83 l 1026 87 l 1034 84 q 1042 96 1040 97 l 1044 96 l 1043 90 l 1040 90 l 1040 88 l 1045 88 q 1057 94 1053 94 q 1060 83 1061 88 l 1062 83 q 1065 87 1065 83 l 1063 94 l 1063 98 l 1064 98 q 1073 93 1069 93 l 1075 97 q 1061 111 1061 108 l 1062 115 l 1065 115 q 1076 97 1077 109 q 1087 102 1083 103 l 1088 98 l 1088 92 q 1082 86 1088 89 l 1081 90 q 1083 92 1083 90 l 1080 95 l 1067 85 q 1070 81 1067 81 q 1074 87 1071 87 q 1094 79 1076 83 l 1094 77 l 1093 77 q 1094 71 1094 73 q 1092 64 1092 66 q 1093 62 1093 64 l 1090 60 q 1087 69 1086 66 l 1083 67 l 1082 71 q 1084 73 1084 71 q 1074 80 1080 74 l 1074 78 l 1075 68 q 1071 64 1072 67 q 1074 57 1071 62 l 1074 53 q 1060 45 1074 49 q 1052 58 1060 49 l 1048 56 l 1043 56 l 1044 61 l 1055 60 l 1065 77 q 1063 79 1063 77 q 1053 73 1053 77 q 1055 71 1055 73 l 1051 71 q 1048 77 1051 77 q 1038 63 1047 62 q 1033 55 1038 55 l 1031 55 l 1031 60 l 1034 64 l 1031 64 q 1027 62 1028 62 q 1020 68 1027 65 l 1018 64 l 1019 52 l 1010 41 q 1006 54 1005 49 l 1004 54 l 996 47 l 995 47 l 985 50 q 979 47 981 47 q 976 52 979 52 q 972 47 976 47 l 969 48 l 964 52 q 960 44 964 44 l 957 44 q 950 72 954 45 l 950 79 l 940 79 q 928 88 932 87 l 928 86 q 935 75 935 76 l 935 71 l 931 71 l 930 62 l 938 68 l 939 68 l 937 64 q 939 58 939 60 q 935 54 935 58 q 948 45 949 51 l 941 45 q 939 50 938 45 q 928 46 931 46 l 923 55 l 923 57 l 925 61 q 918 72 924 61 l 913 72 l 913 70 l 917 63 l 917 61 l 913 55 q 914 49 914 51 q 909 47 911 47 l 911 43 l 907 41 l 903 41 q 892 50 895 50 q 888 46 892 45 l 887 46 l 887 52 l 889 56 q 888 58 887 56 q 870 51 873 51 l 871 47 l 871 45 q 866 39 871 42 l 864 39 l 866 43 q 861 50 866 46 l 858 50 q 854 37 857 37 q 841 57 854 56 l 840 49 l 844 42 l 844 38 l 840 38 q 825 47 825 45 q 833 58 830 58 l 834 57 q 833 64 833 62 l 829 64 q 821 56 829 56 q 819 50 820 50 q 825 39 819 39 l 825 35 q 821 31 824 31 q 819 37 819 35 l 818 37 l 810 29 q 802 42 809 39 q 799 38 802 38 l 798 43 l 794 41 l 789 41 q 779 52 783 52 l 777 52 l 781 58 l 772 58 q 762 51 764 59 l 758 53 l 755 53 q 746 43 754 53 l 745 43 l 739 47 l 738 47 l 737 43 l 732 44 l 732 48 q 736 52 733 52 q 732 65 734 64 l 728 65 q 722 53 728 56 l 720 55 q 714 53 715 53 q 707 60 714 56 l 705 56 q 715 45 705 52 l 718 38 l 716 34 l 707 41 q 705 33 705 37 l 701 33 l 701 45 l 700 45 l 688 44 l 688 46 l 690 50 q 682 67 690 57 q 692 71 686 71 l 693 73 q 682 86 686 73 q 675 95 675 87 l 673 95 l 668 92 q 663 102 667 102 l 660 102 l 660 100 q 661 94 661 96 q 659 92 660 94 q 669 81 666 92 q 667 79 667 81 l 664 81 l 659 81 l 659 75 q 667 68 661 75 l 670 68 q 676 78 672 79 q 681 72 675 72 l 680 68 l 675 60 l 674 49 q 680 45 674 45 l 679 40 l 677 41 l 674 43 q 659 37 673 38 l 659 41 q 669 47 669 41 l 669 50 q 654 54 667 50 l 648 46 l 652 39 l 652 37 l 640 40 l 638 41 q 622 33 623 39 l 618 33 l 614 37 l 610 35 q 597 41 604 40 q 591 39 593 39 q 587 45 591 41 l 585 45 q 580 39 583 45 q 571 42 577 41 q 566 36 571 39 q 563 44 562 41 l 557 45 l 557 36 l 555 37 q 553 45 552 37 l 547 45 q 538 35 538 41 l 535 35 q 530 50 534 50 l 527 50 q 522 40 526 40 l 523 36 q 517 30 523 33 l 517 32 q 519 34 517 34 q 513 49 519 37 q 519 55 515 49 l 519 57 l 513 58 q 510 54 510 57 l 510 52 q 511 50 510 50 q 509 43 509 45 l 508 43 q 500 56 500 50 l 498 56 l 498 54 q 500 33 499 37 l 497 31 q 494 50 494 41 l 491 50 q 486 40 490 40 l 484 40 l 486 51 l 486 53 q 466 35 467 54 q 451 33 457 33 q 431 54 452 52 l 431 60 l 430 60 q 424 41 429 41 l 422 41 l 414 44 q 410 40 413 40 l 405 44 l 404 45 q 393 24 403 33 l 389 24 q 396 43 395 31 q 387 54 393 43 l 383 54 l 378 50 l 376 50 q 375 56 376 52 l 375 63 q 370 65 372 65 q 363 59 370 59 l 375 27 q 373 21 373 23 q 374 19 374 21 l 371 17 q 359 32 365 32 q 364 49 364 47 l 361 51 l 355 51 l 357 41 q 349 22 354 22 l 335 23 q 329 32 334 23 q 310 26 324 32 l 303 28 l 300 27 q 291 31 294 31 q 272 26 284 26 l 272 31 l 269 31 l 265 28 q 252 44 262 37 l 252 42 q 255 27 252 38 l 252 25 q 238 30 250 25 q 236 28 238 28 l 235 33 l 237 37 l 233 39 l 231 39 q 228 33 231 33 q 213 40 218 35 q 199 33 207 40 l 200 28 l 200 26 q 186 20 191 26 l 184 20 q 176 29 184 28 q 170 40 177 40 l 170 38 q 153 18 170 32 q 138 31 140 31 l 136 27 l 138 23 l 131 17 l 130 17 l 130 25 l 126 26 q 114 14 119 14 l 112 18 q 117 22 113 22 l 118 35 l 113 35 q 101 29 113 28 l 100 18 l 101 8 l 98 6 q 89 28 90 28 l 83 28 q 67 16 83 23 l 58 25 l 58 29 l 60 44 q 42 49 57 46 q 35 39 38 39 q 28 54 35 42 q 37 62 28 62 l 36 66 l 36 68 q 41 70 38 68 q 58 58 44 70 l 66 58 q 81 68 73 68 l 81 74 l 69 77 q 62 69 68 74 l 56 69 q 40 83 50 82 q 41 77 41 79 l 40 77 l 33 79 l 33 83 l 33 98 l 41 106 l 43 102 q 39 98 39 101 q 43 93 39 93 q 50 111 44 101 l 50 114 l 49 114 l 37 113 l 31 121 q 41 131 33 132 l 43 127 q 37 123 42 123 l 37 119 l 40 119 l 49 120 l 47 124 q 53 130 47 127 l 63 130 q 65 136 63 132 q 59 146 64 146 l 59 151 q 82 160 75 161 l 85 154 q 81 150 81 153 l 86 145 l 88 145 q 107 153 96 153 q 109 146 109 149 l 111 146 l 116 150 l 115 142 l 119 142 q 146 149 122 146 q 153 146 149 146 q 155 148 153 148 q 160 142 155 145 l 176 151 l 179 149 l 186 149 l 193 155 q 208 137 208 146 q 215 145 210 137 q 206 147 212 147 l 207 151 q 230 142 231 146 q 237 144 231 142 l 258 140 l 261 149 l 268 146 l 277 148 q 281 146 280 146 q 294 153 285 154 q 299 144 296 144 l 309 146 q 313 142 313 145 q 305 134 310 142 l 305 130 l 313 129 l 318 125 q 326 139 319 127 l 326 141 q 321 146 321 141 l 330 153 q 338 142 330 148 q 347 146 344 146 l 350 144 q 364 154 355 145 q 372 145 365 148 q 380 146 376 146 l 383 146 l 385 138 l 389 138 q 397 152 393 152 q 400 146 400 152 l 405 145 l 410 149 q 412 142 412 145 l 415 142 q 419 153 418 142 l 425 153 q 439 135 432 146 q 444 141 441 135 q 454 138 453 138 q 469 148 468 138 l 472 146 l 470 142 l 470 140 q 503 142 499 142 q 505 140 505 142 l 508 142 q 515 140 511 140 q 516 141 515 142 l 518 137 q 530 138 525 139 l 528 143 q 534 144 530 142 l 541 140 q 551 148 542 140 q 574 136 566 147 l 574 132 q 569 128 569 132 q 581 121 574 127 q 585 130 581 130 l 587 127 l 588 134 q 580 138 579 134 l 583 140 l 585 140 l 590 136 q 592 142 592 139 l 593 142 q 597 137 597 140 q 590 134 592 133 l 589 131 q 596 123 596 131 q 608 128 602 122 q 625 125 623 125 q 631 127 629 127 l 631 129 l 627 136 l 627 138 l 633 137 l 634 125 q 632 123 632 125 l 640 120 q 651 128 644 128 q 654 123 652 123 q 659 136 655 136 l 660 136 q 667 125 667 131 l 671 125 l 675 127 q 672 140 672 134 q 681 145 678 145 q 694 132 693 137 l 694 130 q 684 134 691 130 l 684 126 q 688 119 689 126 l 690 119 q 705 138 696 121 q 716 131 716 135 l 720 133 l 732 130 l 732 132 l 735 130 q 742 134 740 134 l 745 132 q 751 133 749 133 l 752 129 q 744 127 749 127 l 743 123 l 745 123 l 749 125 l 749 121 q 743 115 743 121 l 743 109 q 737 106 739 106 l 737 102 l 744 102 q 753 116 746 102 l 758 116 q 757 122 757 120 q 761 126 760 122 q 760 135 759 130 l 763 137 q 766 128 766 136 l 769 128 q 773 134 770 134 l 775 134 l 772 123 l 776 121 q 783 136 783 121 l 790 135 q 795 127 795 135 q 784 117 795 123 l 781 117 l 777 119 l 775 111 l 779 109 q 785 111 782 111 q 798 103 785 106 q 803 109 798 106 l 804 105 l 804 101 l 802 97 l 805 94 l 807 94 q 813 113 810 113 q 802 130 813 130 l 802 132 l 809 136 l 819 134 l 827 140 m 867 138 l 869 133 l 869 131 q 862 130 863 130 l 863 125 l 860 123 l 859 127 l 860 127 l 859 132 l 859 134 q 867 138 863 134 m 1090 125 q 1093 121 1093 125 l 1089 119 q 1086 123 1086 119 l 1090 125 m 850 134 l 852 134 l 852 130 l 850 130 l 850 134 m 886 132 l 890 132 l 889 128 l 886 128 l 886 132 m 994 127 l 994 120 q 990 125 990 121 l 994 127 m 1054 123 l 1055 123 l 1055 119 l 1053 119 l 1054 123 m 647 143 l 652 142 l 652 136 q 648 132 651 132 l 644 132 l 644 134 l 648 140 q 647 143 647 141 m 961 126 l 963 126 l 963 122 q 959 118 962 117 l 956 118 l 956 120 q 961 126 956 123 m 898 127 l 901 125 l 899 121 l 899 119 l 902 113 l 899 111 l 897 111 q 895 123 897 119 q 898 127 895 127 m 785 130 l 785 127 q 788 123 785 123 l 791 129 l 785 130 m 1048 117 q 1053 111 1050 117 q 1042 103 1053 106 l 1034 112 l 1034 114 l 1043 111 l 1044 111 q 1048 117 1045 117 m 1103 113 l 1103 110 q 1101 102 1101 106 q 1103 96 1104 102 q 1116 105 1110 95 l 1118 101 l 1116 97 l 1118 97 l 1128 98 l 1129 94 l 1129 92 q 1117 84 1126 83 l 1115 84 q 1117 86 1115 86 q 1116 93 1116 90 l 1114 93 q 1106 83 1107 89 l 1103 85 l 1101 85 l 1098 83 l 1092 100 l 1103 113 m 371 149 l 374 149 l 374 147 l 371 147 l 371 149 m 709 129 q 702 119 702 120 l 702 113 l 703 113 q 709 115 707 115 q 712 110 709 110 l 713 110 q 716 122 713 111 l 726 122 l 726 126 q 709 129 724 126 m 730 128 l 730 119 l 733 119 l 733 121 q 732 128 732 125 l 730 128 m 815 123 l 815 121 q 819 100 820 111 l 825 100 q 819 123 822 123 l 815 123 m 496 138 l 494 130 l 497 127 l 497 138 l 496 138 m 540 136 l 540 132 l 542 132 l 542 136 l 540 136 m 768 124 l 767 122 l 771 121 l 771 123 l 768 124 m 1140 106 l 1142 106 q 1147 104 1145 104 l 1147 100 l 1145 100 q 1140 102 1142 102 l 1140 106 m 425 136 q 430 134 427 136 l 431 140 l 429 140 q 425 136 425 139 m 369 136 l 372 136 l 372 140 q 369 136 369 140 m 479 129 l 486 128 l 487 134 l 485 135 q 479 129 483 135 m 793 120 q 796 116 796 119 l 796 114 q 793 118 793 114 l 793 120 m 126 154 l 130 153 l 130 149 q 126 154 126 150 m 517 131 l 517 127 l 519 122 q 528 126 525 126 l 528 128 l 519 131 l 517 131 m 541 127 l 543 117 l 546 117 l 547 123 q 543 127 547 127 l 541 127 m 765 113 q 763 105 765 113 q 772 111 769 111 l 772 113 l 765 113 m 44 154 l 45 150 l 40 150 q 44 154 41 154 m 386 134 l 383 123 q 385 117 385 119 l 390 117 q 392 121 390 121 q 386 134 389 134 m 233 136 l 233 132 l 235 131 q 240 133 238 133 l 240 135 q 237 140 240 139 q 233 136 233 139 m 495 125 l 494 119 l 498 119 l 498 125 l 495 125 m 591 121 l 591 119 q 592 112 592 115 l 597 112 l 597 114 q 593 121 597 117 l 591 121 m 241 133 l 243 133 q 247 137 247 133 l 245 137 q 241 133 242 136 m 373 126 l 378 125 l 378 130 l 377 130 q 373 126 374 130 m 428 127 l 428 121 q 439 102 437 102 l 442 101 l 442 103 l 439 110 l 439 112 q 445 116 444 112 l 448 113 q 458 119 457 113 q 456 123 459 123 l 446 118 q 441 124 444 118 l 433 123 l 428 127 m 528 122 l 527 115 l 529 115 q 532 119 532 115 q 528 122 530 119 m 604 118 l 602 114 q 606 109 606 113 l 600 101 l 600 99 l 612 100 l 612 107 q 604 118 612 110 m 756 110 l 756 106 l 760 105 l 760 110 l 756 110 m 881 103 l 880 99 l 882 97 l 884 101 l 881 103 m 197 138 l 195 133 q 199 129 196 129 q 204 131 202 131 l 204 135 l 197 138 m 467 121 l 467 117 l 471 117 l 470 113 l 469 109 l 470 108 l 479 110 l 481 101 l 478 99 q 473 102 475 102 q 483 93 473 98 q 488 94 486 95 l 488 101 l 485 101 l 486 105 l 489 111 q 473 123 490 117 q 467 121 469 121 m 833 99 l 833 95 l 838 95 l 838 103 l 837 103 q 833 99 833 103 m 42 146 l 45 143 q 39 135 42 135 l 35 136 l 35 138 q 42 146 35 141 m 216 134 l 216 130 l 218 130 q 221 134 221 130 l 216 134 m 629 110 q 631 100 631 106 l 633 100 l 633 112 l 629 110 m 681 109 l 681 105 q 688 101 684 105 l 689 100 l 689 105 q 686 109 690 109 l 681 109 m 780 104 l 780 100 l 782 100 l 782 104 l 780 104 m 1052 90 l 1052 87 l 1055 87 l 1055 90 l 1052 90 m 120 137 l 120 135 q 125 133 122 135 l 127 133 l 127 135 q 122 137 125 135 l 120 137 m 330 126 l 330 124 l 332 119 q 340 121 335 121 l 340 123 l 330 126 m 582 113 q 583 106 583 109 q 589 113 585 106 l 582 113 m 711 106 l 711 104 q 715 99 712 100 l 722 99 l 722 101 q 718 105 722 105 l 711 106 m 296 121 l 299 121 l 300 125 q 296 121 296 125 m 347 123 l 347 111 q 350 106 347 106 l 353 106 q 353 123 352 117 l 347 123 m 523 103 l 523 101 l 526 101 q 534 107 533 104 q 532 113 532 111 l 530 113 q 523 103 528 113 m 561 108 l 553 110 l 552 108 q 562 91 560 91 q 564 97 562 93 q 562 103 562 101 q 569 105 566 105 l 570 111 l 566 111 l 561 108 m 643 99 l 646 97 l 650 96 q 656 102 650 103 q 653 106 657 106 l 650 107 q 643 99 647 107 m 163 127 q 165 124 166 126 q 173 126 169 126 q 170 130 173 130 l 166 131 q 163 127 163 130 m 183 130 l 183 125 q 186 121 183 121 l 190 121 q 189 130 188 125 l 183 130 m 359 120 l 359 118 l 363 118 l 363 120 l 359 120 m 675 104 l 675 99 q 679 103 679 99 l 675 104 m 698 98 l 699 98 q 703 102 703 98 l 701 102 q 698 98 698 102 m 785 94 q 788 89 785 90 q 795 97 791 89 l 788 98 q 785 94 785 97 m 979 83 l 979 81 q 984 77 979 77 l 984 75 q 981 71 984 71 l 979 71 l 972 77 l 970 77 l 967 75 q 970 60 970 67 l 975 64 q 982 62 979 64 q 987 64 985 64 q 989 62 987 62 q 991 64 989 64 l 989 68 l 991 81 q 985 87 985 81 l 983 87 q 979 83 980 87 m 1105 83 q 1107 74 1104 75 l 1105 54 l 1106 49 l 1103 50 q 1099 60 1103 53 q 1102 64 1102 60 l 1102 66 q 1099 75 1099 71 q 1105 83 1102 83 m 89 133 l 89 130 l 96 130 l 96 132 l 89 133 m 207 126 l 205 122 l 208 120 l 210 124 l 207 126 m 708 100 q 706 94 708 98 l 707 94 q 711 98 711 93 l 711 100 l 708 100 m 891 90 l 892 79 q 898 90 896 79 l 891 90 m 959 86 l 959 82 l 964 82 l 964 86 l 959 86 m 1122 80 l 1125 79 q 1128 75 1128 79 l 1128 71 q 1118 74 1126 73 l 1118 76 q 1122 80 1119 80 m 1135 79 q 1145 72 1145 77 l 1140 68 q 1135 75 1137 68 l 1135 79 m 823 92 q 820 83 822 87 l 823 81 l 825 85 l 826 92 l 823 92 m 111 127 l 111 121 l 116 121 l 116 127 l 111 127 m 618 100 q 608 80 618 85 l 606 76 q 612 71 608 75 l 616 71 q 623 73 619 71 q 629 71 625 71 l 631 70 q 640 78 640 75 q 638 80 638 78 l 635 79 l 628 79 q 621 100 623 79 l 618 100 m 812 90 q 813 81 813 86 l 817 81 l 817 83 q 815 90 815 87 l 812 90 m 868 83 l 873 83 l 873 87 l 871 87 q 868 83 868 86 m 62 127 q 60 121 61 125 l 64 121 l 64 123 q 62 127 65 127 m 832 83 l 832 81 q 836 85 836 80 l 836 87 q 832 83 832 86 m 399 108 l 399 95 l 403 95 q 406 101 406 95 q 405 107 405 105 l 399 108 m 451 101 l 451 98 q 464 90 450 93 q 469 94 464 94 l 469 98 l 466 96 l 465 96 q 461 104 461 96 l 454 104 q 451 101 451 104 m 545 92 q 546 90 547 92 q 553 96 553 92 l 553 100 l 550 100 q 545 92 547 100 m 960 78 q 958 70 960 77 l 962 67 l 964 71 l 964 73 q 960 78 964 78 m 1017 71 l 1022 71 l 1022 75 l 1020 75 q 1017 71 1017 74 m 1025 75 l 1025 73 l 1029 72 l 1029 74 l 1025 75 m 119 121 l 119 119 l 123 118 l 123 120 l 119 121 m 319 110 l 319 106 q 324 103 321 106 l 324 110 l 319 110 m 413 105 l 413 103 l 416 102 l 416 104 l 413 105 m 595 95 l 594 91 l 600 91 q 603 95 603 91 l 595 95 m 637 93 l 637 91 l 641 91 l 641 93 l 637 93 m 687 90 l 686 86 l 690 86 q 694 90 693 85 l 687 90 m 699 81 l 699 71 l 705 71 q 714 83 707 71 q 707 90 707 83 l 705 90 q 699 81 703 90 m 258 111 l 258 107 q 264 109 260 109 l 264 111 l 258 111 m 283 110 l 283 108 l 287 107 l 287 109 l 283 110 m 376 104 l 367 97 l 370 97 l 378 98 l 379 100 q 376 104 379 104 m 876 78 l 876 74 l 878 74 l 878 78 l 876 78 m 110 111 q 113 106 113 110 q 122 110 119 110 l 122 112 q 119 116 123 116 l 116 117 q 110 111 113 117 m 1063 62 l 1062 60 l 1065 60 l 1066 66 q 1063 62 1063 65 m 71 106 l 71 104 q 77 100 77 104 q 73 87 73 92 l 78 83 l 81 83 l 85 85 q 83 104 83 88 l 84 108 q 83 116 83 111 l 78 117 q 71 106 75 117 m 170 107 q 175 98 172 99 q 178 102 178 98 q 174 111 176 111 q 170 107 170 111 m 232 106 l 231 104 l 235 104 l 235 106 l 232 106 m 819 71 l 823 71 l 823 75 q 819 71 820 74 m 259 102 l 257 98 l 257 96 l 258 96 q 262 100 262 96 l 259 102 m 484 86 l 490 86 l 490 90 l 488 90 q 484 86 484 90 m 789 75 l 789 73 q 792 68 789 68 l 792 74 l 789 75 m 873 70 l 872 68 l 876 59 q 888 61 882 61 l 888 65 q 881 69 881 65 l 878 68 l 876 68 l 873 70 m 1013 62 l 1013 54 l 1014 54 l 1015 62 l 1013 62 m 283 99 l 281 95 l 281 93 l 286 93 l 286 95 q 283 99 286 99 m 445 91 l 439 83 l 445 82 q 448 86 448 82 q 445 91 448 90 m 642 74 l 648 71 l 652 77 l 652 79 q 642 74 642 79 m 1064 58 l 1063 52 l 1067 51 q 1071 55 1070 51 q 1064 58 1067 56 m 1090 58 q 1099 43 1099 47 l 1099 41 l 1088 41 q 1085 33 1088 33 l 1080 34 l 1080 40 l 1086 48 l 1086 52 l 1079 53 l 1079 57 l 1090 58 m 1170 54 l 1171 50 l 1171 47 l 1170 47 q 1166 52 1166 48 l 1170 54 m 452 88 q 456 81 452 85 l 458 81 q 454 88 458 85 l 452 88 m 593 74 q 595 68 595 70 l 598 68 q 604 80 604 70 l 599 80 q 593 74 597 80 m 720 74 l 720 72 l 724 71 l 724 74 l 720 74 m 838 63 l 843 59 l 845 67 l 842 67 q 838 63 838 67 m 1131 54 l 1136 54 q 1142 50 1139 50 l 1142 45 l 1135 43 l 1132 50 l 1128 48 l 1127 48 l 1127 50 q 1131 54 1128 54 m 501 83 l 501 75 l 503 75 q 506 79 506 75 l 507 81 q 501 83 505 81 m 802 65 l 800 61 q 810 50 806 50 l 810 48 l 808 44 l 812 39 l 818 39 q 815 52 818 43 q 819 56 819 52 l 819 62 q 802 65 814 64 m 865 64 l 865 60 q 872 55 868 60 l 872 58 q 867 64 872 60 l 865 64 m 989 58 l 987 54 l 987 52 l 991 51 l 991 53 q 989 58 992 57 m 53 103 l 53 99 l 56 98 q 60 102 60 98 l 60 104 l 58 105 q 53 103 55 103 m 538 66 l 542 66 q 552 75 549 75 l 553 79 l 551 79 q 538 66 541 75 m 785 64 q 788 54 788 57 l 795 53 l 797 64 l 793 66 l 788 66 l 785 64 m 89 97 q 99 92 95 96 l 100 92 q 92 101 100 95 q 89 97 89 100 m 286 91 q 280 85 286 84 l 280 81 q 289 88 288 84 l 289 90 l 286 91 m 1052 52 l 1053 47 l 1050 46 l 1046 46 l 1043 48 q 1025 26 1043 47 l 1019 26 l 1019 28 l 1021 33 q 1018 37 1018 33 q 1022 41 1019 41 l 1023 41 l 1027 39 q 1036 51 1036 44 l 1043 50 l 1052 52 m 552 66 l 559 66 q 562 70 562 65 l 561 74 q 552 66 553 72 m 258 88 l 258 86 q 261 81 258 81 q 267 83 264 83 l 267 87 l 258 88 m 294 86 l 294 82 l 302 79 l 306 79 l 306 83 l 298 86 l 294 86 m 663 66 l 661 62 l 661 60 l 668 60 l 668 64 q 663 66 667 64 m 747 54 l 748 54 q 753 60 751 54 l 754 62 l 752 62 q 747 54 749 62 m 130 93 l 130 88 l 133 88 l 133 92 l 130 93 m 237 87 l 235 83 l 241 83 q 237 87 241 87 m 433 77 q 429 68 432 73 l 432 66 q 437 76 435 66 l 433 77 m 697 62 q 696 60 697 60 q 700 52 698 52 q 702 54 701 54 q 697 62 700 62 m 61 92 l 61 88 l 64 81 q 69 83 68 83 l 69 85 q 64 92 70 88 l 61 92 m 203 83 q 208 74 205 74 l 210 74 q 220 79 218 73 l 218 79 l 210 78 q 208 84 208 82 l 207 84 l 203 83 m 227 83 q 225 81 227 81 q 227 75 227 77 q 230 79 230 75 q 227 83 231 83 m 330 78 l 330 74 l 333 73 l 333 77 l 330 78 m 379 75 l 377 71 q 385 64 386 68 q 384 62 384 64 l 387 60 l 389 60 q 393 68 389 63 l 389 75 l 386 73 l 382 73 l 379 75 m 494 69 l 494 65 q 497 69 497 64 l 494 69 m 249 80 l 249 76 q 252 80 252 75 l 249 80 m 316 75 l 315 66 l 320 66 q 324 70 323 66 l 319 74 l 316 75 m 397 70 l 397 66 l 401 66 l 401 70 l 397 70 m 174 75 l 173 71 l 182 73 l 182 75 q 179 79 182 79 l 177 79 q 174 75 174 79 m 584 56 l 584 52 l 587 52 l 587 56 l 584 56 m 722 51 l 724 50 l 724 46 l 722 46 l 722 51 m 1049 33 l 1050 33 l 1050 29 l 1048 29 l 1049 33 m 218 73 l 218 69 l 221 69 q 218 73 221 73 m 257 69 l 257 67 l 260 66 l 260 69 l 257 69 m 981 33 l 987 33 q 977 24 987 28 l 975 28 l 981 33 m 24 81 l 26 81 l 26 79 q 22 75 26 75 l 21 79 l 24 81 m 320 64 l 320 62 q 325 55 320 58 l 326 63 l 320 64 m 339 62 l 338 52 q 332 54 334 52 q 324 47 326 53 q 328 42 328 45 l 336 44 l 350 43 l 350 47 q 340 52 340 48 q 344 56 341 56 q 342 62 342 60 l 339 62 m 779 41 l 780 37 l 774 33 l 773 37 l 779 41 m 457 54 l 455 50 q 460 47 457 50 l 460 50 q 457 54 460 54 m 879 34 l 883 34 q 879 30 882 29 l 879 34 m 92 65 q 98 52 92 63 q 95 48 95 52 q 98 44 95 44 l 102 43 q 105 47 105 43 l 105 50 q 104 58 106 54 q 106 64 106 62 q 104 71 104 68 q 92 65 99 65 m 303 60 q 297 41 300 46 q 302 35 296 39 q 309 52 307 35 l 303 60 m 684 42 l 688 42 q 684 38 688 38 l 684 42 m 942 26 l 951 26 l 951 22 l 942 22 l 942 26 m 963 25 l 968 25 l 968 21 l 962 21 l 963 25 m 190 62 l 190 58 q 195 52 189 55 l 197 56 q 195 62 195 60 l 190 62 m 31 71 l 33 66 l 33 64 l 24 64 q 20 69 20 65 l 31 71 m 154 58 l 153 56 l 157 56 l 157 62 q 154 58 154 61 m 212 59 l 212 57 l 214 52 q 210 48 210 52 l 210 46 q 225 52 225 47 q 220 58 226 55 l 212 59 m 236 58 l 234 54 l 234 47 l 237 47 q 241 51 241 47 l 241 55 q 236 58 239 56 m 133 59 q 127 47 133 52 q 129 38 129 43 l 130 38 q 142 43 137 44 l 148 43 l 150 52 l 144 47 l 141 48 q 136 58 137 48 l 133 59 m 248 53 l 248 49 l 249 48 l 250 53 l 248 53 m 318 49 l 317 43 l 319 43 q 323 47 323 43 l 319 49 l 318 49 m 479 41 l 482 40 q 476 35 481 37 l 475 39 l 479 41 m 805 23 q 810 21 808 21 l 810 16 q 796 15 806 17 l 796 22 q 805 23 802 21 m 273 45 l 273 41 q 277 35 273 38 q 281 39 281 34 q 273 45 281 42 m 283 43 l 283 38 l 292 38 l 292 44 l 283 43 m 747 22 l 748 22 l 748 16 l 746 16 q 743 20 743 16 l 747 22 m 239 45 l 238 39 l 240 39 q 243 43 243 38 l 244 45 l 239 45 m 153 47 l 151 43 l 156 43 q 153 47 157 47 m 74 45 q 77 41 75 41 q 81 45 81 41 q 78 49 81 49 q 74 45 75 49 m 338 31 l 341 31 l 341 35 q 338 31 338 35 m 382 35 l 387 35 l 387 33 q 384 28 387 28 l 382 28 l 382 35 m 161 39 l 166 38 l 167 42 l 165 43 q 161 39 161 42 m 115 43 l 115 41 l 119 41 l 119 43 l 115 43 m 149 37 l 149 31 q 152 26 149 26 l 154 26 q 163 34 163 31 q 149 37 159 35 m 120 37 l 120 33 l 123 32 q 127 36 127 32 l 120 37 m 200 24 q 212 13 212 15 l 208 11 q 199 20 199 17 l 200 24 m 222 20 l 222 16 l 213 15 q 222 20 214 20 m 34 26 l 35 26 q 45 17 42 26 l 42 16 l 38 16 q 34 26 35 16 z "},"P":{"ha":1099,"x_min":20,"x_max":1017,"o":"m 20 146 l 26 146 q 75 127 49 127 q 83 130 78 127 q 106 120 100 120 l 127 120 q 130 117 130 120 q 138 120 135 120 q 153 117 151 117 l 163 123 q 184 114 163 117 q 192 117 189 117 q 200 114 197 114 l 203 120 q 218 114 218 117 l 223 117 l 229 114 q 231 117 231 114 l 257 114 l 268 114 q 281 117 276 114 l 296 114 l 312 114 l 319 120 l 333 111 q 380 117 364 117 q 387 114 382 117 q 395 117 393 117 l 408 114 l 414 117 q 416 114 416 117 l 434 117 l 471 117 q 507 114 485 117 q 515 117 512 117 l 517 111 q 528 114 519 111 q 557 111 538 114 q 591 114 578 114 l 616 111 q 619 114 616 114 l 622 107 l 676 114 q 687 107 687 111 q 720 114 699 114 l 731 114 q 741 111 736 114 q 754 117 754 114 l 772 114 l 825 114 q 835 117 831 114 q 843 114 840 114 l 859 117 q 861 107 861 111 l 864 107 q 866 117 864 111 q 869 114 869 117 q 905 120 892 120 q 911 114 906 114 q 913 117 911 117 q 918 111 914 111 q 924 117 919 117 l 929 117 q 939 104 935 104 l 939 98 q 934 91 939 91 q 931 104 931 96 l 926 104 q 921 91 926 91 q 911 107 916 106 l 911 104 q 913 94 913 98 l 908 91 l 900 91 l 890 100 q 877 78 890 87 l 871 78 q 859 94 870 78 l 859 81 l 853 81 l 846 87 q 840 71 846 71 q 830 75 834 71 q 822 71 825 71 q 817 87 817 79 l 812 87 q 799 65 812 65 q 791 68 793 68 q 788 65 791 65 q 781 75 788 70 l 781 65 l 775 65 q 770 75 775 75 q 765 68 770 68 l 762 75 l 765 81 l 765 84 l 762 84 q 752 55 752 63 l 749 55 q 747 65 747 62 l 736 55 l 731 55 l 726 58 q 718 49 726 54 l 715 49 q 705 52 709 49 q 694 49 701 49 l 692 49 l 692 58 l 687 55 q 684 58 687 58 q 679 45 684 45 q 676 55 676 52 q 669 45 673 55 q 671 42 671 45 q 669 39 669 42 q 648 45 655 45 l 648 33 l 640 33 q 629 52 640 37 q 614 33 625 52 q 608 39 614 39 q 601 23 601 28 l 598 23 l 591 29 q 580 20 591 20 q 572 23 575 23 q 570 13 570 16 l 536 20 q 515 7 536 12 l 510 9 q 502 7 505 7 q 499 16 499 13 l 496 16 q 492 7 496 7 q 473 16 473 7 l 471 16 q 439 3 463 7 l 434 7 l 421 3 q 414 7 418 3 l 380 0 q 346 7 346 3 q 343 3 343 7 l 333 7 l 322 3 q 315 9 315 7 l 309 7 q 286 13 290 9 l 281 9 q 268 16 268 13 q 265 13 265 16 q 229 20 242 20 q 226 16 229 16 q 210 26 226 21 l 205 23 l 142 49 l 135 49 q 26 120 50 85 l 20 130 l 20 146 m 945 117 l 955 117 q 958 114 958 117 l 962 117 l 968 117 q 970 114 970 117 l 976 117 l 994 114 q 996 117 994 117 l 996 111 l 973 104 q 968 111 973 111 q 962 104 968 104 l 958 107 q 955 98 958 104 q 939 114 939 100 l 945 117 m 1012 117 l 1017 117 l 1017 111 l 1007 107 l 1007 111 q 1012 117 1008 117 m 827 94 l 827 81 l 830 81 l 830 94 l 827 94 m 687 87 l 687 84 l 692 84 l 692 87 l 687 87 m 694 71 l 694 62 q 700 55 695 55 l 703 55 q 697 71 697 66 l 694 71 m 645 58 l 645 52 l 648 52 l 648 58 l 645 58 z "},"Q":{"ha":944,"x_min":20,"x_max":863,"o":"m 495 180 l 498 174 q 494 161 494 168 l 522 156 q 534 165 522 161 q 547 161 542 162 q 555 168 548 168 l 563 168 l 575 160 q 579 163 578 160 l 599 159 l 611 158 q 620 164 619 158 q 777 143 648 157 q 800 129 800 132 l 808 132 q 859 80 860 111 q 862 77 863 80 q 751 30 823 26 l 722 35 q 718 18 718 30 l 702 33 l 698 33 q 641 29 672 34 q 629 36 629 33 q 531 22 557 33 q 528 25 532 25 l 523 12 l 515 13 l 515 16 q 519 25 519 22 l 515 26 q 474 18 484 23 q 463 22 467 22 l 450 9 l 441 13 l 433 14 q 401 2 419 14 q 397 12 397 9 l 373 13 q 357 11 363 14 l 349 14 l 328 12 q 204 45 304 14 q 192 42 197 42 q 160 50 162 50 q 144 47 153 47 q 60 75 144 53 q 20 96 20 91 l 21 100 q 156 132 66 119 q 169 142 168 132 l 189 137 l 193 137 l 238 151 q 250 147 245 147 q 262 150 258 150 q 267 146 262 146 q 271 156 271 153 l 263 170 l 271 172 q 287 152 280 152 l 295 151 q 319 157 306 151 l 336 153 q 491 181 490 155 l 495 180 z "},"R":{"ha":995,"x_min":20,"x_max":913,"o":"m 465 119 l 470 117 l 486 119 l 492 116 q 494 119 494 116 q 522 112 515 115 q 530 117 522 117 l 535 114 q 546 117 540 117 q 549 114 549 117 q 557 116 554 116 q 570 113 566 116 q 595 115 585 115 l 611 112 l 616 114 q 625 111 622 111 l 630 114 q 633 111 633 113 l 646 113 l 657 113 q 660 110 660 113 l 665 113 q 676 109 670 109 l 676 104 q 659 99 669 104 q 648 102 654 102 q 643 97 648 97 l 640 97 l 632 102 q 602 93 632 99 q 594 96 600 93 q 529 90 555 94 q 524 96 529 96 q 507 91 515 91 l 494 94 q 488 89 494 89 q 475 92 479 89 l 458 90 l 437 91 q 434 94 434 91 l 429 91 l 391 92 l 374 90 l 369 93 l 358 91 l 331 94 l 326 92 q 315 95 321 95 l 301 93 l 301 96 q 298 93 298 96 l 288 96 q 187 105 231 98 q 174 102 182 102 q 163 106 168 103 q 152 103 158 103 l 138 104 q 136 106 136 104 q 133 104 133 106 l 62 112 l 63 117 q 144 120 94 117 l 150 117 q 204 121 189 121 l 204 118 q 226 123 226 120 l 239 119 l 250 119 l 269 121 l 269 118 q 272 121 272 118 q 277 118 277 121 l 337 121 q 340 119 340 121 l 353 121 l 391 119 q 402 116 397 119 q 413 119 407 119 l 437 118 q 440 115 440 117 l 465 119 m 862 78 q 873 75 867 75 l 873 70 q 859 67 864 70 l 857 73 q 862 78 858 79 m 602 85 l 607 82 q 615 84 612 84 l 615 81 l 621 84 q 626 81 626 84 l 653 83 l 677 82 q 688 79 684 82 q 696 81 694 81 l 699 76 q 715 81 708 81 l 718 81 q 726 77 726 80 l 740 80 l 767 79 q 770 76 770 79 l 775 79 l 805 77 l 805 72 l 791 70 l 783 70 q 781 73 781 71 q 753 68 774 71 l 740 72 q 686 68 699 68 l 686 71 l 680 68 q 664 72 678 68 q 639 64 655 68 q 631 67 634 67 l 625 65 l 612 71 q 606 66 612 65 l 593 66 q 591 69 590 66 q 568 64 581 64 l 566 64 l 558 70 l 530 60 q 500 66 507 66 q 479 62 491 62 l 473 65 q 468 60 473 60 l 460 60 q 454 66 454 60 q 406 62 441 60 l 406 64 l 400 62 l 395 65 q 376 58 395 60 q 351 61 361 61 l 338 59 q 330 62 332 62 l 324 59 q 316 62 319 62 l 311 60 q 308 62 308 60 l 294 60 q 289 63 289 60 l 275 61 l 229 62 q 218 66 223 63 q 208 64 214 63 l 205 64 l 189 67 q 180 64 183 64 q 178 67 178 64 l 164 65 l 134 66 q 123 64 128 66 q 121 66 121 64 q 80 65 94 65 l 20 67 l 20 70 q 233 81 21 81 l 246 84 l 246 81 q 254 83 252 83 q 376 85 294 82 q 385 81 379 85 l 425 85 q 439 82 430 83 l 444 85 l 450 82 q 509 85 508 83 l 515 82 q 526 85 516 82 q 534 82 531 82 q 542 84 539 84 l 547 81 q 555 83 553 84 q 564 81 559 83 q 583 83 574 83 l 588 80 q 602 85 597 85 m 819 77 l 819 75 l 824 77 l 843 76 l 843 71 l 816 69 l 813 69 q 808 75 808 69 q 819 77 809 75 m 886 75 l 913 74 l 913 68 l 892 69 q 886 75 886 69 m 579 50 l 592 47 l 652 45 q 682 47 663 45 q 690 43 687 43 l 696 46 l 714 43 q 725 45 715 43 l 730 42 l 736 45 l 752 41 l 766 43 l 766 41 l 771 43 q 774 41 774 43 l 779 43 q 828 39 817 39 l 852 41 q 871 37 863 37 l 871 32 l 839 25 l 839 28 l 822 22 q 812 26 818 26 l 809 26 q 754 14 802 20 q 751 12 754 12 l 749 17 q 711 7 735 9 l 705 10 l 692 8 l 678 12 q 634 2 666 5 l 618 5 l 612 3 q 602 6 608 6 l 588 4 l 588 7 q 561 2 582 4 q 550 5 556 5 l 545 3 q 536 5 539 5 l 534 0 l 528 3 l 458 5 q 433 4 448 6 q 431 7 431 4 l 393 3 q 355 12 382 8 q 349 7 355 7 q 338 13 343 12 q 317 11 336 13 q 304 19 317 17 q 296 17 298 17 q 247 29 247 23 l 247 32 q 378 41 261 37 l 378 39 q 394 43 389 43 q 397 41 397 43 q 451 50 451 44 l 452 52 l 457 52 l 456 47 l 484 45 q 551 46 507 45 l 551 43 q 579 50 578 45 m 880 37 l 888 37 l 888 31 l 880 31 l 880 37 z "},"S":{"ha":1028,"x_min":20,"x_max":947,"o":"m 833 141 q 844 138 838 138 l 846 138 q 857 139 852 137 q 864 136 861 136 q 869 138 869 136 l 887 134 l 926 131 q 937 133 932 130 q 947 130 941 130 l 946 124 l 936 125 q 926 123 930 125 q 918 126 920 126 q 912 121 918 121 q 892 125 899 125 q 855 115 892 122 q 848 118 852 115 l 831 117 l 827 117 q 822 125 821 117 l 817 126 q 808 116 816 115 q 793 123 798 122 q 764 114 793 115 l 764 117 l 759 115 l 733 117 l 725 112 l 723 112 l 715 118 l 713 113 l 700 117 q 648 115 695 117 l 648 118 q 614 115 646 115 q 616 107 616 110 q 624 109 621 109 l 629 106 q 640 108 634 108 l 642 102 q 658 106 650 107 l 696 103 l 709 105 l 711 99 l 737 100 l 745 99 q 758 96 753 98 l 773 97 l 784 96 q 806 92 793 96 l 812 94 q 819 91 817 91 q 830 92 821 90 q 838 86 838 89 q 866 90 861 88 q 873 83 873 86 l 879 86 q 943 78 928 79 l 945 73 q 939 67 945 67 q 937 71 940 70 q 926 63 937 66 q 919 66 922 66 l 905 64 q 898 68 901 68 q 888 66 893 66 l 888 68 q 872 64 879 64 l 864 65 q 862 68 862 65 l 857 66 l 825 68 l 810 67 l 805 70 q 774 67 781 66 l 774 70 q 751 66 768 67 l 745 69 q 738 67 741 67 q 730 71 733 71 q 714 64 730 66 l 701 67 l 688 66 l 678 69 q 647 66 653 66 q 644 69 647 69 l 642 64 l 629 71 q 624 66 629 65 l 611 66 l 604 73 q 574 66 603 66 l 559 71 q 533 67 536 67 q 526 71 528 71 l 526 68 l 528 62 l 549 66 q 562 62 553 63 l 579 64 q 587 60 585 60 q 593 65 588 66 l 595 60 l 600 62 q 605 59 605 62 q 652 60 646 59 q 654 58 654 60 l 680 58 q 705 54 703 54 q 713 58 706 59 q 716 56 716 58 l 729 57 l 736 56 q 765 52 747 56 q 775 54 770 54 q 778 50 778 53 l 791 52 l 804 51 q 806 48 806 51 l 811 50 l 821 47 q 842 48 836 48 l 847 45 q 855 47 852 47 l 860 44 l 865 46 l 891 41 q 899 43 896 43 l 899 41 l 904 43 l 924 41 q 927 39 927 41 l 932 41 l 937 40 q 942 35 943 39 l 942 32 q 908 26 941 25 q 898 30 904 29 q 882 23 895 22 q 862 30 880 23 q 843 20 857 20 l 825 22 q 806 16 817 18 l 791 20 q 785 14 791 14 l 776 20 l 760 19 l 758 20 l 753 22 q 741 12 752 20 l 729 16 l 721 17 q 680 12 688 12 l 664 16 q 630 11 663 10 l 625 14 l 596 10 l 597 13 q 568 10 586 9 l 565 10 q 563 13 563 10 l 513 6 l 508 9 l 498 5 q 482 9 496 5 q 448 6 476 9 l 444 9 l 438 7 l 433 10 q 425 8 428 7 l 425 11 q 410 6 414 6 l 405 9 q 374 7 384 6 q 348 12 370 7 q 327 7 343 12 l 322 11 q 298 7 304 9 q 286 14 286 11 l 281 12 l 258 13 l 250 8 q 245 14 244 9 l 239 12 q 229 16 233 12 q 208 9 214 13 q 203 15 208 14 l 198 15 q 175 14 189 16 q 160 21 159 18 q 131 15 135 15 l 123 21 l 111 20 q 106 25 111 25 l 80 27 q 77 31 77 28 l 73 28 l 67 31 l 54 30 q 28 56 28 50 l 28 59 q 62 67 28 66 l 62 64 l 67 66 l 73 66 l 77 63 q 91 70 77 67 l 104 66 l 109 66 q 137 69 127 64 l 160 62 q 169 75 168 68 l 174 75 l 174 69 l 179 71 q 189 62 189 66 q 231 67 197 67 q 235 61 231 62 l 240 61 l 241 69 l 249 68 q 253 60 254 68 q 269 69 267 70 q 290 65 283 66 l 290 76 q 283 74 283 77 q 275 77 280 74 q 231 78 248 77 l 227 81 q 172 80 209 77 q 169 77 172 77 l 169 80 l 159 75 q 151 79 154 79 l 136 77 l 136 80 l 122 76 q 115 79 117 79 l 102 77 q 94 81 97 81 q 86 79 89 79 l 86 81 q 37 77 67 75 q 20 98 30 78 q 75 109 21 104 l 75 106 q 96 111 89 111 l 96 108 q 161 113 119 111 q 169 110 166 111 q 224 117 169 115 q 234 113 228 113 q 250 120 250 115 q 248 123 247 120 l 234 121 l 229 121 q 227 125 227 122 q 216 120 216 123 q 158 144 157 125 l 159 146 q 182 155 159 151 l 187 152 q 198 154 192 155 l 203 151 l 218 155 l 224 152 q 234 154 229 155 q 237 151 237 154 l 286 155 q 296 152 290 152 q 312 156 303 151 q 314 153 315 155 q 363 155 348 155 l 363 152 q 387 155 369 154 q 389 153 389 155 q 436 157 436 151 l 449 153 l 472 154 q 479 151 477 151 l 483 156 q 490 150 490 153 l 519 153 l 518 150 l 539 154 q 542 151 542 154 l 555 153 q 575 149 562 152 q 609 151 603 149 q 619 147 614 148 q 630 152 629 146 l 648 148 q 671 149 657 147 l 676 146 q 705 146 694 147 l 707 146 q 715 142 715 145 q 772 143 728 144 l 777 140 q 787 142 781 142 l 792 142 q 805 138 801 141 q 833 141 828 140 m 593 117 l 593 114 l 606 111 l 609 110 l 609 115 l 593 117 m 550 117 l 549 115 l 555 115 l 555 117 l 550 117 m 560 117 q 565 111 560 111 l 570 111 q 565 117 570 116 l 560 117 m 573 116 l 572 113 l 583 113 l 583 115 l 573 116 m 446 118 l 446 115 q 454 112 449 115 l 459 119 l 456 119 q 446 118 452 117 m 477 118 l 477 115 l 482 115 l 482 117 l 477 118 m 374 123 l 371 119 l 376 115 l 378 115 l 379 118 q 374 123 379 123 m 389 119 l 389 111 l 391 111 q 399 119 395 111 l 389 119 m 335 121 l 335 116 l 337 115 l 338 121 l 335 121 m 286 120 l 286 117 l 304 115 l 304 118 q 299 121 299 119 q 286 120 294 119 m 255 119 l 255 117 l 270 115 q 275 121 275 115 l 273 121 l 255 119 m 510 72 l 510 69 q 515 63 511 64 l 520 63 l 520 68 q 510 72 515 68 m 433 70 q 425 73 430 70 q 386 71 391 73 q 378 74 381 74 q 370 72 376 75 l 360 76 q 342 75 350 74 l 342 77 l 337 75 l 311 77 l 311 66 l 316 68 l 331 67 q 341 64 337 66 l 355 68 l 359 65 q 370 66 361 65 l 375 64 q 385 66 380 66 l 395 62 q 401 67 397 67 q 404 64 404 66 q 427 68 421 65 q 429 64 430 67 q 458 68 452 66 q 468 64 463 65 l 473 64 l 474 72 l 471 72 l 458 71 l 446 75 q 433 70 437 70 m 479 69 l 481 63 q 489 65 486 66 l 490 71 l 487 71 q 479 69 481 68 m 792 33 l 791 28 l 794 27 l 795 33 l 792 33 z "},"T":{"ha":1004,"x_min":20,"x_max":923,"o":"m 414 204 l 433 204 q 451 195 444 195 l 451 191 q 431 186 447 191 q 409 197 425 197 l 409 199 q 414 204 410 204 m 456 204 l 458 204 q 475 193 471 204 l 480 195 q 488 193 485 193 l 500 195 l 500 191 l 483 189 l 475 189 q 463 197 474 189 l 451 197 l 451 199 q 456 204 452 204 m 534 204 l 544 204 l 547 193 l 542 191 l 534 191 l 522 193 q 519 191 522 191 l 519 193 q 534 204 534 202 m 291 202 l 294 202 l 308 189 l 279 186 l 274 197 l 279 199 q 286 197 283 197 q 291 202 287 202 m 330 202 l 340 202 l 340 197 l 328 184 l 323 184 l 323 186 q 328 193 326 193 l 326 197 q 330 202 326 202 m 689 202 l 696 202 l 696 197 l 694 197 q 689 202 689 197 m 362 199 l 365 199 l 365 195 l 362 195 l 362 199 m 377 199 l 385 199 q 389 195 389 199 l 385 193 q 377 195 380 195 l 377 199 m 190 197 l 197 193 l 205 193 q 220 197 212 193 q 224 191 222 191 q 232 193 229 193 q 234 191 232 191 q 261 197 234 197 l 264 197 q 269 189 264 194 q 239 180 255 180 q 232 184 239 184 q 210 177 210 182 l 205 180 l 200 180 l 193 175 l 175 175 l 165 182 q 143 173 165 178 q 141 180 141 177 l 136 180 q 134 173 136 177 l 121 175 l 114 175 l 114 170 l 109 170 q 102 177 107 170 q 94 175 97 175 q 77 189 82 189 l 77 193 q 90 195 90 193 l 102 193 l 129 193 q 131 191 131 193 q 146 195 141 195 q 155 186 146 192 q 185 193 160 190 q 190 197 186 197 m 581 195 l 589 195 q 593 191 593 195 l 586 186 l 583 186 q 576 193 580 186 l 581 195 m 498 159 l 519 159 q 524 155 524 159 q 532 157 529 157 q 539 155 536 155 l 539 151 q 532 144 539 147 l 524 144 l 524 146 l 527 151 l 522 153 q 507 144 517 144 l 507 139 q 512 130 512 134 l 530 132 l 530 134 l 522 134 q 527 139 523 139 l 530 139 q 534 134 534 138 q 522 123 534 132 l 503 123 l 490 121 q 488 128 488 125 l 483 128 l 483 121 l 473 121 l 471 130 l 483 130 q 490 144 490 132 l 490 146 q 483 151 483 146 q 495 153 487 153 l 492 157 l 498 159 m 589 159 l 591 159 q 606 155 597 159 q 616 157 610 157 q 630 151 616 151 l 630 146 q 613 141 618 146 q 606 148 610 141 l 601 146 l 596 146 q 589 155 596 155 l 589 159 m 311 157 q 328 146 311 153 l 330 146 q 342 155 330 155 q 353 144 349 144 l 355 144 l 355 146 l 350 153 l 350 155 l 365 155 q 374 157 370 155 q 397 153 380 155 l 397 148 l 392 148 l 392 144 q 406 148 398 144 q 416 146 411 146 l 418 146 q 424 155 418 155 l 433 155 l 444 148 l 448 148 q 451 153 448 153 q 473 144 473 151 l 468 141 l 456 144 l 453 139 q 463 132 463 138 l 463 130 q 444 121 463 127 q 438 132 438 127 l 431 132 q 426 125 431 125 q 414 134 420 134 l 414 137 q 397 132 404 132 l 394 137 l 382 134 l 374 134 l 374 132 l 377 128 l 374 128 l 365 134 l 350 134 l 338 132 q 315 146 338 136 q 313 148 315 148 l 311 148 l 313 137 l 311 128 l 306 130 l 300 130 l 303 125 l 303 123 l 291 123 l 283 128 l 276 123 l 267 125 q 256 123 262 123 l 254 128 q 256 130 254 130 q 254 141 254 134 l 241 141 l 241 139 l 247 139 l 247 134 l 244 134 q 229 139 236 139 l 229 137 q 244 132 229 132 l 244 128 q 239 123 244 123 l 212 123 l 212 125 l 217 132 l 212 134 l 205 134 l 205 132 q 208 125 208 128 l 200 125 q 190 123 195 125 q 170 130 188 123 q 158 119 170 124 l 141 121 l 126 121 l 119 117 l 116 117 q 111 121 111 117 l 111 125 l 129 134 q 123 139 123 134 l 123 141 q 136 144 132 141 l 141 141 q 151 144 145 144 l 158 139 l 165 144 q 180 134 180 144 l 185 134 q 190 146 185 140 q 182 148 185 148 l 182 153 q 193 155 184 153 q 222 146 193 152 q 232 148 223 146 l 241 146 q 261 151 246 146 l 267 148 q 281 153 275 153 q 296 151 294 151 q 311 157 296 157 m 549 153 l 551 153 l 551 148 l 549 148 l 549 153 m 669 151 l 682 151 q 687 146 687 150 l 687 144 q 665 130 673 144 l 637 123 l 635 123 q 630 128 630 123 q 642 139 630 131 l 645 139 q 650 132 650 139 l 652 132 q 669 151 669 146 m 724 151 l 728 151 q 734 146 734 150 q 728 141 728 145 l 728 139 l 739 139 l 739 137 q 734 125 734 132 l 728 125 q 724 137 728 132 l 726 141 q 724 151 724 145 m 751 148 q 768 134 768 136 l 768 130 q 751 146 756 130 l 751 148 m 281 144 q 286 139 282 139 l 288 139 l 288 144 l 281 144 m 569 146 q 581 134 572 146 l 581 132 q 576 130 576 132 l 564 132 l 547 132 l 547 139 l 557 137 l 569 146 m 583 144 l 596 144 q 601 134 596 140 q 589 128 589 132 q 591 125 591 128 l 586 123 l 581 123 l 586 130 q 583 132 586 132 l 586 137 q 583 144 583 141 m 696 144 l 702 137 l 702 130 q 696 125 702 125 q 692 139 692 133 q 696 144 692 144 m 775 144 l 778 144 q 785 137 781 144 l 781 134 l 775 134 l 775 144 m 109 141 l 119 141 l 119 137 l 109 137 l 109 141 m 618 137 l 621 132 l 621 128 l 616 128 q 613 134 616 130 l 618 137 m 82 132 q 96 125 96 130 l 96 119 q 92 115 96 115 l 90 115 q 87 117 87 115 q 72 112 79 112 l 72 115 l 67 112 l 60 112 l 60 117 l 64 123 q 57 128 57 123 l 62 130 l 70 125 l 82 132 m 669 132 l 675 132 q 680 128 680 132 l 675 125 l 669 125 l 669 132 m 84 128 l 82 123 l 87 121 l 92 121 q 84 128 92 124 m 566 128 l 571 128 l 571 123 l 566 123 l 566 128 m 37 125 l 40 125 q 52 112 43 125 l 52 110 q 37 123 49 110 l 37 125 m 682 121 l 684 117 q 677 110 684 113 l 675 110 q 667 117 671 110 l 667 119 q 682 121 678 119 m 28 119 l 31 115 q 25 110 31 110 l 20 110 l 20 112 q 28 119 20 115 m 254 112 q 259 108 259 111 q 247 103 251 103 l 247 99 q 274 103 256 103 q 300 92 281 103 q 306 96 302 96 l 308 96 l 320 94 l 323 99 q 298 103 311 103 l 300 108 q 330 94 323 108 l 347 96 l 347 99 q 338 103 338 99 q 342 108 338 108 l 353 103 l 350 99 l 350 94 l 355 87 l 353 83 l 357 81 q 365 83 362 83 l 367 79 q 365 76 367 76 l 367 72 q 347 65 367 67 q 340 85 345 85 l 330 72 q 323 74 326 74 q 311 54 313 57 l 333 52 l 338 54 q 347 52 342 52 l 347 50 q 335 43 347 43 l 335 38 l 342 38 l 342 43 l 347 43 q 353 36 353 43 l 365 36 q 370 41 370 36 q 355 45 364 45 l 355 50 q 359 54 355 54 q 382 47 364 54 q 389 56 386 56 l 394 54 q 397 56 394 56 q 409 45 397 55 l 404 38 l 404 27 l 389 22 q 382 29 389 26 l 372 22 q 370 31 370 26 l 367 31 q 355 20 363 31 l 355 18 l 359 18 q 372 20 368 18 q 389 18 382 18 l 389 14 l 387 9 l 362 12 l 353 9 q 347 14 353 14 q 340 9 340 12 l 328 12 l 315 9 q 303 27 309 26 l 300 27 q 291 24 295 27 q 276 29 283 29 q 269 22 276 26 q 261 31 262 22 l 259 31 q 239 18 243 18 l 237 18 l 237 20 q 239 27 239 24 q 234 34 234 27 l 222 34 q 217 29 217 33 l 217 24 q 224 20 224 24 l 220 18 l 212 18 l 202 24 l 200 24 q 193 14 197 24 q 158 24 191 14 l 155 24 q 149 16 155 16 l 143 16 l 143 20 l 149 20 l 149 22 q 143 27 149 27 l 126 24 q 104 34 104 29 l 104 36 l 109 36 l 116 31 q 121 36 121 31 q 114 45 117 45 q 94 38 102 38 l 99 31 q 94 27 99 27 l 92 27 q 87 31 87 27 l 92 38 q 84 43 84 38 l 84 50 l 87 54 q 99 50 95 50 l 116 50 l 116 47 l 119 47 q 126 56 120 56 l 131 54 q 143 58 139 58 l 143 65 q 131 70 131 65 l 134 74 q 119 81 119 77 l 119 87 l 121 87 q 141 81 141 86 l 138 81 q 141 74 141 77 q 151 90 147 74 q 161 92 156 90 l 165 85 l 165 81 q 153 76 153 81 l 165 79 q 173 76 170 76 q 180 96 176 96 l 182 96 q 195 87 190 87 q 214 99 199 88 l 220 96 q 254 112 239 96 m 507 112 l 510 112 q 515 108 515 111 q 512 101 512 103 q 517 96 517 100 l 517 90 q 515 87 517 87 q 517 74 517 84 l 522 74 q 547 99 544 99 l 549 94 l 549 92 l 544 92 l 544 90 l 547 85 q 564 87 556 87 q 562 99 562 91 l 547 99 q 554 103 547 103 q 571 96 560 103 q 596 108 571 99 l 603 108 q 610 96 610 108 l 613 96 q 633 105 627 105 q 640 103 637 103 l 640 96 l 637 96 l 625 99 l 625 90 q 642 76 631 90 q 630 63 633 72 q 633 56 633 58 l 630 56 q 610 60 612 60 q 603 50 608 50 q 578 60 579 56 q 583 65 579 65 l 589 63 l 591 67 l 578 76 l 564 76 q 547 58 564 73 l 547 56 q 554 52 554 56 q 549 47 554 47 l 544 47 q 537 58 544 56 l 527 54 l 517 63 l 517 65 l 527 65 l 527 67 q 515 65 515 67 q 507 60 515 60 l 507 58 q 517 47 512 58 q 512 43 512 46 l 512 36 q 532 22 532 36 q 551 34 542 26 l 551 27 l 576 29 q 583 22 580 29 q 581 14 581 18 q 596 5 592 14 l 591 2 q 583 9 591 5 l 559 9 l 559 16 q 517 12 519 14 l 519 7 l 519 5 q 505 14 505 5 l 490 14 l 478 12 l 475 16 q 488 20 484 20 l 488 22 l 485 22 l 480 20 l 468 22 l 458 20 q 448 22 454 22 q 441 20 444 20 q 433 22 436 22 l 433 18 q 444 14 444 18 q 438 9 444 9 l 436 9 l 436 14 l 421 14 l 404 12 l 401 16 l 401 18 l 424 22 l 418 29 l 444 50 q 448 45 448 49 l 444 38 l 444 36 l 465 36 l 471 34 l 468 29 l 468 27 l 473 27 q 478 31 478 27 q 465 45 475 41 q 478 60 465 60 l 478 45 l 480 45 l 490 52 l 495 52 l 500 50 l 505 56 q 500 60 500 56 l 505 67 q 498 70 498 67 q 505 90 505 80 q 500 94 500 90 l 495 92 l 492 92 q 490 94 490 92 q 480 92 486 92 q 490 81 490 82 l 485 74 l 480 76 q 473 70 477 76 q 475 63 475 65 l 473 63 q 456 74 460 63 q 441 90 441 74 l 429 90 l 429 87 l 433 81 l 429 72 q 431 65 431 67 l 426 63 q 421 67 421 63 q 424 70 424 67 l 414 76 l 404 76 q 399 70 404 70 q 392 72 394 72 l 389 67 q 394 63 394 66 l 394 60 q 372 90 389 62 q 359 85 364 85 l 359 87 q 374 94 359 92 l 374 99 q 370 103 374 103 l 365 103 q 359 96 365 96 l 359 105 l 372 108 q 412 99 412 108 l 412 96 l 416 96 q 431 108 416 108 l 433 108 l 441 103 l 451 110 q 490 96 488 110 q 505 103 505 100 q 503 110 503 108 l 507 112 m 530 103 l 534 103 q 530 99 534 99 l 530 103 m 689 103 q 728 96 728 102 q 716 54 719 71 q 714 52 714 54 l 714 45 q 726 41 726 45 l 724 36 q 707 41 714 41 q 689 31 689 35 l 689 29 l 702 27 l 702 22 l 692 22 q 684 29 688 22 l 684 34 q 707 52 695 52 l 696 60 q 675 54 680 58 l 657 54 q 652 58 652 54 l 657 60 q 667 58 662 58 l 667 60 q 648 72 667 65 l 648 74 q 655 79 648 79 l 655 81 l 645 90 q 650 94 646 94 l 652 94 l 657 92 q 667 99 657 98 q 687 92 680 92 q 689 103 689 96 m 234 90 l 234 87 q 244 94 244 91 l 239 94 q 234 90 234 94 m 569 94 q 566 87 569 92 l 569 87 q 576 90 574 90 q 571 94 576 94 l 569 94 m 743 96 l 748 90 q 746 87 746 90 q 785 83 756 83 l 787 83 l 805 96 q 810 92 806 92 l 825 94 l 827 90 l 822 87 l 820 87 l 814 90 q 802 76 812 76 l 802 72 l 807 72 l 817 79 l 820 79 l 820 76 q 810 67 820 73 l 800 67 q 795 72 795 67 l 766 70 l 753 70 q 748 74 748 70 q 758 81 758 77 q 734 85 734 81 q 741 87 739 87 l 741 90 l 739 94 l 743 96 m 249 92 q 254 87 250 87 l 254 92 l 249 92 m 308 90 q 315 81 312 81 l 320 81 l 320 90 q 315 92 315 90 q 308 90 311 90 m 763 94 l 770 94 l 770 90 l 758 90 q 763 94 759 94 m 842 94 l 844 94 l 849 92 l 834 76 q 827 79 829 79 l 827 83 q 842 94 830 83 m 283 90 l 283 85 l 291 85 q 286 90 291 90 l 283 90 m 394 87 l 394 85 l 401 85 l 401 87 l 394 87 m 687 83 l 699 83 l 699 87 l 692 87 q 687 83 687 87 m 591 81 q 593 79 593 81 q 601 81 598 81 l 601 85 l 596 85 q 591 81 591 85 m 675 85 l 675 83 l 680 83 l 680 85 l 675 85 m 613 83 l 613 79 l 616 79 q 621 83 621 79 l 613 83 m 903 83 q 913 81 907 81 l 923 81 l 923 79 l 920 74 l 908 76 l 893 76 q 873 67 884 76 q 869 72 869 67 l 869 74 l 903 83 m 279 74 q 281 65 281 70 q 276 60 276 64 l 298 60 l 296 72 l 291 70 l 288 70 q 283 79 288 79 q 279 74 279 78 m 660 76 l 660 72 l 665 72 l 665 76 l 660 76 m 689 76 l 689 72 l 696 72 q 692 76 696 76 l 689 76 m 734 76 l 739 76 l 739 74 q 734 70 739 70 q 728 74 728 70 l 734 76 m 212 72 l 210 60 l 214 58 l 220 58 l 220 67 q 214 72 220 72 l 212 72 m 234 58 l 229 60 q 224 56 224 60 q 241 45 229 56 q 252 56 244 56 l 252 58 l 247 58 l 249 70 l 244 72 l 241 72 q 234 58 237 72 m 610 70 l 610 67 l 616 67 l 616 70 l 610 70 m 913 72 l 916 67 q 896 63 907 63 l 896 67 q 913 72 903 67 m 151 65 q 161 45 155 45 l 165 45 q 170 50 170 45 l 170 52 q 158 67 161 67 l 155 67 l 151 65 m 689 67 l 689 65 l 694 65 l 694 67 l 689 67 m 188 65 l 188 63 l 193 63 l 193 65 l 188 65 m 709 63 l 709 58 l 711 58 l 711 63 l 709 63 m 817 65 l 825 65 l 825 58 l 822 58 q 817 63 817 58 l 817 65 m 761 63 l 763 58 q 758 54 763 54 l 746 54 l 746 56 q 761 63 748 63 m 837 63 l 842 63 q 846 58 846 62 q 844 56 844 58 q 837 58 840 58 l 837 63 m 807 60 l 807 56 l 802 56 q 807 60 803 60 m 261 56 q 267 52 262 52 l 269 52 l 269 56 l 261 56 m 286 56 l 286 52 l 294 52 l 294 56 l 286 56 m 214 47 l 214 43 q 224 50 224 46 l 220 52 q 214 47 214 51 m 276 52 l 276 50 q 291 43 276 45 l 294 43 l 294 45 q 281 52 288 45 l 276 52 m 134 50 l 134 45 l 138 45 l 138 50 l 134 50 m 261 45 l 261 41 l 264 41 l 264 45 l 261 45 m 296 45 q 300 36 300 39 l 306 36 l 311 38 q 308 45 308 43 l 296 45 m 748 47 q 753 43 753 46 l 753 41 l 748 41 q 743 45 743 41 l 748 47 m 193 41 l 193 29 l 197 29 q 212 38 208 38 q 208 43 212 43 l 193 41 m 241 36 l 241 31 l 244 31 q 252 38 248 31 l 252 43 l 249 43 q 241 36 245 43 m 129 41 l 126 36 q 131 31 127 31 l 134 31 q 138 36 138 31 l 129 41 m 492 41 l 492 36 l 498 36 l 498 41 l 492 41 m 798 43 l 800 38 q 785 34 792 34 l 785 36 q 798 43 785 41 m 613 36 q 623 18 623 22 q 621 16 621 18 l 630 16 l 630 22 q 623 27 623 22 q 628 31 624 31 q 642 18 638 18 l 655 20 l 652 24 q 657 29 653 29 l 662 29 l 662 20 q 672 7 672 20 l 677 9 q 682 5 682 8 l 682 0 l 675 0 q 655 9 655 0 l 648 9 l 640 5 q 623 12 631 12 q 618 7 623 7 q 610 20 610 16 q 613 22 613 20 l 608 22 q 603 18 603 22 q 608 14 608 17 l 606 14 q 591 20 591 16 l 591 24 q 596 29 591 29 l 603 29 l 608 27 q 613 36 608 36 m 739 34 l 743 34 l 743 31 l 739 31 l 739 34 m 182 29 l 182 24 l 185 24 l 185 29 l 182 29 m 495 29 l 495 24 l 503 24 l 503 29 l 495 29 m 873 31 l 876 27 l 871 24 l 869 24 l 869 27 q 873 31 869 31 m 675 29 l 680 29 l 680 24 l 675 24 l 675 29 m 741 27 l 743 27 q 766 7 747 7 l 768 7 q 790 16 779 7 l 798 16 l 798 9 q 785 0 794 9 l 785 2 l 781 0 l 768 2 q 751 0 758 0 l 741 5 l 743 16 l 736 24 l 741 27 m 323 20 q 328 16 323 16 l 330 16 l 330 20 l 323 20 m 347 20 l 347 18 l 353 18 l 353 20 l 347 20 m 271 18 l 276 18 q 286 9 276 15 q 281 5 286 5 l 276 5 q 271 9 271 5 l 271 12 l 274 16 q 271 18 271 16 m 704 16 q 719 12 714 12 q 724 16 720 16 l 728 16 q 736 9 728 9 l 736 5 l 726 5 q 702 14 702 7 q 704 16 704 14 m 252 12 q 256 7 256 11 l 252 5 q 247 9 247 5 l 252 12 m 460 12 l 463 12 l 463 7 l 460 7 l 460 12 m 551 12 l 551 5 l 547 5 l 547 7 q 551 12 547 12 m 814 9 l 817 9 l 817 5 l 814 5 l 814 9 m 837 9 q 854 7 846 7 l 854 5 l 842 2 q 837 7 837 2 l 837 9 m 825 5 l 829 5 l 829 0 q 825 5 825 0 z "},"U":{"ha":862,"x_min":20,"x_max":781,"o":"m 576 235 q 587 232 583 232 l 587 226 l 570 227 q 576 220 570 220 l 583 223 l 593 222 q 600 231 593 231 l 611 231 q 617 224 618 230 q 614 222 614 225 q 634 212 622 222 q 665 217 640 215 l 672 214 l 692 216 q 699 210 699 215 q 720 216 711 216 l 730 203 l 723 201 l 716 204 l 715 198 l 726 198 l 736 203 l 740 203 q 753 197 748 197 l 760 199 q 781 193 771 193 l 781 190 q 766 182 767 189 l 773 182 l 773 178 l 760 179 l 760 185 l 709 186 l 709 184 l 715 175 q 708 170 715 169 l 701 170 l 701 178 q 677 168 685 167 l 667 168 q 646 154 667 160 l 642 154 l 643 165 l 650 165 l 650 168 l 646 168 q 625 163 632 163 l 626 166 q 591 150 591 163 l 594 144 l 591 138 l 604 138 l 604 140 l 611 140 l 611 135 l 632 146 q 648 119 631 119 l 648 125 l 638 125 q 645 130 640 131 l 672 130 l 696 114 q 699 123 699 120 l 706 123 l 706 120 l 703 114 l 706 114 l 716 119 l 716 117 l 713 111 q 743 101 743 106 l 743 98 l 726 102 l 712 99 l 713 102 q 709 99 709 102 q 644 113 644 104 l 641 113 l 641 102 q 657 92 658 100 l 654 92 l 647 96 l 647 90 l 650 83 l 647 84 q 640 93 640 84 l 637 93 l 637 90 q 640 81 640 84 q 636 79 637 81 q 660 63 648 78 l 687 62 l 698 68 q 711 61 697 62 l 711 58 q 707 56 711 56 l 711 50 l 710 38 l 696 35 l 696 39 q 686 33 686 36 l 680 36 l 663 37 l 663 43 l 656 43 l 655 34 q 679 22 655 27 l 679 27 l 682 27 q 686 24 686 27 l 693 27 l 730 26 l 730 20 l 727 20 l 720 23 q 709 15 720 19 q 699 18 703 18 q 671 10 699 12 l 658 14 q 621 9 654 14 q 610 12 614 12 q 528 -3 592 4 l 528 1 l 500 -5 l 494 -1 l 476 -3 q 449 0 473 -3 q 435 -5 435 -1 l 418 -2 l 394 -1 l 374 -3 q 370 0 370 -3 q 302 -3 321 -4 l 295 -1 q 285 -3 288 -3 l 278 0 q 264 -2 272 -3 q 254 1 260 -2 l 247 -2 q 190 15 208 -1 q 186 12 186 15 q 58 48 56 27 q 20 67 49 60 l 20 70 l 38 84 l 41 78 l 41 69 q 54 57 55 69 q 61 63 61 57 l 68 60 l 75 60 q 55 78 60 77 l 55 81 q 79 92 55 87 q 86 85 80 85 l 103 85 l 103 91 q 83 112 83 92 q 90 117 85 117 l 90 111 q 128 125 111 111 l 135 116 q 145 119 142 119 q 122 134 146 130 q 101 129 111 128 l 91 129 l 91 135 q 208 151 189 146 l 208 149 l 215 151 l 218 151 q 224 145 225 150 q 221 142 221 145 l 238 142 l 235 147 l 235 151 q 270 158 269 151 l 239 159 q 222 162 227 159 l 201 160 q 157 165 159 165 q 143 162 151 162 q 134 174 138 174 l 123 169 q 82 179 123 174 q 69 194 83 186 l 69 199 l 80 211 l 80 214 l 73 211 l 73 214 q 135 227 73 220 q 145 223 142 223 l 200 230 q 203 227 203 230 l 221 229 l 235 229 q 241 223 241 228 q 237 220 237 223 q 248 217 241 220 q 279 233 257 234 l 279 231 q 320 235 296 236 q 327 229 321 229 q 334 235 328 235 l 337 234 l 337 231 l 334 226 l 337 226 l 351 237 l 355 237 l 354 234 q 351 225 351 228 l 357 228 l 374 227 q 406 232 375 233 q 412 226 406 226 l 412 235 l 416 235 l 426 229 q 450 236 427 237 l 508 235 q 494 229 508 229 q 498 220 498 223 l 501 220 l 522 234 l 549 233 l 566 229 q 576 235 566 235 m 693 228 l 696 222 l 679 220 l 679 226 q 693 228 681 226 m 556 227 l 555 218 l 559 218 l 559 227 l 556 227 m 607 225 l 607 219 l 610 219 l 610 225 l 607 225 m 635 227 l 648 227 l 648 221 l 634 221 l 635 227 m 484 227 l 484 224 l 491 223 l 491 226 l 484 227 m 279 224 l 279 222 l 292 221 l 292 227 l 289 227 q 279 224 282 224 m 296 227 l 296 224 q 306 221 300 224 l 310 227 l 296 227 m 258 225 l 258 220 q 265 225 265 219 l 258 225 m 173 222 l 172 220 l 180 219 l 180 222 l 173 222 m 695 201 l 695 199 l 702 199 l 702 201 l 695 201 m 709 201 l 709 195 l 712 195 l 712 201 l 709 201 m 145 214 l 145 209 l 152 208 q 145 214 152 214 m 128 212 l 127 210 q 134 203 129 203 l 135 212 l 128 212 m 681 184 l 681 176 l 684 176 q 694 184 689 176 q 691 187 691 184 q 681 184 685 184 m 661 185 l 661 177 l 667 176 l 667 179 q 661 185 667 185 m 42 206 l 56 206 l 56 200 l 42 201 l 42 206 m 100 199 l 100 193 l 103 193 l 104 199 l 100 199 m 647 180 l 646 174 l 650 174 l 650 180 l 647 180 m 722 174 l 728 174 l 728 172 l 722 172 l 722 174 m 560 154 l 563 136 l 566 136 q 574 142 573 136 q 560 154 574 146 m 577 144 l 577 139 l 581 138 l 581 144 l 577 144 m 532 143 q 539 137 534 137 l 543 137 l 543 143 l 532 143 m 669 124 q 665 115 669 121 l 675 115 l 675 118 q 669 124 675 123 m 166 138 l 166 132 l 170 132 q 176 138 176 132 l 166 138 m 64 130 l 71 130 l 70 124 l 63 124 l 64 130 m 166 123 l 165 121 l 173 120 l 173 123 l 166 123 m 545 111 l 545 102 l 548 102 l 549 111 l 545 111 m 606 109 l 606 102 q 620 94 620 101 l 619 85 l 602 85 l 602 77 l 609 79 l 619 79 l 622 64 l 633 64 l 626 76 l 627 85 q 617 109 616 102 l 610 106 q 606 109 610 109 m 73 121 l 73 118 q 66 113 73 112 l 53 113 q 73 121 56 121 m 186 102 q 193 96 186 96 l 196 96 l 196 102 l 186 102 m 69 104 l 76 103 q 69 98 76 98 l 69 104 m 718 75 l 722 75 l 722 70 l 711 70 q 718 75 713 76 m 602 74 l 598 68 l 605 65 l 609 71 l 602 74 m 636 73 l 636 64 l 643 64 q 640 73 640 69 l 636 73 m 653 75 l 656 75 q 663 68 663 74 l 660 68 q 653 75 653 69 m 732 72 l 739 72 l 739 69 l 732 69 l 732 72 m 544 70 q 547 61 547 64 q 557 69 552 61 l 544 70 m 68 80 l 65 75 l 75 68 l 79 68 l 89 74 q 102 71 95 71 l 102 76 l 68 80 m 667 57 q 673 51 667 51 l 673 57 l 667 57 m 694 50 l 704 50 l 704 56 l 701 56 q 694 50 694 55 m 734 49 l 741 45 l 765 47 l 768 42 l 762 39 l 758 39 l 758 45 l 755 45 q 751 37 755 42 l 745 40 l 734 40 l 731 46 q 734 49 734 46 m 718 47 l 728 46 l 727 35 l 724 35 q 718 41 717 35 l 718 47 m 631 41 l 631 32 l 635 32 l 635 41 l 631 41 m 614 38 l 614 33 q 621 26 615 26 l 625 32 l 625 35 q 614 38 621 35 m 645 37 l 645 31 l 648 26 q 644 17 645 20 q 652 22 651 17 l 652 31 q 645 37 652 37 m 737 25 l 747 25 q 751 22 751 25 l 758 24 l 761 24 l 761 19 l 737 20 l 737 25 z "},"V":{"ha":1014,"x_min":20,"x_max":932,"o":"m 821 173 l 821 171 l 824 173 q 825 171 825 173 q 829 172 828 173 q 833 170 831 172 l 842 172 q 848 170 846 172 q 850 171 850 169 l 861 168 l 862 168 l 871 170 q 877 168 873 168 l 880 169 q 884 167 882 167 q 888 168 887 169 l 888 167 q 890 168 890 166 q 906 163 903 165 q 911 165 909 165 l 916 165 q 918 163 918 165 q 922 164 921 164 l 932 161 l 932 157 l 893 151 l 891 153 l 888 151 q 884 153 885 153 q 880 149 884 149 l 879 149 l 875 154 l 869 149 q 856 155 861 149 l 854 155 q 849 146 853 145 l 845 150 q 842 146 844 146 l 838 151 l 829 143 l 827 145 l 824 145 l 819 142 q 817 148 817 142 l 814 148 q 810 140 813 140 l 805 146 q 782 138 804 140 q 777 140 779 140 l 766 140 q 763 144 766 143 q 749 136 763 138 l 749 138 q 737 136 741 135 l 731 138 q 703 134 720 133 l 703 136 l 701 134 q 689 137 699 134 q 681 132 681 135 l 671 134 q 659 133 669 134 l 659 135 q 646 132 656 133 l 643 134 q 641 132 641 134 l 634 134 l 631 135 q 610 130 625 129 l 602 131 l 598 133 q 595 130 597 129 l 593 130 q 592 132 592 130 q 580 126 581 130 l 577 128 q 558 126 564 130 l 555 128 l 541 125 q 538 127 541 127 l 538 123 q 541 121 541 123 l 545 123 q 595 123 554 122 l 601 121 q 615 122 608 123 l 620 121 q 621 119 621 121 l 625 121 l 627 119 l 634 121 l 634 119 l 637 121 l 645 118 l 652 119 q 661 117 660 117 q 666 119 664 119 l 669 117 q 673 118 671 118 l 679 116 q 684 117 682 117 l 686 115 q 688 117 688 115 l 695 115 l 703 116 l 705 114 l 708 116 l 714 113 q 719 115 718 115 q 720 113 720 115 l 731 114 l 753 113 q 754 111 754 113 l 758 113 l 759 113 q 762 108 762 111 l 764 110 l 781 109 l 789 106 q 797 108 792 108 q 813 104 810 105 q 807 99 813 102 q 805 101 805 99 l 798 100 l 791 100 q 789 102 789 100 q 776 99 787 100 q 774 105 774 103 q 760 98 764 98 q 748 103 755 99 q 746 97 748 101 q 737 102 737 99 l 734 100 l 731 102 q 728 98 731 98 l 724 99 q 722 103 722 99 q 722 105 722 103 l 720 105 q 717 98 720 97 l 713 102 l 711 102 l 711 96 l 708 96 q 706 98 706 96 q 693 95 703 96 l 691 99 q 675 96 685 96 q 673 98 675 98 q 662 93 673 94 q 659 101 659 98 q 645 94 649 94 q 644 96 644 94 l 637 95 l 634 95 l 626 98 l 626 96 q 627 90 627 92 q 647 92 629 92 l 650 90 l 652 92 q 654 90 654 92 l 691 91 l 694 89 q 699 91 697 91 l 699 89 l 701 90 q 703 88 703 90 l 710 90 l 728 89 q 730 87 730 89 l 736 90 l 745 87 q 751 89 749 87 q 758 87 754 87 l 759 87 q 765 88 762 86 l 778 83 l 786 87 l 795 84 l 798 84 l 797 82 l 796 78 l 788 81 l 784 77 l 782 81 l 779 79 q 778 81 778 79 l 772 78 l 764 81 l 759 77 l 749 83 q 742 78 749 77 q 740 82 743 82 q 736 76 739 76 q 734 81 736 80 q 729 75 733 77 l 726 75 l 718 77 q 715 74 718 73 q 708 82 715 74 q 699 75 708 79 l 696 77 q 688 74 691 73 q 682 76 684 74 q 665 73 675 73 l 659 75 q 648 71 659 72 l 646 73 q 638 69 641 69 q 637 77 637 73 l 635 77 q 619 68 635 71 q 613 71 616 71 q 610 67 613 67 q 607 71 610 71 l 606 71 q 595 64 595 66 l 592 66 q 583 63 586 63 q 576 67 578 67 q 555 61 576 62 q 553 59 555 59 l 551 61 q 543 58 546 58 q 541 62 543 62 q 521 54 540 59 l 516 58 q 492 52 516 53 l 486 54 q 453 46 485 50 l 453 44 q 470 41 462 43 q 476 43 472 43 l 479 41 q 480 43 480 41 l 487 40 l 502 39 l 511 37 q 513 38 513 36 l 523 35 l 545 34 l 559 31 l 559 27 l 541 28 q 524 26 538 28 l 523 26 l 518 30 l 513 26 l 512 26 q 509 33 512 33 q 482 24 509 24 l 477 29 q 472 23 477 26 q 471 25 471 23 l 463 24 l 460 24 q 458 26 458 24 l 451 22 q 450 24 450 23 q 430 22 434 23 l 425 26 q 421 22 425 22 l 420 23 l 417 25 q 414 21 416 21 l 396 22 q 383 20 393 22 l 375 22 l 370 20 q 366 22 367 22 l 357 21 q 353 23 356 21 l 310 20 l 303 23 q 259 22 296 23 l 256 24 q 203 20 243 22 q 202 22 202 20 q 117 18 166 17 q 87 22 104 20 l 69 23 q 20 36 20 30 q 74 44 21 41 q 238 63 142 50 l 238 64 l 219 70 q 204 65 208 69 q 193 70 203 65 l 184 71 q 153 77 153 73 l 150 75 l 145 75 q 144 77 144 75 l 141 75 l 138 77 q 135 76 135 77 l 117 79 l 81 81 q 78 85 78 81 l 78 90 q 277 115 180 106 q 279 117 277 117 l 287 115 q 291 117 290 117 q 287 121 291 120 q 267 116 273 121 q 233 128 265 122 q 208 136 234 130 q 201 134 204 134 q 88 161 98 157 l 88 163 q 179 170 102 168 l 179 168 q 307 174 202 170 q 319 172 313 172 q 382 175 342 178 l 393 178 l 397 178 q 398 176 399 178 l 402 178 l 410 175 q 420 178 416 179 q 424 174 424 176 q 431 178 429 178 q 439 176 436 178 q 495 178 493 176 l 498 175 q 515 176 509 176 l 518 174 q 538 176 525 175 q 542 174 541 174 l 545 176 l 553 172 q 555 176 553 176 l 569 174 l 576 176 q 579 172 576 172 q 591 175 585 176 l 604 174 q 610 172 608 174 q 619 175 615 175 l 622 173 q 627 174 625 174 l 627 172 l 638 176 q 648 173 644 173 l 658 174 q 669 172 663 172 q 674 173 671 172 l 677 171 q 682 175 681 173 l 689 172 l 692 172 l 699 174 l 699 172 l 703 173 l 714 172 l 724 174 l 724 172 l 727 174 q 729 172 729 174 q 749 174 731 174 l 749 172 l 753 174 l 762 173 q 763 171 763 173 q 788 174 764 173 l 791 171 l 800 172 l 803 172 q 804 170 804 172 q 821 173 807 172 m 522 132 q 517 127 521 130 l 515 127 l 512 129 l 510 125 l 510 123 l 512 123 q 518 125 515 123 q 522 122 521 123 l 536 123 l 537 125 q 534 130 537 130 l 530 126 l 527 126 l 522 132 m 490 125 q 486 127 487 127 l 486 123 l 490 123 q 495 124 493 122 q 500 122 498 122 q 504 123 503 123 q 502 127 505 127 q 490 125 495 128 m 477 125 l 477 121 l 479 121 q 482 125 482 121 l 477 125 m 818 104 l 827 104 l 826 100 l 817 100 l 818 104 m 297 120 l 296 118 l 304 117 l 304 119 l 297 120 m 600 96 l 600 92 l 612 91 l 612 94 l 606 93 l 600 96 m 614 94 l 614 92 l 617 92 l 617 94 l 614 94 m 670 81 l 670 77 l 671 77 l 671 81 l 670 81 m 241 66 l 241 64 l 247 64 l 247 66 l 241 66 m 249 66 l 249 64 l 252 64 l 252 66 l 249 66 z "},"W":{"ha":1314,"x_min":20,"x_max":1233,"o":"m 677 186 q 690 180 690 184 q 713 186 704 182 l 718 184 l 722 186 l 727 184 l 731 186 q 739 182 739 184 l 750 184 q 762 182 758 184 l 776 184 l 785 184 q 789 180 789 183 l 783 175 l 778 177 q 771 175 774 175 l 771 172 q 794 165 771 165 q 802 168 799 168 l 802 165 l 806 168 l 808 168 q 823 156 816 156 q 834 168 823 159 l 839 168 l 848 161 l 848 170 l 850 170 l 857 165 l 862 165 q 878 172 872 172 l 880 168 l 892 170 l 895 170 q 897 168 897 170 l 901 170 q 935 161 909 170 l 941 161 l 951 172 q 964 161 951 170 q 983 168 970 165 q 990 163 983 163 l 995 165 l 1000 163 q 1023 168 1019 168 q 1039 159 1027 159 l 1044 165 l 1055 163 l 1058 163 l 1063 165 q 1069 156 1063 156 q 1095 165 1076 160 q 1104 177 1101 177 l 1116 156 q 1130 161 1124 161 l 1135 161 q 1156 151 1143 151 q 1170 161 1170 155 l 1188 161 q 1219 154 1197 154 l 1219 149 q 1191 144 1202 144 l 1179 147 l 1179 140 l 1177 140 l 1170 144 l 1167 144 q 1165 142 1165 144 l 1146 147 q 1141 142 1146 142 l 1130 142 l 1130 135 q 1146 128 1146 134 l 1146 126 l 1144 126 q 1141 128 1141 126 q 1128 126 1138 126 q 1144 102 1128 117 l 1139 100 q 1116 110 1127 100 l 1114 110 l 1116 94 l 1093 94 q 1088 86 1088 94 l 1084 86 l 1084 91 l 1074 91 q 1050 96 1069 91 q 1032 94 1038 94 l 1032 91 q 1042 86 1042 91 l 1042 84 l 1037 84 l 1027 91 l 1023 91 l 1025 86 l 1025 84 l 1009 84 q 1000 98 1006 84 q 1004 100 1004 98 l 1016 98 l 1021 98 q 1016 102 1021 102 l 997 102 l 1000 98 q 988 91 996 98 l 990 86 l 990 84 l 985 84 q 979 86 979 84 q 937 81 944 81 l 937 84 l 932 81 q 930 84 930 81 l 885 79 l 885 81 l 880 79 l 857 79 l 843 81 q 823 75 823 79 q 825 73 825 75 l 823 73 q 815 79 819 73 l 804 77 l 802 77 q 792 79 796 77 q 727 73 772 75 l 727 75 l 722 73 q 713 75 717 73 q 706 73 708 73 l 696 75 l 687 70 q 680 73 682 73 q 677 70 680 70 q 685 56 681 56 l 687 56 l 687 58 q 685 65 685 63 l 687 65 q 696 56 693 56 l 696 52 l 694 52 l 690 54 q 680 52 686 52 l 680 47 q 685 35 685 41 l 687 35 q 692 39 692 35 q 690 42 690 39 l 694 44 l 699 44 l 706 39 l 708 39 l 708 44 q 696 56 702 56 l 699 60 l 703 58 q 711 60 708 60 q 713 58 711 58 q 722 68 713 62 l 727 68 q 734 42 734 56 l 736 42 q 741 60 741 60 l 736 60 l 736 63 q 741 68 736 68 q 750 54 746 54 q 755 58 751 58 q 748 65 755 65 l 748 70 l 755 70 q 764 58 761 58 q 771 56 764 56 l 771 60 l 773 60 l 776 49 q 766 44 770 44 l 766 42 q 781 37 775 42 q 785 44 783 44 l 783 49 l 783 54 q 789 60 783 57 q 794 47 794 53 q 792 44 792 47 l 799 39 l 804 39 l 804 42 l 799 49 l 799 54 q 806 60 799 57 q 808 54 808 56 l 813 56 l 820 52 l 825 52 l 831 56 l 834 56 q 864 23 834 41 q 871 42 871 41 l 867 44 q 857 35 857 44 q 843 47 848 47 l 843 52 q 862 47 860 47 q 873 49 865 49 q 895 28 887 29 l 895 33 q 880 47 895 35 l 885 49 l 888 49 q 901 35 889 49 l 909 39 l 913 37 q 932 44 921 37 l 937 44 l 937 39 l 927 37 l 927 35 l 935 26 l 932 21 l 937 19 q 941 23 937 23 l 948 14 q 935 5 946 14 l 925 7 q 906 2 916 2 q 888 7 904 2 l 873 7 q 869 2 869 6 q 850 16 861 5 q 846 9 846 16 l 829 12 l 823 12 l 823 9 q 825 2 825 5 l 823 2 q 797 14 812 14 l 794 9 l 773 14 q 752 5 763 14 l 750 5 l 750 7 l 755 14 q 741 19 748 14 q 734 7 741 15 l 734 5 l 699 5 q 696 14 699 10 l 692 12 l 690 12 q 675 16 683 12 q 669 14 671 14 q 666 16 669 16 l 664 12 q 666 9 666 12 l 661 7 q 656 14 661 14 l 645 5 l 643 5 q 638 9 638 5 q 645 12 643 12 l 645 14 l 622 16 q 612 7 612 10 l 608 7 q 596 19 606 7 l 594 19 l 587 14 l 566 14 q 562 7 562 14 l 547 7 l 547 12 l 549 12 l 554 9 l 554 12 q 545 19 554 18 q 522 7 522 12 q 496 14 513 14 q 489 12 494 14 q 482 16 482 14 l 477 14 l 468 14 q 466 16 466 14 q 463 14 463 16 q 450 19 450 16 l 445 16 l 440 19 l 429 16 q 408 21 412 19 q 400 16 400 19 q 393 19 398 16 l 372 16 q 354 19 370 16 l 340 16 l 340 19 l 335 16 q 333 19 333 16 l 328 16 l 275 16 l 267 21 q 260 14 267 18 l 249 14 l 242 19 q 239 16 242 16 q 233 21 239 21 q 226 16 226 19 q 218 19 223 16 l 174 14 q 172 16 172 14 l 149 14 l 121 14 l 109 16 q 79 9 109 9 l 77 9 l 77 26 l 74 26 q 53 12 74 14 q 46 19 53 15 l 43 19 l 32 16 l 25 26 q 48 52 39 44 l 48 56 l 43 54 l 41 54 q 37 58 37 54 l 37 60 q 41 65 37 65 q 62 58 41 61 q 64 56 62 56 l 72 56 q 90 63 77 60 q 95 58 91 58 q 97 65 95 61 l 93 77 l 100 81 q 109 77 105 77 l 109 75 l 106 70 l 111 70 l 127 73 q 132 68 128 68 q 146 79 132 79 q 149 77 146 77 l 149 81 l 151 81 q 155 73 155 81 l 163 73 q 172 75 168 73 l 176 73 q 184 75 181 75 q 189 70 184 70 q 197 79 189 73 l 202 79 q 205 77 205 79 l 228 86 l 233 84 q 242 86 237 86 q 244 84 244 86 l 258 91 l 260 91 l 267 86 q 283 94 276 94 l 283 89 l 296 91 l 293 96 l 298 98 q 300 91 300 94 q 317 100 313 100 q 328 89 328 99 l 335 94 l 333 98 l 333 100 q 342 98 338 100 q 349 100 347 100 q 354 96 350 96 q 358 100 355 100 q 361 98 358 98 l 361 102 l 368 102 q 372 96 372 102 l 377 96 l 377 98 q 375 105 375 102 l 384 105 q 389 100 389 104 q 403 110 391 100 q 410 100 406 100 q 419 114 410 105 q 412 121 416 114 l 400 119 l 393 119 l 387 123 q 382 119 387 119 l 375 119 q 358 123 358 119 l 354 121 l 349 121 q 347 123 347 121 l 342 121 l 321 123 l 317 121 q 314 123 314 121 l 302 121 l 275 121 q 249 119 264 121 l 244 121 q 235 119 240 119 l 228 119 l 228 123 l 223 123 q 216 117 223 119 l 202 119 q 184 117 186 117 l 181 121 l 170 117 l 165 119 l 151 117 l 144 117 l 144 121 q 163 126 148 121 q 170 123 167 123 l 168 128 q 170 131 170 128 l 146 128 l 144 128 l 139 131 q 127 121 139 121 q 121 131 124 121 q 139 138 130 131 l 144 138 l 149 135 l 149 140 l 153 138 l 176 138 l 176 147 l 181 147 q 184 138 181 142 q 191 140 188 140 l 191 144 l 186 144 l 186 149 l 189 149 l 197 142 l 202 142 l 202 147 q 195 165 195 157 q 205 170 199 165 q 216 163 216 165 q 246 168 227 168 l 249 168 q 254 161 254 168 l 256 161 l 256 165 l 258 165 l 263 163 q 267 170 263 170 l 300 170 q 309 175 306 175 q 317 170 317 172 l 328 172 l 354 172 l 370 175 l 370 170 q 391 177 385 177 l 395 175 q 405 177 399 177 q 408 175 408 177 l 412 177 l 414 177 q 424 175 420 177 q 433 177 428 177 l 437 177 q 440 175 440 177 q 496 182 446 179 q 498 175 498 177 l 505 180 l 512 180 l 526 177 q 543 180 528 180 l 543 175 l 545 175 l 554 182 l 559 180 q 568 182 563 182 q 570 180 568 180 q 573 182 570 182 l 575 177 q 573 175 575 175 l 575 163 l 573 154 l 578 151 l 580 151 q 591 168 580 156 q 603 161 603 165 q 615 168 615 164 l 615 170 q 610 172 610 170 q 594 168 598 168 l 594 172 l 599 172 l 599 175 q 580 182 580 177 q 582 184 582 182 q 622 170 605 182 l 612 159 l 612 156 l 615 156 l 619 159 q 624 154 621 154 q 631 170 624 159 q 612 177 625 177 q 622 184 612 180 q 631 175 631 182 l 636 175 q 640 184 636 184 l 645 184 l 652 180 l 654 180 q 677 186 660 184 m 841 186 q 848 182 848 184 l 841 170 q 823 182 829 170 l 841 186 m 901 186 l 909 186 l 909 182 l 901 182 l 901 186 m 804 184 l 808 184 l 813 182 q 810 175 810 177 q 804 177 806 177 l 804 184 m 876 184 l 883 184 l 888 182 q 890 184 888 184 l 892 180 q 890 177 890 180 q 892 175 892 177 q 890 172 890 175 q 876 182 876 177 l 876 184 m 943 184 l 948 184 q 953 180 953 183 l 953 177 l 951 177 q 943 180 946 180 l 943 184 m 983 184 l 990 184 q 992 182 992 184 l 997 184 l 1000 184 l 1000 182 q 992 175 1000 178 q 983 180 992 180 l 983 184 m 1021 184 l 1029 184 l 1029 180 l 1021 180 l 1021 184 m 682 180 q 664 172 681 172 l 664 175 q 645 168 656 175 q 636 170 641 170 l 636 163 q 640 159 637 159 q 643 165 640 161 q 666 161 662 163 q 669 163 666 163 q 675 156 669 160 l 675 159 l 673 163 q 675 170 675 168 q 692 156 692 164 q 703 154 699 156 l 708 161 q 692 175 696 161 q 682 180 688 175 m 745 180 q 736 170 745 174 l 720 170 l 720 165 l 724 168 l 734 159 l 736 159 l 739 168 q 762 163 755 163 l 766 170 l 766 172 q 752 180 760 172 l 745 180 m 836 180 l 836 177 l 843 177 l 843 180 l 836 180 m 860 182 l 862 182 q 867 177 867 181 l 867 175 l 860 175 q 855 180 855 175 l 860 182 m 549 172 l 549 170 l 552 170 q 557 175 557 170 l 557 177 l 554 177 q 549 172 549 176 m 559 177 l 559 175 q 564 170 559 170 l 566 175 l 562 177 l 559 177 m 972 180 l 976 180 l 976 177 q 972 172 976 172 q 967 177 967 172 l 972 180 m 925 177 l 932 177 q 941 168 935 177 l 935 163 q 925 172 930 172 l 925 177 m 132 175 l 139 175 q 144 165 139 165 l 149 168 q 176 156 176 161 l 172 156 l 168 159 q 160 147 168 155 q 151 140 160 143 q 149 149 151 149 q 142 147 144 147 q 139 149 142 149 q 137 138 137 145 l 134 138 q 132 140 132 138 q 97 133 123 134 l 97 138 q 111 149 111 142 q 109 159 109 153 l 109 161 q 123 168 115 161 q 132 175 132 168 m 475 172 q 479 168 475 168 l 482 172 l 475 172 m 496 172 l 496 163 q 503 156 496 160 l 503 163 q 498 172 498 169 l 496 172 m 507 172 l 507 163 l 522 163 l 522 165 q 515 172 515 165 l 507 172 m 575 175 l 580 175 l 580 170 l 575 170 l 575 175 m 405 170 l 405 168 q 410 159 410 162 l 414 159 l 412 170 l 405 170 m 454 170 q 463 163 454 167 l 463 170 l 454 170 m 699 170 l 699 168 q 708 163 703 168 l 711 163 l 711 165 q 706 170 711 170 l 699 170 m 340 168 q 335 161 340 161 l 333 161 l 328 163 q 321 159 328 159 q 338 144 321 151 q 356 151 338 151 l 356 156 q 351 161 356 161 l 347 161 l 347 156 q 342 168 342 156 l 340 168 m 358 168 q 370 154 366 154 q 377 156 374 156 l 375 151 l 382 151 l 389 156 q 393 147 393 156 q 398 151 398 147 q 375 165 398 164 l 370 163 q 358 168 362 168 m 433 163 l 433 161 l 445 161 q 442 168 442 165 q 433 163 437 163 m 536 168 q 545 151 545 159 l 547 151 q 564 161 547 159 l 564 163 q 559 168 564 168 q 549 165 553 168 q 541 168 545 168 l 536 168 m 421 165 l 421 161 l 429 161 q 424 165 429 165 l 421 165 m 468 165 q 475 159 468 162 q 482 163 475 163 l 482 165 l 468 165 m 484 165 l 484 163 l 489 163 l 489 165 l 484 165 m 121 163 q 125 159 121 159 l 125 163 l 121 163 m 228 163 q 218 151 228 154 l 218 156 q 214 151 214 155 q 216 149 216 151 l 209 149 l 209 144 l 221 142 q 228 144 223 142 q 230 142 230 144 l 242 144 l 249 144 l 249 147 q 237 163 241 163 l 237 154 l 235 154 q 230 163 230 154 l 228 163 m 307 163 l 307 161 l 312 161 l 312 163 l 307 163 m 794 163 l 794 161 l 799 161 l 799 163 l 794 163 m 831 163 l 831 159 l 836 159 l 836 163 l 831 163 m 184 163 l 189 163 q 193 159 193 163 l 193 156 q 184 151 189 156 l 179 159 q 184 163 180 163 m 263 161 l 258 154 q 286 147 271 147 q 298 159 286 149 l 277 161 q 272 156 277 156 l 270 156 l 263 161 m 680 161 l 680 156 l 687 156 q 682 161 687 161 l 680 161 m 713 161 l 711 156 l 711 154 l 713 154 q 718 159 713 159 l 718 161 l 713 161 m 302 149 l 302 147 l 317 149 l 314 154 l 317 159 l 312 159 q 302 149 308 159 m 477 159 l 477 154 q 482 149 478 149 q 484 151 482 151 q 482 159 482 156 l 477 159 m 524 154 l 526 154 q 531 159 531 154 l 528 159 q 524 154 524 158 m 589 159 l 589 154 q 594 159 594 154 l 589 159 m 102 159 q 106 149 102 155 q 102 144 106 144 q 95 151 98 144 q 102 159 95 155 m 424 156 q 429 151 425 151 l 429 156 l 424 156 m 461 156 q 473 149 461 151 l 473 151 q 468 156 473 156 l 461 156 m 85 156 l 88 156 l 88 151 l 85 151 l 85 156 m 254 154 l 254 147 l 256 147 l 256 154 l 254 154 m 440 151 l 440 147 l 445 147 q 440 151 445 151 m 447 151 l 447 147 l 450 147 l 450 151 l 447 151 m 382 149 l 382 147 l 389 147 l 389 149 l 382 149 m 680 149 l 680 144 l 685 144 q 680 149 685 149 m 1097 147 q 1093 140 1097 140 q 1100 131 1096 131 q 1104 142 1100 142 l 1107 142 l 1107 147 l 1097 147 m 1112 147 l 1112 142 q 1116 140 1116 142 q 1123 142 1120 142 l 1123 144 l 1112 147 m 328 138 q 333 133 329 133 l 333 138 l 328 138 m 1107 135 l 1107 131 l 1109 131 l 1109 135 l 1107 135 m 1154 138 l 1165 138 l 1165 131 l 1160 131 q 1154 138 1157 131 m 1079 133 q 1067 126 1079 127 l 1069 114 q 1067 112 1067 114 l 1072 112 q 1084 131 1081 112 l 1079 133 m 675 131 l 675 128 l 680 128 l 680 131 l 675 131 m 916 126 l 927 126 l 927 131 l 920 131 q 916 126 916 130 m 762 128 l 762 126 l 766 126 l 766 128 l 762 128 m 1027 128 l 1029 123 l 1029 121 q 1009 110 1022 121 l 1011 110 q 1021 112 1013 110 l 1025 110 q 1034 112 1029 112 q 1037 105 1037 107 l 1042 105 l 1042 107 q 1032 123 1042 115 q 1039 126 1037 126 l 1039 128 l 1027 128 m 1048 128 l 1048 126 l 1053 126 l 1053 128 l 1048 128 m 1102 126 l 1102 123 l 1112 123 l 1109 128 q 1102 126 1105 126 m 1188 131 q 1198 128 1192 128 l 1198 123 q 1191 119 1191 123 l 1181 119 l 1181 121 l 1188 131 m 494 121 l 494 117 l 510 117 l 515 119 l 517 114 q 515 112 515 114 l 524 110 l 522 114 q 526 119 522 119 l 531 117 l 533 121 l 533 123 q 526 126 526 123 q 494 121 524 124 m 650 126 l 650 123 l 654 123 l 654 126 l 650 126 m 552 123 l 552 119 l 554 119 l 554 123 l 552 123 m 557 123 q 562 119 557 119 l 562 123 l 557 123 m 426 121 l 421 114 l 421 112 l 437 112 l 442 110 q 445 117 445 114 l 456 114 q 470 117 469 117 l 473 112 l 482 117 q 484 114 482 114 l 482 110 l 482 107 l 489 107 q 491 121 489 118 l 440 121 l 429 119 q 426 121 429 121 m 545 121 l 545 117 l 549 117 l 549 121 l 545 121 m 736 121 l 741 114 l 739 110 l 741 110 q 745 114 745 110 l 743 114 l 745 119 l 745 121 l 736 121 m 922 121 q 930 112 926 112 q 935 117 935 112 l 935 121 l 922 121 m 943 121 l 943 119 l 955 119 l 955 121 l 943 121 m 1151 123 l 1165 123 l 1165 107 q 1183 114 1177 114 q 1209 110 1197 114 l 1223 114 q 1233 107 1233 111 q 1228 102 1233 102 l 1225 102 q 1223 105 1223 102 l 1212 100 l 1207 102 q 1204 100 1204 102 l 1193 102 l 1186 102 q 1181 112 1186 112 q 1179 110 1181 110 l 1181 105 q 1177 100 1181 100 l 1165 102 l 1165 96 l 1177 98 l 1177 96 q 1172 91 1177 91 q 1170 94 1170 91 l 1165 91 l 1162 91 q 1146 110 1149 110 l 1146 112 q 1154 117 1146 117 l 1151 121 l 1151 123 m 718 119 l 718 114 l 722 114 l 722 119 l 718 119 m 771 114 l 771 112 l 773 112 q 778 117 778 112 l 778 119 l 776 119 q 771 114 771 118 m 808 119 q 802 112 808 112 q 806 107 802 107 l 813 107 q 815 117 813 113 l 810 119 l 808 119 m 1095 119 l 1095 117 l 1102 117 l 1102 119 l 1095 119 m 1104 119 l 1104 117 l 1109 117 l 1109 119 l 1104 119 m 622 117 q 617 112 622 112 q 615 114 617 114 l 612 110 l 627 110 l 627 112 q 622 117 627 117 m 631 114 q 636 110 632 110 q 640 114 640 110 q 638 117 638 114 q 631 114 633 114 m 643 117 q 656 105 643 114 q 659 114 656 110 l 643 117 m 675 117 l 675 114 l 682 114 l 682 117 l 675 117 m 685 112 q 687 105 687 107 l 692 105 l 690 110 q 692 117 692 114 l 690 117 q 685 112 685 116 m 878 114 l 878 112 l 895 107 l 901 117 l 897 117 q 878 114 895 117 m 913 117 q 911 112 913 112 q 913 105 913 107 l 918 105 q 920 112 918 107 l 913 117 m 699 114 l 699 112 l 711 110 l 711 114 l 699 114 m 964 114 l 964 112 l 972 112 l 972 114 l 964 114 m 979 114 l 979 112 l 985 112 l 985 114 l 979 114 m 578 112 l 578 110 l 582 110 l 582 112 l 578 112 m 836 112 q 841 107 837 107 l 848 107 l 848 112 l 836 112 m 557 110 l 557 102 q 562 98 557 98 l 564 98 l 564 100 q 559 110 559 106 l 557 110 m 636 107 l 636 105 q 640 100 637 100 q 648 105 640 105 l 648 110 q 636 107 644 107 m 671 110 l 671 107 l 675 107 l 675 110 l 671 110 m 785 110 l 785 107 l 789 107 l 789 110 l 785 110 m 794 110 l 794 107 l 799 107 l 799 110 l 794 110 m 440 107 l 440 105 l 445 105 l 445 107 l 440 107 m 543 107 l 543 105 l 547 105 l 547 107 l 543 107 m 731 102 l 734 102 q 739 107 739 102 l 736 107 q 731 102 731 106 m 608 98 l 627 98 l 622 105 q 608 98 608 102 m 706 105 l 706 100 l 711 100 l 711 105 l 706 105 m 1027 102 l 1027 100 l 1032 100 l 1032 102 l 1027 102 m 543 100 l 543 96 l 547 96 q 543 100 547 100 m 925 100 l 925 98 l 930 98 l 930 100 l 925 100 m 366 96 l 366 91 l 368 91 l 368 96 l 366 96 m 531 91 l 541 91 l 541 96 l 536 96 q 531 91 531 95 m 687 96 l 687 86 l 690 86 l 690 96 l 687 96 m 1121 96 l 1125 96 l 1125 91 l 1121 91 l 1121 96 m 317 91 l 317 86 l 319 86 l 319 91 l 317 91 m 372 91 l 372 89 l 379 89 l 379 91 l 372 91 m 1013 91 l 1013 86 l 1016 86 l 1016 91 l 1013 91 m 1137 94 l 1139 94 l 1139 89 l 1133 89 q 1137 94 1133 94 m 338 84 l 338 81 l 345 81 q 354 84 349 84 l 354 89 l 349 89 q 338 84 343 84 m 463 89 l 463 84 l 468 84 l 468 89 l 463 89 m 1053 91 l 1058 91 l 1058 86 l 1053 86 l 1053 91 m 137 89 l 139 84 l 139 81 l 137 81 q 132 86 132 81 l 137 89 m 277 86 l 275 81 l 279 79 l 281 79 l 281 81 q 277 86 281 86 m 312 86 l 312 81 l 314 81 l 314 86 l 312 86 m 116 84 l 121 84 q 116 79 121 79 l 116 84 m 254 79 l 254 75 l 258 75 q 254 79 258 79 m 307 77 l 307 75 l 319 75 q 323 79 323 75 l 319 79 l 307 77 m 139 75 q 142 68 142 70 q 153 70 145 70 q 149 75 153 75 l 139 75 m 228 75 l 228 73 q 233 68 233 73 l 235 68 l 235 73 l 230 75 l 228 75 m 244 75 q 249 70 245 70 l 249 75 l 244 75 m 193 70 q 197 65 193 65 l 197 70 l 193 70 m 654 70 l 654 63 l 659 65 q 661 58 661 61 l 669 63 l 671 63 l 675 60 l 675 70 l 654 70 m 610 68 l 608 63 q 617 58 617 63 q 615 56 615 58 q 619 52 619 55 l 619 39 l 624 39 q 638 52 638 47 l 636 63 q 638 65 638 63 l 633 68 l 624 68 l 612 65 q 610 68 612 68 m 640 68 l 640 60 l 645 60 l 645 68 l 640 68 m 596 65 l 596 63 l 601 63 l 601 65 l 596 65 m 622 63 l 624 63 q 631 60 629 60 l 631 58 q 627 54 631 54 q 622 58 622 54 l 622 63 m 720 60 l 718 56 l 718 54 l 722 54 q 727 58 727 54 q 720 60 724 58 m 573 58 l 573 49 l 580 44 q 587 52 583 44 q 582 58 582 52 l 573 58 m 603 56 q 601 49 603 54 l 606 47 l 612 47 l 612 56 l 603 56 m 661 56 q 652 52 661 52 q 675 37 652 49 l 675 39 q 669 56 669 54 l 661 56 m 507 54 l 507 52 q 512 47 509 47 l 512 49 q 507 54 512 54 m 541 54 l 541 49 q 545 54 545 49 l 541 54 m 408 52 l 408 42 q 412 37 408 37 l 416 37 l 416 44 q 410 52 410 44 l 408 52 m 808 52 l 808 49 l 813 49 l 813 52 l 808 52 m 447 49 q 452 44 448 44 l 456 44 l 456 49 l 447 49 m 715 47 l 715 44 l 727 44 l 727 47 q 722 49 722 47 q 715 47 718 47 m 233 47 l 233 42 l 235 42 l 235 47 l 233 47 m 810 47 l 810 44 q 815 39 811 39 q 823 42 820 42 q 827 37 823 37 l 829 47 l 825 47 l 813 44 q 810 47 813 47 m 909 49 q 916 47 913 47 l 916 42 l 911 42 q 906 47 906 42 q 909 49 909 47 m 314 44 l 314 42 l 319 42 l 319 44 l 314 44 m 557 42 l 557 37 l 562 37 l 562 42 l 557 42 m 570 42 q 575 37 571 37 l 575 42 l 570 42 m 948 44 l 962 44 l 962 39 l 948 39 l 948 44 m 768 39 l 768 35 l 771 35 l 771 39 l 768 39 m 1000 42 l 1002 42 l 1002 37 l 1000 37 l 1000 42 m 20 39 l 22 39 q 27 35 27 39 l 27 33 l 25 33 q 20 37 20 33 l 20 39 m 267 37 l 270 33 q 279 35 274 35 l 279 37 l 267 37 m 794 37 l 794 35 l 799 35 l 799 37 l 794 37 m 246 35 l 246 31 l 251 31 l 251 35 l 246 35 m 433 35 l 433 33 l 437 33 l 437 35 l 433 35 m 442 35 l 442 33 l 447 33 l 447 35 l 442 35 m 831 28 q 836 19 836 28 l 841 19 l 839 35 q 831 28 836 35 m 983 37 l 985 37 l 985 33 q 983 31 985 31 l 985 26 l 985 23 l 983 23 q 979 28 979 23 q 967 23 971 23 l 967 19 q 985 12 970 19 l 985 9 q 981 5 985 5 q 979 12 979 9 q 958 7 972 12 l 955 12 q 964 19 955 18 l 964 23 q 948 26 958 23 l 948 28 q 953 33 949 33 l 962 33 l 962 28 q 983 37 972 28 m 762 31 l 762 28 l 766 28 l 766 31 l 762 31 m 794 31 l 794 23 q 799 28 799 23 l 799 31 l 794 31 m 1009 31 l 1009 23 q 992 21 1002 23 l 992 23 q 1009 31 992 28 m 1018 31 l 1025 31 q 1029 26 1029 30 l 1029 23 l 1023 23 q 1018 28 1018 23 l 1018 31 m 685 26 l 687 14 q 696 16 691 16 l 696 19 q 690 26 690 19 l 685 26 m 846 26 l 846 21 l 848 21 l 848 26 l 846 26 m 883 26 l 883 21 l 888 21 l 888 26 l 883 26 m 1037 28 q 1048 23 1048 27 l 1053 26 l 1058 26 l 1058 21 l 1042 21 q 1037 26 1037 21 l 1037 28 m 90 19 q 95 14 91 14 l 95 19 l 90 19 m 888 19 l 888 14 q 897 16 892 16 l 897 19 l 888 19 m 1006 16 l 1011 16 l 1011 12 l 1006 12 l 1006 16 m 831 5 l 836 5 l 836 0 l 831 0 l 831 5 z "},"X":{"ha":923,"x_min":20,"x_max":842,"o":"m 635 157 q 652 148 635 153 q 674 155 652 153 l 677 149 l 676 140 l 671 141 l 671 149 q 664 147 667 147 l 663 138 l 666 132 l 661 130 l 639 146 l 639 143 q 641 132 642 138 l 639 132 q 634 140 634 132 q 621 127 631 140 q 616 133 621 132 l 609 127 l 602 128 l 597 131 l 594 125 q 580 135 579 127 l 577 136 l 576 127 l 564 130 l 557 125 l 552 125 l 545 132 q 540 126 545 126 l 535 130 q 525 127 530 127 l 520 130 q 513 128 515 127 q 510 131 513 131 q 505 125 510 125 q 503 129 503 125 q 488 124 493 123 q 484 130 488 130 q 478 125 478 130 l 473 127 q 458 125 471 127 q 456 129 456 126 l 419 125 l 419 128 q 380 122 397 126 l 375 125 l 360 123 l 357 130 l 296 122 l 290 122 q 283 125 283 123 q 244 122 250 124 q 235 126 239 125 q 215 124 232 126 l 215 127 l 210 125 l 180 127 q 151 146 151 128 q 172 153 157 150 q 181 149 176 150 l 186 152 q 189 149 189 152 l 218 153 q 220 150 220 153 l 253 153 l 253 151 q 300 153 253 153 q 302 151 300 151 q 307 156 303 156 l 315 155 q 317 153 317 155 l 321 155 l 325 155 q 364 158 353 153 l 366 152 q 386 157 376 157 l 393 151 q 398 156 394 156 l 401 155 q 405 146 406 155 l 408 146 l 408 158 l 431 157 l 448 158 q 450 146 450 153 l 452 146 l 455 158 l 462 157 l 462 151 q 532 156 472 159 q 538 146 531 151 l 538 155 l 541 155 q 551 151 547 155 q 558 154 556 154 l 558 151 q 571 156 566 156 q 575 141 576 146 l 580 144 l 578 150 l 578 153 l 585 152 l 590 149 q 598 157 591 153 q 604 142 606 157 l 608 142 q 612 156 608 157 l 615 156 q 619 144 620 156 l 635 157 m 691 154 q 696 148 696 153 l 696 142 q 686 132 696 138 l 683 137 q 691 154 686 155 m 709 153 l 711 153 q 715 146 716 151 l 711 144 l 709 150 l 709 153 m 726 152 l 728 152 q 733 146 733 151 q 722 135 723 139 l 718 135 q 726 152 721 152 m 772 149 l 775 149 l 774 143 l 772 143 l 772 149 m 745 148 l 753 147 q 747 142 753 141 l 745 142 l 745 148 m 652 145 q 656 139 652 139 l 656 144 l 652 145 m 481 151 l 481 147 q 491 135 481 143 l 491 141 q 484 150 492 145 l 481 151 m 708 138 l 713 138 l 713 135 l 708 136 l 708 138 m 569 116 l 574 113 q 581 115 578 115 l 584 109 l 580 95 l 585 94 q 593 111 588 111 q 595 102 595 106 l 598 102 q 604 113 598 114 q 608 107 608 113 q 602 94 604 108 q 610 87 610 93 l 612 87 q 615 96 612 90 q 613 107 612 100 l 621 113 l 625 112 q 632 103 629 112 l 631 92 q 621 77 625 77 l 616 78 l 611 81 q 606 76 611 75 q 600 85 607 80 q 594 77 600 76 l 591 77 q 587 83 587 77 l 590 88 l 585 92 q 567 78 584 77 l 568 81 q 547 74 553 73 q 541 80 540 77 q 515 73 515 79 q 489 95 488 75 q 482 113 488 113 l 481 101 l 487 101 l 486 92 l 481 84 l 484 78 l 478 75 l 466 76 q 456 79 460 77 q 449 77 451 77 l 449 80 l 444 77 l 439 78 q 437 81 437 78 l 431 79 l 427 79 l 422 82 q 409 74 422 75 q 404 80 410 80 q 392 75 396 75 q 385 79 389 75 l 370 77 q 368 79 368 77 l 363 77 l 357 77 q 355 81 355 77 l 350 78 l 343 84 q 336 76 343 80 l 296 79 l 291 81 q 283 73 291 77 l 281 79 q 273 77 277 77 q 222 77 259 78 q 215 81 219 78 q 176 78 187 77 l 176 81 l 133 75 l 128 78 q 118 73 119 76 l 106 77 q 96 74 101 77 q 86 77 92 77 q 30 73 50 71 q 21 94 20 86 l 68 102 l 73 99 l 85 104 q 87 100 87 104 q 142 106 106 105 l 142 103 l 170 110 l 169 107 l 174 109 l 196 108 l 214 113 q 221 104 214 109 q 251 113 222 115 l 250 111 q 271 115 260 115 l 278 115 q 281 111 281 114 q 305 115 292 117 q 313 106 305 111 l 313 112 l 315 112 l 320 109 q 335 117 322 117 l 340 116 l 357 112 q 362 117 358 118 q 368 94 369 117 l 373 94 l 371 100 l 372 105 q 387 116 376 117 q 394 113 391 113 q 399 118 395 118 l 404 118 l 408 115 l 406 109 l 406 106 l 416 117 q 431 113 429 113 q 439 115 435 116 q 439 98 441 111 l 442 98 l 443 115 l 446 115 l 458 111 l 480 119 l 490 115 l 495 117 q 502 114 500 115 q 509 117 507 117 q 519 96 513 96 l 521 102 q 517 108 517 102 l 517 111 q 522 116 517 116 l 529 115 l 536 109 l 539 109 l 547 114 l 559 113 q 566 98 564 113 l 570 98 l 571 101 l 566 113 q 569 116 568 113 m 643 111 l 654 107 q 657 110 654 110 q 659 107 657 107 l 657 101 l 657 98 l 659 98 l 672 109 q 677 103 677 108 q 666 89 666 91 q 669 86 669 89 q 654 81 659 81 q 646 85 649 85 q 639 82 642 82 l 639 88 l 642 94 q 637 100 637 94 l 637 106 q 643 111 639 111 m 706 106 l 709 101 l 721 103 l 724 103 l 723 94 q 718 89 723 88 q 709 98 709 95 q 690 85 691 96 l 683 79 q 678 85 683 85 q 673 80 678 80 l 671 86 q 682 94 681 90 l 679 100 q 706 106 687 104 m 733 102 l 753 101 l 753 95 l 750 95 l 745 98 q 743 84 743 94 q 733 99 739 85 l 733 102 m 768 97 q 772 91 772 96 l 772 88 l 767 88 l 768 97 m 807 94 l 812 94 q 817 88 817 93 l 812 88 q 809 92 809 89 l 804 89 l 802 89 q 807 94 803 95 m 836 92 l 842 92 l 841 86 l 836 87 l 836 92 m 460 102 l 460 100 q 465 105 465 99 l 465 108 q 460 102 460 107 m 654 96 l 654 87 l 659 87 l 659 96 l 654 96 m 513 94 l 513 87 l 516 87 l 516 93 l 513 94 m 452 94 l 452 89 l 456 88 q 452 94 457 94 m 697 61 q 699 58 697 58 q 696 38 696 47 l 684 42 q 678 28 683 27 l 673 31 q 668 26 673 25 l 666 26 l 659 32 l 649 33 q 646 24 648 29 q 639 27 642 27 l 639 31 l 642 36 q 632 42 631 37 l 635 48 l 630 48 l 629 31 q 623 25 629 25 l 621 26 q 617 40 622 40 l 615 41 q 596 22 610 20 q 591 28 597 27 q 584 25 587 25 q 582 28 584 28 l 582 25 l 577 28 l 574 28 l 574 26 l 580 25 l 579 22 l 574 23 l 562 26 q 549 16 555 26 l 545 19 q 534 17 541 16 q 528 32 532 31 l 522 15 l 517 15 q 513 21 513 16 l 497 14 l 488 14 l 483 17 q 470 7 482 9 l 458 10 l 443 8 q 435 12 439 12 q 431 6 435 6 l 423 7 q 414 10 418 7 q 391 6 408 7 q 387 12 391 12 l 379 7 l 374 7 l 367 13 q 354 5 367 5 q 352 8 352 5 q 349 5 349 9 q 335 9 348 6 l 310 5 q 308 8 307 5 l 295 6 q 286 9 290 7 q 275 7 281 7 q 273 11 273 7 l 254 6 q 246 9 249 9 l 231 7 l 231 10 l 227 8 l 216 12 q 207 6 207 9 l 195 10 l 179 11 q 172 9 172 12 l 160 12 l 132 14 q 130 17 130 14 l 125 14 l 113 15 q 96 22 96 16 l 91 20 l 74 20 q 72 24 71 21 l 66 21 l 64 21 q 62 24 62 22 l 57 22 l 54 22 q 28 50 30 38 l 36 55 l 56 54 q 102 56 98 57 q 104 54 105 56 l 110 56 q 113 53 113 56 q 140 57 122 58 l 152 53 q 155 56 152 56 q 159 50 155 50 q 164 58 160 58 l 176 54 q 214 61 207 61 l 226 52 l 228 51 q 234 60 229 60 l 238 56 l 235 51 l 235 47 q 258 64 254 64 q 275 57 263 63 q 281 62 277 62 l 293 61 l 300 55 q 302 64 302 60 l 305 64 q 308 60 308 63 l 313 63 l 325 56 q 330 62 326 62 l 337 61 l 347 52 l 349 52 q 354 60 349 60 q 356 52 356 54 l 359 52 q 361 62 359 58 q 369 59 364 62 q 433 64 393 64 l 438 60 q 446 63 443 63 q 448 54 448 57 l 450 54 q 480 66 450 64 q 488 60 488 63 q 522 64 490 64 l 522 61 l 527 64 q 529 60 529 63 l 534 63 l 541 57 q 572 64 542 62 l 581 57 l 578 52 l 580 45 q 577 34 578 41 l 580 34 q 588 42 582 34 q 584 60 583 52 l 589 62 l 598 59 l 613 61 l 613 58 l 618 60 l 650 58 l 654 61 q 659 55 655 55 q 670 57 664 58 q 672 54 669 54 q 677 60 673 60 q 682 51 682 59 l 684 50 q 697 61 685 62 m 734 59 q 741 52 741 56 l 746 55 l 758 54 l 770 51 l 770 45 q 764 39 770 39 l 762 39 l 763 45 l 755 46 l 745 38 q 743 41 745 41 q 728 33 743 35 l 725 39 l 726 51 q 734 59 726 55 m 829 52 l 831 47 l 831 43 l 809 39 l 807 45 q 829 52 808 51 m 709 58 l 713 57 q 721 48 718 57 q 710 28 720 33 l 708 28 q 703 35 703 29 l 703 37 l 708 35 l 710 35 l 711 49 l 704 49 l 704 52 q 709 58 705 58 m 776 53 l 780 53 q 785 47 785 52 l 780 44 l 775 45 l 776 53 m 790 52 l 795 52 q 800 46 800 51 l 800 40 q 794 35 800 35 q 789 41 789 35 l 790 52 m 743 50 q 748 43 744 43 l 748 49 l 743 50 m 500 60 l 497 54 l 504 47 l 505 54 q 500 60 505 59 m 561 56 l 560 35 l 565 35 q 564 56 564 47 l 561 56 m 529 52 l 529 46 l 531 46 l 532 52 l 529 52 m 548 36 l 548 33 l 552 33 l 553 36 l 548 36 m 491 28 l 490 22 l 493 22 l 494 28 l 491 28 z "},"Y":{"ha":1102,"x_min":20,"x_max":1021,"o":"m 903 240 q 908 224 908 229 q 903 214 906 214 q 908 192 905 197 q 899 164 903 164 l 870 164 l 858 161 q 854 166 858 166 q 848 161 854 161 l 848 164 l 844 161 q 842 164 842 161 l 838 161 l 825 161 q 802 154 825 156 q 793 156 798 156 q 785 154 790 156 q 778 156 781 156 q 766 149 778 152 q 757 151 762 151 l 757 144 l 762 136 l 762 128 q 757 123 762 123 l 762 100 l 760 100 l 762 96 l 762 93 l 757 85 q 762 80 762 85 q 741 65 762 66 l 743 60 q 736 52 743 56 l 731 60 l 688 52 l 686 58 l 686 60 l 688 65 l 682 65 q 677 55 677 65 l 672 55 q 670 58 670 55 q 668 55 668 58 l 651 58 l 630 55 l 625 58 l 611 55 l 602 55 q 597 62 597 55 l 595 62 q 587 52 595 52 l 578 52 l 564 55 q 557 52 559 52 q 555 55 555 52 q 498 47 551 55 l 500 42 l 505 45 l 517 42 l 519 47 q 534 42 529 42 q 543 45 538 45 q 545 37 545 40 l 552 37 q 557 45 552 45 q 566 37 557 41 q 571 42 567 42 l 574 42 q 578 35 578 42 l 583 35 q 590 42 583 42 q 597 40 595 40 q 600 42 597 42 q 602 35 602 37 l 604 35 q 609 42 604 42 l 616 37 q 644 45 616 42 l 649 42 l 661 47 q 663 37 663 43 l 668 37 q 672 45 668 45 l 675 45 q 682 42 682 45 l 694 45 q 717 42 714 42 l 717 45 l 722 42 l 724 42 l 731 47 l 741 47 l 748 42 l 750 42 q 760 47 756 47 q 781 42 775 42 q 795 45 793 45 l 800 42 q 821 45 812 45 l 825 45 l 830 42 q 832 50 830 45 q 873 42 873 45 q 893 50 887 50 q 901 42 893 46 l 908 42 l 908 47 l 912 47 q 915 42 912 42 q 928 47 922 47 q 931 45 931 47 l 936 47 q 941 42 941 47 q 972 47 948 47 q 966 52 972 52 l 947 52 l 947 58 l 981 65 q 989 62 985 62 q 1008 70 1002 70 l 1008 68 l 1014 70 q 1021 62 1017 70 l 1021 58 l 1016 50 l 1021 42 l 1021 24 l 1016 24 l 1018 12 q 1011 4 1018 8 l 1002 4 q 981 2 994 4 q 969 4 977 4 l 964 2 l 960 4 l 954 2 q 922 9 926 4 l 919 9 l 919 2 q 912 4 917 2 q 873 2 884 2 l 863 4 l 858 2 l 846 9 l 838 9 q 832 2 838 2 l 800 2 l 800 9 l 797 9 l 787 2 l 755 2 q 743 9 743 2 l 739 9 q 729 2 739 2 q 720 9 729 5 q 710 2 720 2 l 705 4 q 696 2 701 2 l 694 2 l 694 7 l 698 4 l 698 9 q 691 12 691 9 q 672 2 681 8 l 668 2 l 661 7 q 656 2 661 2 l 653 7 q 637 2 642 2 l 630 12 q 616 2 628 12 q 602 4 614 2 q 595 2 597 2 q 590 12 595 3 l 587 12 l 578 4 l 574 4 l 574 9 l 569 7 l 559 9 q 547 7 556 7 l 547 9 l 543 7 q 538 12 543 12 q 531 2 534 2 l 522 2 q 517 12 522 12 l 515 12 q 510 4 515 4 l 494 4 l 494 9 q 507 20 494 13 q 522 14 515 14 l 522 24 l 519 24 q 510 22 514 24 l 505 24 q 496 22 501 22 q 494 24 494 22 q 486 22 489 22 l 486 20 l 491 12 q 477 4 481 4 q 470 12 477 12 l 470 14 q 472 17 470 17 q 470 24 470 22 l 463 24 l 463 22 q 465 14 465 17 q 458 7 463 14 l 446 9 l 444 4 q 437 12 437 4 l 425 12 l 418 7 l 416 7 l 418 30 l 406 22 q 401 35 406 35 q 385 20 401 31 q 390 14 390 19 l 390 12 q 382 4 382 12 l 380 4 q 359 27 374 4 l 353 27 l 350 22 q 357 14 353 22 l 353 12 l 345 12 q 343 14 343 12 l 338 12 l 334 14 q 326 4 330 4 q 319 12 326 8 l 308 12 l 300 7 q 298 20 298 11 l 293 17 l 296 12 q 291 7 296 7 l 289 7 l 281 12 l 277 9 q 267 12 273 12 q 265 9 265 12 l 260 12 l 254 7 l 241 7 l 237 9 q 235 7 237 7 q 232 14 232 12 l 220 14 q 218 17 218 14 q 211 14 213 14 l 213 9 l 213 7 q 209 14 209 7 l 203 14 l 197 9 l 195 9 l 187 14 l 185 14 l 185 9 l 171 9 q 168 12 168 9 l 164 9 l 157 9 l 145 17 q 142 9 145 14 q 98 14 101 13 q 96 12 96 14 q 20 50 20 22 l 20 58 q 23 60 20 60 l 20 65 q 34 106 32 106 l 114 121 l 114 118 q 145 126 132 126 q 150 121 146 121 q 155 126 151 126 l 171 123 q 185 128 178 128 q 195 123 191 123 l 206 126 l 206 128 l 203 134 l 209 136 l 211 136 q 216 126 216 136 l 222 131 q 225 128 225 131 l 235 134 l 235 126 l 202 121 l 202 116 l 203 116 q 213 118 210 116 q 220 116 218 116 l 237 118 q 244 116 241 116 l 246 121 q 258 118 249 118 q 263 123 258 123 q 281 116 267 120 q 305 123 290 121 q 310 113 310 117 l 312 113 l 312 121 l 319 121 l 319 116 l 321 116 l 321 123 l 334 121 q 343 134 338 132 l 345 128 l 343 123 l 343 121 l 345 121 q 361 136 345 134 l 361 134 l 355 123 l 355 121 q 361 113 355 117 q 376 134 361 122 l 373 138 l 380 144 q 382 141 380 141 l 380 128 l 380 121 l 382 121 q 390 123 387 123 q 392 121 390 121 q 397 126 393 126 l 399 126 l 414 116 q 420 126 414 126 q 435 111 435 118 l 437 111 q 446 123 437 123 l 446 128 q 441 134 446 134 q 439 131 441 131 l 435 138 l 435 141 q 458 146 444 141 q 460 144 458 144 l 463 149 l 467 146 l 470 146 q 472 154 470 149 q 451 156 460 154 q 444 154 446 154 l 437 154 l 437 151 q 411 161 419 154 l 411 156 l 416 156 q 411 151 416 151 q 401 154 406 151 l 397 151 q 390 154 392 154 q 388 151 390 151 q 382 156 388 156 l 380 146 l 371 146 l 371 151 l 361 151 l 361 146 l 347 146 q 343 154 347 154 l 343 151 q 345 144 345 146 l 338 144 l 338 151 l 331 146 q 324 154 331 150 l 317 154 l 317 159 l 312 159 l 312 141 l 308 141 l 305 151 l 289 151 q 286 149 286 151 l 281 151 l 279 151 q 270 149 274 151 q 260 154 260 151 q 228 149 257 152 q 222 154 228 154 q 218 149 222 149 l 211 149 l 203 154 q 199 149 203 149 l 197 149 q 195 151 195 149 q 187 149 190 149 q 180 151 185 149 l 167 149 l 155 149 q 152 151 152 149 l 148 149 l 136 149 l 129 154 q 123 149 129 149 l 119 149 q 87 172 87 149 l 84 186 q 98 212 92 189 q 96 222 96 216 q 105 230 99 222 q 113 227 110 227 q 119 232 113 232 l 123 230 q 132 235 132 232 l 140 232 l 159 232 l 159 227 l 171 227 l 176 224 l 178 230 q 176 232 176 230 l 183 232 l 183 227 l 190 227 l 190 232 l 195 232 q 199 224 195 224 l 202 224 q 213 227 210 224 l 225 224 l 237 227 l 237 224 l 241 227 l 246 227 l 260 224 q 270 227 264 227 l 270 224 l 275 227 l 279 227 q 281 224 281 227 l 286 227 q 305 224 292 227 l 328 224 q 336 217 328 221 l 336 227 l 350 217 q 366 224 350 222 q 376 214 376 222 q 395 222 383 214 l 392 227 l 392 230 l 395 230 q 404 220 399 230 l 404 210 q 397 199 397 210 l 420 230 l 423 230 l 423 217 l 432 217 q 437 230 432 230 l 463 230 q 470 222 466 230 q 467 220 467 222 l 470 220 l 481 232 l 486 232 q 496 217 489 232 q 503 220 500 220 l 503 212 q 489 204 497 212 l 481 204 l 481 202 l 505 202 l 505 197 l 510 197 q 507 199 510 199 q 512 214 512 210 l 519 214 q 522 212 522 214 l 526 214 l 529 214 l 529 207 l 524 207 l 519 210 l 515 202 q 522 197 518 202 q 529 199 526 199 q 531 197 529 197 q 538 204 531 201 q 550 194 549 194 q 566 204 550 201 l 566 207 l 562 207 l 562 217 l 564 222 q 566 220 566 222 l 578 222 l 581 222 q 585 217 585 221 l 583 212 l 595 212 l 595 210 l 597 210 l 597 214 q 595 217 595 214 q 609 222 602 222 l 611 217 l 616 220 l 623 220 q 625 212 623 217 l 614 207 q 609 212 614 212 q 604 207 609 207 l 604 210 l 600 207 l 585 207 l 569 210 l 569 204 l 571 204 q 597 202 581 204 q 604 204 602 204 q 616 199 616 202 q 630 224 630 199 l 635 224 q 642 212 635 220 l 642 210 q 630 204 630 210 l 630 202 q 649 207 644 207 q 651 199 651 202 l 653 199 q 661 207 657 199 q 680 204 673 204 l 691 207 l 691 210 q 686 212 686 210 l 682 210 l 663 210 l 663 212 q 665 220 665 217 l 668 220 l 672 217 q 675 224 672 220 l 680 222 l 684 224 q 707 210 694 224 l 710 210 l 713 220 l 722 220 l 722 217 q 717 212 722 212 q 715 214 717 214 q 713 207 715 212 l 717 207 q 724 210 722 210 q 729 204 725 204 q 736 220 729 220 l 743 220 l 743 214 q 736 210 736 214 l 748 210 q 752 220 748 220 q 755 217 755 220 l 760 220 l 762 220 l 766 217 q 771 227 766 227 q 778 217 778 227 l 785 222 l 790 222 l 802 220 q 809 227 802 223 q 811 224 811 227 q 830 232 830 230 l 839 227 l 854 232 q 863 230 857 230 q 903 240 886 240 m 382 227 l 385 227 l 385 224 q 380 220 385 220 l 378 224 l 382 227 m 458 224 l 458 220 l 463 220 q 458 224 463 224 m 319 217 l 324 214 q 326 222 324 217 l 324 222 q 319 217 319 221 m 397 222 l 397 217 l 399 217 l 399 222 l 397 222 m 547 224 l 550 224 q 555 220 555 224 l 555 217 q 547 210 547 217 l 543 210 l 543 220 q 547 224 543 224 m 766 214 q 771 210 767 210 l 771 214 l 766 214 m 312 204 l 317 202 l 317 210 q 312 204 312 209 m 505 212 l 507 212 l 507 210 q 503 204 507 204 l 500 210 l 505 212 m 340 202 l 340 199 l 350 199 l 353 204 l 350 204 q 340 202 346 202 m 373 199 l 380 199 l 380 204 l 378 204 q 373 199 373 203 m 388 204 l 388 199 l 390 199 l 390 204 l 388 204 m 465 204 l 465 199 q 470 204 470 199 l 465 204 m 308 202 q 312 197 309 197 l 312 202 l 308 202 m 423 202 l 423 199 l 427 199 l 427 202 l 423 202 m 277 159 l 277 156 l 281 156 l 281 159 l 277 159 m 659 151 l 659 149 l 663 149 l 663 156 q 659 151 659 155 m 677 156 l 677 154 q 684 151 680 154 l 684 156 l 677 156 m 745 156 l 745 154 q 750 149 746 149 l 752 149 q 745 156 752 153 m 475 154 l 475 146 l 477 146 l 477 154 l 475 154 m 500 154 l 500 149 l 503 149 l 503 154 l 500 154 m 481 151 l 481 146 l 484 146 l 484 151 l 481 151 m 668 151 l 668 149 l 672 149 l 672 151 l 668 151 m 604 149 l 604 138 q 609 144 609 138 l 609 149 l 604 149 m 713 141 l 710 141 q 707 146 710 146 l 703 144 q 701 146 701 144 q 672 134 672 141 l 672 131 q 698 136 677 133 q 701 134 701 136 l 729 141 l 729 149 q 713 141 722 149 m 743 149 l 743 141 l 745 141 l 745 149 l 743 149 m 581 141 l 585 141 l 585 146 q 581 141 581 145 m 595 146 l 595 141 l 600 141 l 600 146 l 595 146 m 656 138 q 659 131 659 134 l 665 131 q 670 138 670 131 q 665 146 668 146 l 656 138 m 324 146 l 326 146 l 326 141 l 324 141 l 324 146 m 614 144 l 614 141 l 618 141 l 618 144 l 614 144 m 512 141 l 512 134 q 517 128 513 128 l 519 128 l 519 138 q 512 141 517 138 m 550 141 l 547 136 q 552 131 549 131 l 555 136 q 550 141 555 141 m 627 141 l 627 136 l 630 136 l 630 141 l 627 141 m 420 141 l 425 141 q 430 136 430 140 q 418 128 430 132 l 404 134 q 399 128 404 128 l 399 131 l 395 128 l 392 128 l 392 134 l 409 138 q 416 136 413 136 q 420 141 416 141 m 258 138 l 263 138 l 263 131 l 258 131 l 258 138 m 618 136 l 616 123 l 621 121 q 625 136 621 130 l 618 136 m 246 136 q 251 131 251 135 l 251 128 l 246 128 q 241 134 241 128 l 246 136 m 465 128 q 467 121 467 123 l 470 121 q 477 128 473 121 q 472 134 477 134 l 465 128 m 606 128 l 606 126 l 611 126 l 611 134 q 606 128 606 133 m 630 134 l 630 126 q 635 131 635 126 l 635 134 l 630 134 m 496 128 l 496 126 q 498 116 498 121 l 500 116 l 500 126 l 496 128 m 557 126 l 557 123 l 562 123 l 562 126 l 557 126 m 168 116 l 168 111 l 174 111 l 174 116 l 168 116 m 414 108 q 418 103 414 103 l 423 103 l 423 108 l 414 108 m 519 108 l 519 100 l 522 100 l 522 108 l 519 108 m 359 100 l 364 100 l 364 106 q 359 100 359 105 m 385 106 l 385 103 l 390 103 l 390 106 l 385 106 m 248 100 l 248 96 l 254 96 q 248 100 254 100 m 263 96 q 267 90 264 90 l 267 100 q 263 96 263 100 m 366 90 l 366 85 l 369 85 l 369 90 l 366 90 m 722 68 l 722 65 l 729 65 l 729 68 l 722 68 m 731 68 l 731 62 l 733 62 l 733 68 l 731 68 m 435 60 l 439 60 l 439 65 q 435 60 435 64 m 707 65 l 707 60 q 713 65 713 60 l 707 65 m 698 62 l 698 60 l 703 60 l 703 62 l 698 62 m 768 65 l 771 65 q 776 60 776 64 l 762 52 q 750 60 750 56 l 750 62 l 762 60 l 768 65 m 848 65 l 851 60 l 851 52 l 838 52 l 832 55 q 838 62 835 62 q 844 60 842 60 q 848 65 845 65 m 797 62 l 809 62 l 809 60 q 802 52 809 56 l 795 52 q 790 58 790 52 l 797 62 m 886 62 l 891 55 q 889 52 889 55 l 884 55 l 880 52 l 877 58 l 886 62 m 931 62 l 934 58 l 934 55 l 924 55 l 924 60 q 931 62 927 60 m 870 60 l 870 55 l 865 55 q 870 60 866 60 m 896 60 l 899 60 l 899 55 l 896 55 l 896 60 m 470 47 l 470 42 l 481 45 q 486 40 482 40 l 489 40 q 496 47 492 40 l 491 55 q 470 47 481 47 m 981 52 l 981 50 l 988 50 l 988 52 l 981 52 m 248 50 l 248 45 l 251 45 l 251 50 l 248 50 m 437 40 l 437 32 l 439 32 q 449 42 441 32 q 446 50 446 47 q 437 40 443 50 m 456 50 q 454 42 456 47 l 456 42 q 460 47 460 42 l 460 50 l 456 50 m 395 47 l 395 45 l 397 40 q 392 35 392 39 l 392 32 q 401 45 401 35 l 397 47 l 395 47 m 420 47 l 420 42 l 425 42 q 420 47 425 47 m 380 45 l 380 35 l 378 35 l 373 37 l 373 32 l 378 32 q 382 37 382 32 l 382 45 l 380 45 m 505 40 q 503 32 505 37 l 503 30 l 505 30 q 507 37 505 33 l 507 40 l 505 40 m 427 37 q 430 30 430 33 l 435 30 q 432 37 432 35 l 427 37 m 364 35 q 369 30 364 30 l 369 35 l 364 35 m 420 35 l 420 30 l 423 30 l 423 35 l 420 35 m 547 35 l 547 30 l 550 30 l 550 35 l 547 35 m 536 32 l 536 30 l 541 30 l 541 32 l 536 32 m 597 32 q 592 17 597 31 q 600 20 597 20 l 597 24 l 600 30 l 600 32 l 597 32 m 220 30 l 220 24 l 222 24 l 222 30 l 220 30 m 277 20 l 289 20 q 296 22 289 22 l 296 27 q 289 30 289 27 q 277 20 277 26 m 326 22 l 331 20 l 334 20 l 334 30 q 326 22 330 30 m 260 22 l 265 20 l 267 20 l 267 27 l 265 27 q 260 22 260 26 m 305 27 l 302 17 l 308 17 q 312 22 312 17 l 317 20 l 319 20 l 319 27 l 317 27 q 315 24 315 27 l 310 27 l 305 27 m 345 27 l 345 20 l 347 20 l 347 27 l 345 27 m 378 27 l 376 22 l 380 20 l 382 20 l 382 22 q 378 27 382 27 m 239 24 l 239 20 l 241 20 l 241 24 l 239 24 m 423 22 l 425 17 q 437 20 429 20 l 437 24 l 435 24 l 423 22 m 475 20 l 481 14 q 484 22 481 17 l 479 24 q 475 20 475 24 m 538 20 l 543 17 l 545 17 l 545 24 l 543 24 q 538 20 538 24 m 581 24 l 581 14 l 587 14 l 587 17 q 581 24 587 20 m 668 17 l 675 17 q 680 22 680 17 l 675 24 q 668 17 671 24 m 726 24 l 726 14 q 733 17 730 17 q 731 24 731 22 l 726 24 m 748 24 q 752 20 748 20 l 752 24 l 748 24 m 760 24 l 760 17 l 768 17 q 766 24 766 22 l 760 24 m 795 20 l 795 17 l 797 17 q 804 24 801 17 l 800 24 q 795 20 795 24 m 874 24 l 874 20 l 877 20 l 877 24 l 874 24 m 441 17 l 449 17 l 460 20 l 460 22 l 446 22 q 441 17 441 21 m 564 22 l 564 14 l 566 14 q 569 22 566 17 l 564 22 m 609 22 l 609 14 l 611 14 l 611 22 l 609 22 m 621 22 l 627 14 q 635 17 632 17 q 630 22 635 22 q 627 20 627 22 l 623 22 l 621 22 m 659 22 l 659 17 l 663 17 q 659 22 663 22 m 694 22 l 694 17 l 701 17 l 701 22 l 694 22 m 842 22 l 842 20 l 846 20 l 846 22 l 842 22 m 893 22 l 893 20 l 899 20 l 899 22 l 893 22 m 919 17 l 924 17 l 924 22 q 919 17 919 21 m 406 20 l 409 20 q 414 14 414 19 q 399 4 414 11 q 395 9 395 4 l 390 7 l 388 7 q 392 12 389 12 l 395 12 l 399 9 q 406 20 406 16 m 646 17 l 646 14 l 651 14 l 651 17 l 646 17 m 251 14 l 251 9 l 254 9 l 254 14 l 251 14 m 893 9 l 893 7 l 899 7 l 899 9 l 893 9 z "},"Z":{"ha":1238,"x_min":20,"x_max":1156,"o":"m 1085 235 q 1089 220 1089 227 l 1077 218 l 1070 218 l 1070 220 q 1082 228 1070 227 l 1080 233 l 1085 235 m 1101 235 l 1104 230 l 1103 227 q 1096 219 1103 223 l 1094 224 q 1101 235 1098 235 m 850 238 l 855 238 l 862 232 l 867 235 q 884 229 876 229 l 888 231 l 903 229 l 910 233 q 914 228 911 228 l 917 228 l 917 233 l 941 233 l 948 227 q 956 235 948 231 l 958 235 q 977 229 962 229 q 982 233 978 234 l 991 233 l 991 228 l 1001 228 q 1010 224 1006 228 l 1015 227 q 1022 224 1019 224 q 1025 232 1025 229 l 1027 232 l 1027 227 l 1034 232 q 1039 227 1039 231 l 1044 229 l 1046 229 l 1046 218 l 1036 221 q 1024 216 1029 216 l 1024 219 q 1007 212 1008 214 l 996 215 l 991 215 l 979 213 q 990 204 979 207 q 998 207 993 204 l 1021 201 l 1024 206 l 1029 203 l 1040 203 q 1072 207 1050 203 l 1076 204 q 1086 207 1081 207 l 1086 204 l 1091 206 l 1098 206 l 1098 203 l 1095 199 l 1091 201 l 1084 201 l 1086 196 l 1086 193 l 1074 197 l 1062 194 l 1057 197 q 1036 193 1052 195 l 1036 195 l 1031 193 l 1012 193 l 1000 191 l 1000 194 l 995 191 l 992 191 q 990 194 990 191 l 985 191 l 968 192 l 970 179 l 966 182 l 954 180 l 954 177 l 956 172 q 954 169 954 172 q 942 180 947 170 l 932 180 l 932 185 l 935 191 l 928 191 l 930 185 q 922 175 925 175 l 924 170 l 924 168 l 915 168 l 915 165 l 920 165 l 920 159 q 914 155 920 155 q 908 176 911 161 l 913 178 q 920 175 918 176 q 916 180 920 180 l 911 181 q 901 178 905 181 q 894 181 897 181 l 896 176 l 896 171 l 893 165 q 901 160 901 165 l 900 155 l 898 155 l 888 163 l 888 153 l 881 153 l 874 159 q 857 151 863 151 l 845 154 q 836 152 841 152 l 838 146 l 842 149 l 847 146 q 864 149 857 149 l 869 146 q 876 148 873 148 q 880 142 877 142 q 886 148 882 148 l 895 144 q 897 147 897 144 q 938 130 909 146 l 937 125 l 949 127 l 949 122 l 959 127 l 962 121 l 961 111 l 954 111 l 954 114 l 956 119 l 949 119 q 946 104 949 107 l 951 104 q 987 105 957 103 l 987 100 q 972 90 982 100 q 931 85 941 91 l 924 86 q 917 76 920 76 l 914 76 q 907 89 908 76 l 901 90 l 903 84 q 898 79 903 79 l 895 79 l 888 85 q 884 79 888 79 q 871 83 876 80 q 828 73 834 73 q 821 76 823 76 l 806 69 q 802 74 806 74 l 795 75 q 778 67 787 69 l 773 70 l 768 67 q 761 71 764 71 l 751 65 q 747 71 751 71 l 744 71 l 747 66 l 746 63 l 744 58 l 749 58 l 749 63 l 760 60 l 768 65 l 770 65 l 779 54 q 794 59 787 59 q 799 54 795 54 l 806 58 l 811 58 l 810 53 q 818 56 813 53 l 827 52 l 832 55 q 840 52 837 52 l 857 57 q 859 49 859 52 q 873 56 868 56 l 884 37 l 884 35 l 877 35 l 868 43 q 850 33 867 33 q 846 39 851 39 l 848 44 l 848 47 l 846 47 q 844 41 846 41 q 837 44 839 44 l 837 41 q 844 28 839 28 l 848 28 q 860 31 856 28 l 874 27 l 889 27 l 901 29 l 907 18 q 888 11 892 11 l 879 17 l 879 12 l 867 14 l 862 15 l 862 9 l 859 9 l 852 15 q 850 12 850 15 l 845 15 l 838 16 q 836 13 836 16 l 831 16 q 809 14 818 14 q 805 19 810 19 l 802 14 l 804 9 l 800 6 l 797 6 l 788 14 l 785 14 q 766 5 785 4 q 762 10 766 10 l 759 10 l 751 5 q 745 13 748 5 l 711 4 q 701 12 701 5 l 694 7 q 692 9 692 7 q 675 5 680 5 q 668 13 675 9 q 637 6 668 6 l 637 9 l 632 6 q 629 9 629 6 l 625 7 l 593 7 q 591 10 591 7 l 587 8 l 548 9 q 505 8 528 9 l 493 11 q 467 9 477 9 l 462 12 q 455 9 457 9 q 452 12 452 9 l 440 10 l 395 12 q 393 14 393 12 l 388 12 l 371 12 l 366 15 l 363 9 q 357 13 361 10 q 311 9 313 12 q 309 12 309 9 l 292 9 q 280 12 284 9 l 266 10 l 249 11 l 235 14 q 225 12 231 12 q 211 22 211 18 q 172 21 206 20 q 163 32 173 26 l 163 37 l 161 37 q 159 35 159 37 q 137 41 155 37 q 118 39 124 39 l 109 44 q 101 42 104 42 l 94 55 l 95 60 l 102 60 l 100 66 l 100 68 l 104 68 l 104 73 l 100 73 q 98 68 100 68 q 85 74 90 74 q 79 71 81 71 q 70 98 69 89 l 70 100 l 84 103 l 84 105 q 75 119 79 119 q 44 112 68 114 q 41 115 44 115 l 39 109 q 20 128 35 110 q 141 164 21 151 l 155 163 l 160 161 l 175 171 l 175 173 l 187 170 q 192 176 188 176 l 197 172 l 197 180 q 185 186 185 181 l 187 186 q 195 183 192 183 l 195 191 l 193 191 q 178 189 191 191 q 159 195 170 195 l 147 195 l 135 193 q 128 203 131 203 q 121 201 123 201 q 109 210 121 209 q 124 217 109 215 l 123 214 q 182 223 176 221 l 182 226 l 186 225 l 191 222 q 196 228 192 228 l 205 224 l 227 229 q 237 218 227 225 q 241 227 237 227 l 260 226 q 282 230 267 225 q 289 222 282 227 l 292 222 l 299 227 q 301 224 301 227 q 309 229 309 227 q 328 223 313 229 l 328 231 l 330 231 l 337 226 l 340 226 l 347 231 q 357 228 353 231 q 431 236 366 227 l 446 233 q 455 235 446 233 l 469 232 q 474 237 470 237 l 488 234 l 493 237 l 507 233 q 536 240 513 237 q 555 235 555 237 l 560 237 l 565 237 l 570 234 q 575 239 571 239 q 596 233 593 233 q 610 238 604 238 l 613 233 l 623 237 l 627 235 q 649 237 640 237 l 654 234 l 656 239 q 663 236 659 239 l 724 239 q 728 234 724 234 l 742 233 l 743 239 q 771 233 767 235 l 783 237 l 802 231 q 807 237 803 237 l 829 233 q 850 238 844 238 m 1137 229 q 1156 225 1150 225 q 1152 220 1156 220 l 1137 223 l 1137 229 m 1130 226 l 1130 221 l 1125 221 q 1130 226 1126 227 m 1063 226 l 1065 220 l 1058 220 q 1063 226 1059 226 m 955 214 q 960 208 956 208 l 964 208 l 964 213 l 955 214 m 966 213 l 966 210 l 971 210 l 972 213 l 966 213 m 1108 208 l 1120 205 q 1129 208 1125 205 q 1141 197 1140 204 l 1136 195 l 1126 195 q 1122 203 1122 195 q 1115 195 1115 203 l 1112 195 l 1112 201 l 1107 201 l 1107 195 l 1105 195 l 1105 203 l 1108 208 m 926 209 l 926 207 l 930 206 l 930 209 l 926 209 m 945 206 l 945 203 l 952 203 l 952 205 l 945 206 m 887 192 l 887 189 l 892 189 l 892 192 l 887 192 m 1006 189 l 1009 183 l 1004 180 l 1002 180 l 1002 183 q 1006 189 1002 189 m 1026 188 l 1028 187 l 1028 182 l 1025 182 l 1026 188 m 882 179 l 882 172 l 886 171 l 886 179 l 882 179 m 865 177 l 865 174 l 869 174 l 869 177 l 865 177 m 846 170 l 846 168 q 848 159 848 162 q 852 164 852 159 l 852 170 l 846 170 m 882 169 l 881 161 l 884 161 l 884 169 l 882 169 m 199 186 l 199 178 l 206 178 l 207 182 q 199 186 204 183 m 823 152 l 823 150 l 831 149 l 831 155 q 823 152 826 152 m 928 144 l 931 144 q 950 135 949 143 q 947 132 947 135 q 936 140 935 138 l 930 138 l 928 138 l 928 144 m 952 143 l 960 142 q 955 138 960 137 l 952 143 m 900 139 l 897 134 l 902 132 l 907 131 l 907 136 q 900 139 904 136 m 976 134 l 979 134 q 983 129 983 133 l 983 126 q 976 129 979 129 l 976 134 m 911 131 q 916 125 912 125 l 918 125 l 918 131 l 911 131 m 1009 127 l 1009 123 l 1004 123 q 1009 127 1006 128 m 1060 126 l 1065 126 l 1064 121 l 1059 121 l 1060 126 m 895 126 l 895 123 l 899 123 l 899 126 l 895 126 m 923 125 l 925 120 q 906 110 925 113 l 903 115 q 894 113 899 113 l 894 102 l 925 102 l 932 106 l 944 104 l 944 111 q 923 125 926 125 m 968 124 l 971 124 l 971 119 l 968 119 l 968 124 m 856 117 l 856 115 l 863 114 l 863 119 q 856 117 859 117 m 880 119 l 880 116 l 884 116 l 884 119 l 880 119 m 882 111 l 882 109 q 886 103 882 103 l 889 103 l 889 106 q 884 111 889 111 l 882 111 m 1016 106 l 1021 106 l 1021 104 q 1016 99 1021 98 l 1011 99 l 1011 102 q 1016 106 1012 106 m 1030 106 l 1033 106 l 1032 101 l 1030 101 l 1030 106 m 997 104 l 1002 102 q 999 94 999 97 l 994 94 q 992 102 994 97 l 997 104 m 951 101 l 951 96 l 956 96 q 951 101 956 100 m 966 100 q 972 95 965 95 l 975 95 l 975 98 l 966 100 m 85 121 l 87 105 l 94 105 l 94 115 q 85 121 90 116 m 103 100 l 103 97 l 108 97 l 108 100 l 103 100 m 723 79 l 722 69 q 725 61 725 64 l 736 60 l 734 66 l 739 66 l 739 68 q 734 74 739 74 l 732 74 l 732 68 l 730 68 q 725 79 725 69 l 723 79 m 701 70 l 701 67 l 706 67 l 706 69 l 701 70 m 715 69 l 715 66 q 720 61 716 61 l 720 64 q 715 69 720 69 m 689 62 l 699 62 q 694 67 699 67 q 689 62 689 66 m 667 66 l 667 63 l 672 62 l 672 65 l 667 66 m 815 50 q 827 29 818 29 q 836 31 831 31 l 836 34 q 820 50 827 34 l 815 50 m 890 50 l 890 47 l 895 50 l 901 50 q 906 39 901 46 l 906 37 q 897 35 897 35 l 884 45 q 890 50 886 51 m 918 50 l 928 49 q 930 39 928 43 q 928 36 928 39 l 923 39 q 913 37 918 37 l 913 44 q 918 50 914 50 m 942 49 l 945 49 q 947 41 945 46 l 942 38 l 937 39 q 942 49 942 45 m 114 62 l 114 60 l 119 60 l 119 62 l 114 62 m 786 38 q 791 33 787 33 l 810 32 q 805 37 810 37 l 793 35 q 786 38 789 38 m 731 37 l 731 32 q 736 37 736 32 l 731 37 m 743 37 l 743 32 l 745 31 l 745 37 l 743 37 m 918 28 l 922 28 l 922 23 q 918 18 918 23 l 912 18 l 913 24 q 918 28 913 28 m 764 18 l 764 12 l 768 12 q 764 18 769 18 z "},"[":{"ha":514,"x_min":0,"x_max":0,"o":""},"\\":{"ha":386,"x_min":0,"x_max":0,"o":""},"]":{"ha":514,"x_min":0,"x_max":0,"o":""},"^":{"ha":688,"x_min":0,"x_max":0,"o":""},"_":{"ha":694,"x_min":0,"x_max":0,"o":""},"`":{"ha":694,"x_min":0,"x_max":0,"o":""},"a":{"ha":625,"x_min":0,"x_max":0,"o":""},"b":{"ha":675,"x_min":0,"x_max":0,"o":""},"c":{"ha":614,"x_min":0,"x_max":0,"o":""},"d":{"ha":705,"x_min":0,"x_max":0,"o":""},"e":{"ha":616,"x_min":0,"x_max":0,"o":""},"f":{"ha":379,"x_min":0,"x_max":0,"o":""},"g":{"ha":610,"x_min":0,"x_max":0,"o":""},"h":{"ha":749,"x_min":0,"x_max":0,"o":""},"i":{"ha":349,"x_min":0,"x_max":0,"o":""},"j":{"ha":346,"x_min":0,"x_max":0,"o":""},"k":{"ha":696,"x_min":0,"x_max":0,"o":""},"l":{"ha":354,"x_min":0,"x_max":0,"o":""},"m":{"ha":1064,"x_min":0,"x_max":0,"o":""},"n":{"ha":751,"x_min":0,"x_max":0,"o":""},"o":{"ha":685,"x_min":0,"x_max":0,"o":""},"p":{"ha":685,"x_min":0,"x_max":0,"o":""},"q":{"ha":694,"x_min":0,"x_max":0,"o":""},"r":{"ha":469,"x_min":0,"x_max":0,"o":""},"s":{"ha":476,"x_min":0,"x_max":0,"o":""},"t":{"ha":457,"x_min":0,"x_max":0,"o":""},"u":{"ha":718,"x_min":0,"x_max":0,"o":""},"v":{"ha":673,"x_min":0,"x_max":0,"o":""},"w":{"ha":960,"x_min":0,"x_max":0,"o":""},"x":{"ha":685,"x_min":0,"x_max":0,"o":""},"y":{"ha":589,"x_min":0,"x_max":0,"o":""},"z":{"ha":493,"x_min":0,"x_max":0,"o":""},"{":{"ha":688,"x_min":0,"x_max":0,"o":""},"|":{"ha":688,"x_min":0,"x_max":0,"o":""},"}":{"ha":688,"x_min":0,"x_max":0,"o":""},"~":{"ha":688,"x_min":0,"x_max":0,"o":""},"":{"ha":456,"x_min":0,"x_max":0,"o":""},"":{"ha":772,"x_min":0,"x_max":0,"o":""},"":{"ha":688,"x_min":0,"x_max":0,"o":""},"":{"ha":688,"x_min":0,"x_max":0,"o":""},"":{"ha":856,"x_min":0,"x_max":0,"o":""},"":{"ha":688,"x_min":0,"x_max":0,"o":""},"":{"ha":688,"x_min":0,"x_max":0,"o":""},"":{"ha":694,"x_min":0,"x_max":0,"o":""},"":{"ha":1135,"x_min":0,"x_max":0,"o":""},"":{"ha":439,"x_min":0,"x_max":0,"o":""},"":{"ha":640,"x_min":0,"x_max":0,"o":""},"":{"ha":688,"x_min":0,"x_max":0,"o":""},"":{"ha":1135,"x_min":0,"x_max":0,"o":""},"":{"ha":454,"x_min":0,"x_max":0,"o":""},"":{"ha":457,"x_min":0,"x_max":0,"o":""},"":{"ha":688,"x_min":0,"x_max":0,"o":""},"":{"ha":688,"x_min":0,"x_max":0,"o":""},"":{"ha":688,"x_min":0,"x_max":0,"o":""},"":{"ha":694,"x_min":0,"x_max":0,"o":""},"":{"ha":800,"x_min":0,"x_max":0,"o":""},"":{"ha":694,"x_min":0,"x_max":0,"o":""},"":{"ha":345,"x_min":0,"x_max":0,"o":""},"":{"ha":694,"x_min":0,"x_max":0,"o":""},"":{"ha":688,"x_min":0,"x_max":0,"o":""},"":{"ha":487,"x_min":0,"x_max":0,"o":""},"":{"ha":640,"x_min":0,"x_max":0,"o":""},"":{"ha":1158,"x_min":0,"x_max":0,"o":""},"":{"ha":1332,"x_min":0,"x_max":0,"o":""},"":{"ha":1158,"x_min":0,"x_max":0,"o":""},"":{"ha":507,"x_min":0,"x_max":0,"o":""},"":{"ha":1044,"x_min":0,"x_max":0,"o":""},"":{"ha":1044,"x_min":0,"x_max":0,"o":""},"":{"ha":1044,"x_min":0,"x_max":0,"o":""},"":{"ha":1044,"x_min":0,"x_max":0,"o":""},"":{"ha":1044,"x_min":0,"x_max":0,"o":""},"":{"ha":1044,"x_min":0,"x_max":0,"o":""},"":{"ha":1436,"x_min":0,"x_max":0,"o":""},"":{"ha":949,"x_min":0,"x_max":0,"o":""},"":{"ha":781,"x_min":0,"x_max":0,"o":""},"":{"ha":781,"x_min":0,"x_max":0,"o":""},"":{"ha":781,"x_min":0,"x_max":0,"o":""},"":{"ha":781,"x_min":0,"x_max":0,"o":""},"":{"ha":446,"x_min":0,"x_max":0,"o":""},"":{"ha":446,"x_min":0,"x_max":0,"o":""},"":{"ha":446,"x_min":0,"x_max":0,"o":""},"":{"ha":446,"x_min":0,"x_max":0,"o":""},"":{"ha":1029,"x_min":0,"x_max":0,"o":""},"":{"ha":1054,"x_min":0,"x_max":0,"o":""},"":{"ha":1095,"x_min":0,"x_max":0,"o":""},"":{"ha":1095,"x_min":0,"x_max":0,"o":""},"":{"ha":1095,"x_min":0,"x_max":0,"o":""},"":{"ha":1095,"x_min":0,"x_max":0,"o":""},"":{"ha":1095,"x_min":0,"x_max":0,"o":""},"":{"ha":688,"x_min":0,"x_max":0,"o":""},"":{"ha":1095,"x_min":0,"x_max":0,"o":""},"":{"ha":1018,"x_min":0,"x_max":0,"o":""},"":{"ha":1018,"x_min":0,"x_max":0,"o":""},"":{"ha":1018,"x_min":0,"x_max":0,"o":""},"":{"ha":1018,"x_min":0,"x_max":0,"o":""},"":{"ha":836,"x_min":0,"x_max":0,"o":""},"":{"ha":760,"x_min":0,"x_max":0,"o":""},"":{"ha":848,"x_min":0,"x_max":0,"o":""},"":{"ha":625,"x_min":0,"x_max":0,"o":""},"":{"ha":625,"x_min":0,"x_max":0,"o":""},"":{"ha":625,"x_min":0,"x_max":0,"o":""},"":{"ha":625,"x_min":0,"x_max":0,"o":""},"":{"ha":625,"x_min":0,"x_max":0,"o":""},"":{"ha":625,"x_min":0,"x_max":0,"o":""},"":{"ha":986,"x_min":0,"x_max":0,"o":""},"":{"ha":614,"x_min":0,"x_max":0,"o":""},"":{"ha":616,"x_min":0,"x_max":0,"o":""},"":{"ha":616,"x_min":0,"x_max":0,"o":""},"":{"ha":616,"x_min":0,"x_max":0,"o":""},"":{"ha":616,"x_min":0,"x_max":0,"o":""},"":{"ha":349,"x_min":0,"x_max":0,"o":""},"":{"ha":349,"x_min":0,"x_max":0,"o":""},"":{"ha":349,"x_min":0,"x_max":0,"o":""},"":{"ha":349,"x_min":0,"x_max":0,"o":""},"":{"ha":772,"x_min":0,"x_max":0,"o":""},"":{"ha":751,"x_min":0,"x_max":0,"o":""},"":{"ha":685,"x_min":0,"x_max":0,"o":""},"":{"ha":685,"x_min":0,"x_max":0,"o":""},"":{"ha":685,"x_min":0,"x_max":0,"o":""},"":{"ha":685,"x_min":0,"x_max":0,"o":""},"":{"ha":685,"x_min":0,"x_max":0,"o":""},"":{"ha":688,"x_min":0,"x_max":0,"o":""},"":{"ha":685,"x_min":0,"x_max":0,"o":""},"":{"ha":718,"x_min":0,"x_max":0,"o":""},"":{"ha":718,"x_min":0,"x_max":0,"o":""},"":{"ha":718,"x_min":0,"x_max":0,"o":""},"":{"ha":718,"x_min":0,"x_max":0,"o":""},"":{"ha":589,"x_min":0,"x_max":0,"o":""},"":{"ha":685,"x_min":0,"x_max":0,"o":""},"":{"ha":589,"x_min":0,"x_max":0,"o":""},"":{"ha":349,"x_min":0,"x_max":0,"o":""},"":{"ha":694,"x_min":0,"x_max":0,"o":""},"":{"ha":694,"x_min":0,"x_max":0,"o":""},"":{"ha":694,"x_min":0,"x_max":0,"o":""},"":{"ha":694,"x_min":0,"x_max":0,"o":""},"":{"ha":694,"x_min":0,"x_max":0,"o":""},"":{"ha":694,"x_min":0,"x_max":0,"o":""},"":{"ha":694,"x_min":0,"x_max":0,"o":""},"":{"ha":694,"x_min":0,"x_max":0,"o":""},"":{"ha":694,"x_min":0,"x_max":0,"o":""},"":{"ha":751,"x_min":0,"x_max":0,"o":""},"":{"ha":1389,"x_min":0,"x_max":0,"o":""},"":{"ha":378,"x_min":0,"x_max":0,"o":""},"":{"ha":378,"x_min":0,"x_max":0,"o":""},"":{"ha":378,"x_min":0,"x_max":0,"o":""},"":{"ha":617,"x_min":0,"x_max":0,"o":""},"":{"ha":617,"x_min":0,"x_max":0,"o":""},"":{"ha":617,"x_min":0,"x_max":0,"o":""},"":{"ha":688,"x_min":0,"x_max":0,"o":""},"":{"ha":688,"x_min":0,"x_max":0,"o":""},"":{"ha":694,"x_min":0,"x_max":0,"o":""},"":{"ha":1389,"x_min":0,"x_max":0,"o":""},"":{"ha":428,"x_min":0,"x_max":0,"o":""},"":{"ha":428,"x_min":0,"x_max":0,"o":""},"":{"ha":232,"x_min":0,"x_max":0,"o":""},"":{"ha":688,"x_min":0,"x_max":0,"o":""},"":{"ha":688,"x_min":0,"x_max":0,"o":""},"":{"ha":1375,"x_min":0,"x_max":0,"o":""},"":{"ha":688,"x_min":0,"x_max":0,"o":""},"":{"ha":1540,"x_min":0,"x_max":0,"o":""},"":{"ha":1015,"x_min":0,"x_max":0,"o":""},"":{"ha":688,"x_min":0,"x_max":0,"o":""},"":{"ha":733,"x_min":0,"x_max":0,"o":""},"":{"ha":1027,"x_min":0,"x_max":0,"o":""},"":{"ha":818,"x_min":0,"x_max":0,"o":""},"":{"ha":688,"x_min":0,"x_max":0,"o":""},"":{"ha":688,"x_min":0,"x_max":0,"o":""},"":{"ha":688,"x_min":0,"x_max":0,"o":""},"":{"ha":451,"x_min":0,"x_max":0,"o":""},"":{"ha":688,"x_min":0,"x_max":0,"o":""},"":{"ha":688,"x_min":0,"x_max":0,"o":""},"":{"ha":688,"x_min":0,"x_max":0,"o":""},"":{"ha":728,"x_min":0,"x_max":0,"o":""},"":{"ha":733,"x_min":0,"x_max":0,"o":""}}}
